%TF.GenerationSoftware,KiCad,Pcbnew,(5.1.5-0-10_14)*%
%TF.CreationDate,2021-10-12T17:28:20-04:00*%
%TF.ProjectId,piano_aid_pcb,7069616e-6f5f-4616-9964-5f7063622e6b,2*%
%TF.SameCoordinates,Original*%
%TF.FileFunction,Profile,NP*%
%FSLAX46Y46*%
G04 Gerber Fmt 4.6, Leading zero omitted, Abs format (unit mm)*
G04 Created by KiCad (PCBNEW (5.1.5-0-10_14)) date 2021-10-12 17:28:20*
%MOMM*%
%LPD*%
G04 APERTURE LIST*
%TA.AperFunction,Profile*%
%ADD10C,0.050000*%
%TD*%
%TA.AperFunction,Profile*%
%ADD11C,0.001000*%
%TD*%
G04 APERTURE END LIST*
D10*
X123190000Y-134620000D02*
G75*
G02X120650000Y-132080000I0J2540000D01*
G01*
X165100000Y-132080000D02*
G75*
G02X162560000Y-134620000I-2540000J0D01*
G01*
X162560000Y-73660000D02*
G75*
G02X165100000Y-76200000I0J-2540000D01*
G01*
X120650000Y-76200000D02*
G75*
G02X123190000Y-73660000I2540000J0D01*
G01*
X162560000Y-73660000D02*
X123190000Y-73660000D01*
X162560000Y-134620000D02*
X123190000Y-134620000D01*
X120650000Y-76200000D02*
X120650000Y-132080000D01*
X165100000Y-76200000D02*
X165100000Y-132080000D01*
D11*
%TO.C,J1*%
X130030000Y-105378000D02*
X128830000Y-105378000D01*
X128830000Y-104578000D02*
X130030000Y-104578000D01*
X130030000Y-114878000D02*
X128830000Y-114878000D01*
X128830000Y-114078000D02*
X130030000Y-114078000D01*
X125330000Y-105378000D02*
X124130000Y-105378000D01*
X124130000Y-104578000D02*
X125330000Y-104578000D01*
X125630000Y-108628000D02*
X125630000Y-110828000D01*
X124830000Y-110828000D02*
X124830000Y-108628000D01*
X125330000Y-114878000D02*
X124130000Y-114878000D01*
X124130000Y-114078000D02*
X125330000Y-114078000D01*
X124130000Y-114878000D02*
G75*
G02X123730000Y-114478000I0J400000D01*
G01*
X123730000Y-114478000D02*
G75*
G02X124130000Y-114078000I400000J0D01*
G01*
X125330000Y-114078000D02*
G75*
G02X125730000Y-114478000I0J-400000D01*
G01*
X125730000Y-114478000D02*
G75*
G02X125330000Y-114878000I-400000J0D01*
G01*
X125630000Y-110828000D02*
G75*
G02X125230000Y-111228000I-400000J0D01*
G01*
X125230000Y-111228000D02*
G75*
G02X124830000Y-110828000I0J400000D01*
G01*
X124830000Y-108628000D02*
G75*
G02X125230000Y-108228000I400000J0D01*
G01*
X125230000Y-108228000D02*
G75*
G02X125630000Y-108628000I0J-400000D01*
G01*
X124130000Y-105378000D02*
G75*
G02X123730000Y-104978000I0J400000D01*
G01*
X123730000Y-104978000D02*
G75*
G02X124130000Y-104578000I400000J0D01*
G01*
X125330000Y-104578000D02*
G75*
G02X125730000Y-104978000I0J-400000D01*
G01*
X125730000Y-104978000D02*
G75*
G02X125330000Y-105378000I-400000J0D01*
G01*
X128830000Y-114878000D02*
G75*
G02X128430000Y-114478000I0J400000D01*
G01*
X128430000Y-114478000D02*
G75*
G02X128830000Y-114078000I400000J0D01*
G01*
X130030000Y-114078000D02*
G75*
G02X130430000Y-114478000I0J-400000D01*
G01*
X130430000Y-114478000D02*
G75*
G02X130030000Y-114878000I-400000J0D01*
G01*
X128830000Y-105378000D02*
G75*
G02X128430000Y-104978000I0J400000D01*
G01*
X128430000Y-104978000D02*
G75*
G02X128830000Y-104578000I400000J0D01*
G01*
X130030000Y-104578000D02*
G75*
G02X130430000Y-104978000I0J-400000D01*
G01*
X130430000Y-104978000D02*
G75*
G02X130030000Y-105378000I-400000J0D01*
G01*
%TD*%
M02*
