%TF.GenerationSoftware,KiCad,Pcbnew,(5.1.5-0-10_14)*%
%TF.CreationDate,2021-10-12T17:28:20-04:00*%
%TF.ProjectId,piano_aid_pcb,7069616e-6f5f-4616-9964-5f7063622e6b,2*%
%TF.SameCoordinates,Original*%
%TF.FileFunction,Copper,L2,Bot*%
%TF.FilePolarity,Positive*%
%FSLAX46Y46*%
G04 Gerber Fmt 4.6, Leading zero omitted, Abs format (unit mm)*
G04 Created by KiCad (PCBNEW (5.1.5-0-10_14)) date 2021-10-12 17:28:20*
%MOMM*%
%LPD*%
G04 APERTURE LIST*
%TA.AperFunction,ComponentPad*%
%ADD10C,0.100000*%
%TD*%
%TA.AperFunction,ComponentPad*%
%ADD11C,2.250000*%
%TD*%
%TA.AperFunction,SMDPad,CuDef*%
%ADD12R,1.600000X3.300000*%
%TD*%
%TA.AperFunction,SMDPad,CuDef*%
%ADD13R,1.600000X1.200000*%
%TD*%
%TA.AperFunction,ComponentPad*%
%ADD14R,2.250000X2.250000*%
%TD*%
%TA.AperFunction,SMDPad,CuDef*%
%ADD15C,0.100000*%
%TD*%
%TA.AperFunction,ComponentPad*%
%ADD16O,1.600000X1.600000*%
%TD*%
%TA.AperFunction,ComponentPad*%
%ADD17R,1.600000X1.600000*%
%TD*%
%TA.AperFunction,ComponentPad*%
%ADD18R,1.700000X1.700000*%
%TD*%
%TA.AperFunction,ComponentPad*%
%ADD19O,1.700000X1.700000*%
%TD*%
%TA.AperFunction,ComponentPad*%
%ADD20C,2.000000*%
%TD*%
%TA.AperFunction,ComponentPad*%
%ADD21R,2.000000X2.000000*%
%TD*%
%TA.AperFunction,ComponentPad*%
%ADD22C,3.585000*%
%TD*%
%TA.AperFunction,ComponentPad*%
%ADD23C,2.100000*%
%TD*%
%TA.AperFunction,ViaPad*%
%ADD24C,0.685800*%
%TD*%
%TA.AperFunction,Conductor*%
%ADD25C,0.635000*%
%TD*%
%TA.AperFunction,Conductor*%
%ADD26C,0.304800*%
%TD*%
%TA.AperFunction,Conductor*%
%ADD27C,0.254000*%
%TD*%
G04 APERTURE END LIST*
%TA.AperFunction,ComponentPad*%
D10*
%TO.P,J1,SHIELD*%
%TO.N,N/C*%
G36*
X125951558Y-113530287D02*
G01*
X125997668Y-113537127D01*
X126042885Y-113548453D01*
X126086775Y-113564157D01*
X126128913Y-113584087D01*
X126168896Y-113608052D01*
X126206337Y-113635820D01*
X126240876Y-113667124D01*
X126272180Y-113701663D01*
X126299948Y-113739104D01*
X126323913Y-113779087D01*
X126343843Y-113821225D01*
X126359547Y-113865115D01*
X126370873Y-113910332D01*
X126377713Y-113956442D01*
X126380000Y-114003000D01*
X126380000Y-114953000D01*
X126377713Y-114999558D01*
X126370873Y-115045668D01*
X126359547Y-115090885D01*
X126343843Y-115134775D01*
X126323913Y-115176913D01*
X126299948Y-115216896D01*
X126272180Y-115254337D01*
X126240876Y-115288876D01*
X126206337Y-115320180D01*
X126168896Y-115347948D01*
X126128913Y-115371913D01*
X126086775Y-115391843D01*
X126042885Y-115407547D01*
X125997668Y-115418873D01*
X125951558Y-115425713D01*
X125905000Y-115428000D01*
X123555000Y-115428000D01*
X123508442Y-115425713D01*
X123462332Y-115418873D01*
X123417115Y-115407547D01*
X123373225Y-115391843D01*
X123331087Y-115371913D01*
X123291104Y-115347948D01*
X123253663Y-115320180D01*
X123219124Y-115288876D01*
X123187820Y-115254337D01*
X123160052Y-115216896D01*
X123136087Y-115176913D01*
X123116157Y-115134775D01*
X123100453Y-115090885D01*
X123089127Y-115045668D01*
X123082287Y-114999558D01*
X123080000Y-114953000D01*
X123080000Y-114003000D01*
X123082287Y-113956442D01*
X123089127Y-113910332D01*
X123100453Y-113865115D01*
X123116157Y-113821225D01*
X123136087Y-113779087D01*
X123160052Y-113739104D01*
X123187820Y-113701663D01*
X123219124Y-113667124D01*
X123253663Y-113635820D01*
X123291104Y-113608052D01*
X123331087Y-113584087D01*
X123373225Y-113564157D01*
X123417115Y-113548453D01*
X123462332Y-113537127D01*
X123508442Y-113530287D01*
X123555000Y-113528000D01*
X125905000Y-113528000D01*
X125951558Y-113530287D01*
G37*
%TD.AperFunction*%
%TA.AperFunction,ComponentPad*%
%TO.P,J1,2*%
%TO.N,GND*%
G36*
X125779009Y-107730408D02*
G01*
X125827545Y-107737607D01*
X125875142Y-107749530D01*
X125921342Y-107766060D01*
X125965698Y-107787039D01*
X126007785Y-107812265D01*
X126047197Y-107841495D01*
X126083553Y-107874447D01*
X126116505Y-107910803D01*
X126145735Y-107950215D01*
X126170961Y-107992302D01*
X126191940Y-108036658D01*
X126208470Y-108082858D01*
X126220393Y-108130455D01*
X126227592Y-108178991D01*
X126230000Y-108228000D01*
X126230000Y-111228000D01*
X126227592Y-111277009D01*
X126220393Y-111325545D01*
X126208470Y-111373142D01*
X126191940Y-111419342D01*
X126170961Y-111463698D01*
X126145735Y-111505785D01*
X126116505Y-111545197D01*
X126083553Y-111581553D01*
X126047197Y-111614505D01*
X126007785Y-111643735D01*
X125965698Y-111668961D01*
X125921342Y-111689940D01*
X125875142Y-111706470D01*
X125827545Y-111718393D01*
X125779009Y-111725592D01*
X125730000Y-111728000D01*
X124730000Y-111728000D01*
X124680991Y-111725592D01*
X124632455Y-111718393D01*
X124584858Y-111706470D01*
X124538658Y-111689940D01*
X124494302Y-111668961D01*
X124452215Y-111643735D01*
X124412803Y-111614505D01*
X124376447Y-111581553D01*
X124343495Y-111545197D01*
X124314265Y-111505785D01*
X124289039Y-111463698D01*
X124268060Y-111419342D01*
X124251530Y-111373142D01*
X124239607Y-111325545D01*
X124232408Y-111277009D01*
X124230000Y-111228000D01*
X124230000Y-108228000D01*
X124232408Y-108178991D01*
X124239607Y-108130455D01*
X124251530Y-108082858D01*
X124268060Y-108036658D01*
X124289039Y-107992302D01*
X124314265Y-107950215D01*
X124343495Y-107910803D01*
X124376447Y-107874447D01*
X124412803Y-107841495D01*
X124452215Y-107812265D01*
X124494302Y-107787039D01*
X124538658Y-107766060D01*
X124584858Y-107749530D01*
X124632455Y-107737607D01*
X124680991Y-107730408D01*
X124730000Y-107728000D01*
X125730000Y-107728000D01*
X125779009Y-107730408D01*
G37*
%TD.AperFunction*%
%TA.AperFunction,ComponentPad*%
%TO.P,J1,SHIELD*%
%TO.N,N/C*%
G36*
X125951558Y-104030287D02*
G01*
X125997668Y-104037127D01*
X126042885Y-104048453D01*
X126086775Y-104064157D01*
X126128913Y-104084087D01*
X126168896Y-104108052D01*
X126206337Y-104135820D01*
X126240876Y-104167124D01*
X126272180Y-104201663D01*
X126299948Y-104239104D01*
X126323913Y-104279087D01*
X126343843Y-104321225D01*
X126359547Y-104365115D01*
X126370873Y-104410332D01*
X126377713Y-104456442D01*
X126380000Y-104503000D01*
X126380000Y-105453000D01*
X126377713Y-105499558D01*
X126370873Y-105545668D01*
X126359547Y-105590885D01*
X126343843Y-105634775D01*
X126323913Y-105676913D01*
X126299948Y-105716896D01*
X126272180Y-105754337D01*
X126240876Y-105788876D01*
X126206337Y-105820180D01*
X126168896Y-105847948D01*
X126128913Y-105871913D01*
X126086775Y-105891843D01*
X126042885Y-105907547D01*
X125997668Y-105918873D01*
X125951558Y-105925713D01*
X125905000Y-105928000D01*
X123555000Y-105928000D01*
X123508442Y-105925713D01*
X123462332Y-105918873D01*
X123417115Y-105907547D01*
X123373225Y-105891843D01*
X123331087Y-105871913D01*
X123291104Y-105847948D01*
X123253663Y-105820180D01*
X123219124Y-105788876D01*
X123187820Y-105754337D01*
X123160052Y-105716896D01*
X123136087Y-105676913D01*
X123116157Y-105634775D01*
X123100453Y-105590885D01*
X123089127Y-105545668D01*
X123082287Y-105499558D01*
X123080000Y-105453000D01*
X123080000Y-104503000D01*
X123082287Y-104456442D01*
X123089127Y-104410332D01*
X123100453Y-104365115D01*
X123116157Y-104321225D01*
X123136087Y-104279087D01*
X123160052Y-104239104D01*
X123187820Y-104201663D01*
X123219124Y-104167124D01*
X123253663Y-104135820D01*
X123291104Y-104108052D01*
X123331087Y-104084087D01*
X123373225Y-104064157D01*
X123417115Y-104048453D01*
X123462332Y-104037127D01*
X123508442Y-104030287D01*
X123555000Y-104028000D01*
X125905000Y-104028000D01*
X125951558Y-104030287D01*
G37*
%TD.AperFunction*%
%TA.AperFunction,ComponentPad*%
G36*
X130651558Y-113530287D02*
G01*
X130697668Y-113537127D01*
X130742885Y-113548453D01*
X130786775Y-113564157D01*
X130828913Y-113584087D01*
X130868896Y-113608052D01*
X130906337Y-113635820D01*
X130940876Y-113667124D01*
X130972180Y-113701663D01*
X130999948Y-113739104D01*
X131023913Y-113779087D01*
X131043843Y-113821225D01*
X131059547Y-113865115D01*
X131070873Y-113910332D01*
X131077713Y-113956442D01*
X131080000Y-114003000D01*
X131080000Y-114953000D01*
X131077713Y-114999558D01*
X131070873Y-115045668D01*
X131059547Y-115090885D01*
X131043843Y-115134775D01*
X131023913Y-115176913D01*
X130999948Y-115216896D01*
X130972180Y-115254337D01*
X130940876Y-115288876D01*
X130906337Y-115320180D01*
X130868896Y-115347948D01*
X130828913Y-115371913D01*
X130786775Y-115391843D01*
X130742885Y-115407547D01*
X130697668Y-115418873D01*
X130651558Y-115425713D01*
X130605000Y-115428000D01*
X128255000Y-115428000D01*
X128208442Y-115425713D01*
X128162332Y-115418873D01*
X128117115Y-115407547D01*
X128073225Y-115391843D01*
X128031087Y-115371913D01*
X127991104Y-115347948D01*
X127953663Y-115320180D01*
X127919124Y-115288876D01*
X127887820Y-115254337D01*
X127860052Y-115216896D01*
X127836087Y-115176913D01*
X127816157Y-115134775D01*
X127800453Y-115090885D01*
X127789127Y-115045668D01*
X127782287Y-114999558D01*
X127780000Y-114953000D01*
X127780000Y-114003000D01*
X127782287Y-113956442D01*
X127789127Y-113910332D01*
X127800453Y-113865115D01*
X127816157Y-113821225D01*
X127836087Y-113779087D01*
X127860052Y-113739104D01*
X127887820Y-113701663D01*
X127919124Y-113667124D01*
X127953663Y-113635820D01*
X127991104Y-113608052D01*
X128031087Y-113584087D01*
X128073225Y-113564157D01*
X128117115Y-113548453D01*
X128162332Y-113537127D01*
X128208442Y-113530287D01*
X128255000Y-113528000D01*
X130605000Y-113528000D01*
X130651558Y-113530287D01*
G37*
%TD.AperFunction*%
%TA.AperFunction,ComponentPad*%
G36*
X130651558Y-104030287D02*
G01*
X130697668Y-104037127D01*
X130742885Y-104048453D01*
X130786775Y-104064157D01*
X130828913Y-104084087D01*
X130868896Y-104108052D01*
X130906337Y-104135820D01*
X130940876Y-104167124D01*
X130972180Y-104201663D01*
X130999948Y-104239104D01*
X131023913Y-104279087D01*
X131043843Y-104321225D01*
X131059547Y-104365115D01*
X131070873Y-104410332D01*
X131077713Y-104456442D01*
X131080000Y-104503000D01*
X131080000Y-105453000D01*
X131077713Y-105499558D01*
X131070873Y-105545668D01*
X131059547Y-105590885D01*
X131043843Y-105634775D01*
X131023913Y-105676913D01*
X130999948Y-105716896D01*
X130972180Y-105754337D01*
X130940876Y-105788876D01*
X130906337Y-105820180D01*
X130868896Y-105847948D01*
X130828913Y-105871913D01*
X130786775Y-105891843D01*
X130742885Y-105907547D01*
X130697668Y-105918873D01*
X130651558Y-105925713D01*
X130605000Y-105928000D01*
X128255000Y-105928000D01*
X128208442Y-105925713D01*
X128162332Y-105918873D01*
X128117115Y-105907547D01*
X128073225Y-105891843D01*
X128031087Y-105871913D01*
X127991104Y-105847948D01*
X127953663Y-105820180D01*
X127919124Y-105788876D01*
X127887820Y-105754337D01*
X127860052Y-105716896D01*
X127836087Y-105676913D01*
X127816157Y-105634775D01*
X127800453Y-105590885D01*
X127789127Y-105545668D01*
X127782287Y-105499558D01*
X127780000Y-105453000D01*
X127780000Y-104503000D01*
X127782287Y-104456442D01*
X127789127Y-104410332D01*
X127800453Y-104365115D01*
X127816157Y-104321225D01*
X127836087Y-104279087D01*
X127860052Y-104239104D01*
X127887820Y-104201663D01*
X127919124Y-104167124D01*
X127953663Y-104135820D01*
X127991104Y-104108052D01*
X128031087Y-104084087D01*
X128073225Y-104064157D01*
X128117115Y-104048453D01*
X128162332Y-104037127D01*
X128208442Y-104030287D01*
X128255000Y-104028000D01*
X130605000Y-104028000D01*
X130651558Y-104030287D01*
G37*
%TD.AperFunction*%
D11*
%TO.P,J1,1*%
%TO.N,5V*%
X131230000Y-109728000D03*
%TD*%
D12*
%TO.P,U4,2*%
%TO.N,3.3V*%
X139192000Y-93980000D03*
D13*
%TO.P,U4,3*%
%TO.N,5V*%
X132792000Y-91680000D03*
%TO.P,U4,2*%
%TO.N,3.3V*%
X132792000Y-93980000D03*
%TO.P,U4,1*%
%TO.N,GND*%
X132792000Y-96280000D03*
%TD*%
D11*
%TO.P,J2,3*%
%TO.N,GND*%
X126428000Y-88308000D03*
%TO.P,J2,2*%
%TO.N,5V*%
X126428000Y-83308000D03*
D14*
%TO.P,J2,1*%
%TO.N,LED_CONTROL_OUT*%
X126428000Y-78308000D03*
%TD*%
%TA.AperFunction,SMDPad,CuDef*%
D15*
%TO.P,R10,2*%
%TO.N,DET*%
G36*
X122648505Y-117010204D02*
G01*
X122672773Y-117013804D01*
X122696572Y-117019765D01*
X122719671Y-117028030D01*
X122741850Y-117038520D01*
X122762893Y-117051132D01*
X122782599Y-117065747D01*
X122800777Y-117082223D01*
X122817253Y-117100401D01*
X122831868Y-117120107D01*
X122844480Y-117141150D01*
X122854970Y-117163329D01*
X122863235Y-117186428D01*
X122869196Y-117210227D01*
X122872796Y-117234495D01*
X122874000Y-117258999D01*
X122874000Y-117909001D01*
X122872796Y-117933505D01*
X122869196Y-117957773D01*
X122863235Y-117981572D01*
X122854970Y-118004671D01*
X122844480Y-118026850D01*
X122831868Y-118047893D01*
X122817253Y-118067599D01*
X122800777Y-118085777D01*
X122782599Y-118102253D01*
X122762893Y-118116868D01*
X122741850Y-118129480D01*
X122719671Y-118139970D01*
X122696572Y-118148235D01*
X122672773Y-118154196D01*
X122648505Y-118157796D01*
X122624001Y-118159000D01*
X121723999Y-118159000D01*
X121699495Y-118157796D01*
X121675227Y-118154196D01*
X121651428Y-118148235D01*
X121628329Y-118139970D01*
X121606150Y-118129480D01*
X121585107Y-118116868D01*
X121565401Y-118102253D01*
X121547223Y-118085777D01*
X121530747Y-118067599D01*
X121516132Y-118047893D01*
X121503520Y-118026850D01*
X121493030Y-118004671D01*
X121484765Y-117981572D01*
X121478804Y-117957773D01*
X121475204Y-117933505D01*
X121474000Y-117909001D01*
X121474000Y-117258999D01*
X121475204Y-117234495D01*
X121478804Y-117210227D01*
X121484765Y-117186428D01*
X121493030Y-117163329D01*
X121503520Y-117141150D01*
X121516132Y-117120107D01*
X121530747Y-117100401D01*
X121547223Y-117082223D01*
X121565401Y-117065747D01*
X121585107Y-117051132D01*
X121606150Y-117038520D01*
X121628329Y-117028030D01*
X121651428Y-117019765D01*
X121675227Y-117013804D01*
X121699495Y-117010204D01*
X121723999Y-117009000D01*
X122624001Y-117009000D01*
X122648505Y-117010204D01*
G37*
%TD.AperFunction*%
%TA.AperFunction,SMDPad,CuDef*%
%TO.P,R10,1*%
%TO.N,3.3V*%
G36*
X122648505Y-119060204D02*
G01*
X122672773Y-119063804D01*
X122696572Y-119069765D01*
X122719671Y-119078030D01*
X122741850Y-119088520D01*
X122762893Y-119101132D01*
X122782599Y-119115747D01*
X122800777Y-119132223D01*
X122817253Y-119150401D01*
X122831868Y-119170107D01*
X122844480Y-119191150D01*
X122854970Y-119213329D01*
X122863235Y-119236428D01*
X122869196Y-119260227D01*
X122872796Y-119284495D01*
X122874000Y-119308999D01*
X122874000Y-119959001D01*
X122872796Y-119983505D01*
X122869196Y-120007773D01*
X122863235Y-120031572D01*
X122854970Y-120054671D01*
X122844480Y-120076850D01*
X122831868Y-120097893D01*
X122817253Y-120117599D01*
X122800777Y-120135777D01*
X122782599Y-120152253D01*
X122762893Y-120166868D01*
X122741850Y-120179480D01*
X122719671Y-120189970D01*
X122696572Y-120198235D01*
X122672773Y-120204196D01*
X122648505Y-120207796D01*
X122624001Y-120209000D01*
X121723999Y-120209000D01*
X121699495Y-120207796D01*
X121675227Y-120204196D01*
X121651428Y-120198235D01*
X121628329Y-120189970D01*
X121606150Y-120179480D01*
X121585107Y-120166868D01*
X121565401Y-120152253D01*
X121547223Y-120135777D01*
X121530747Y-120117599D01*
X121516132Y-120097893D01*
X121503520Y-120076850D01*
X121493030Y-120054671D01*
X121484765Y-120031572D01*
X121478804Y-120007773D01*
X121475204Y-119983505D01*
X121474000Y-119959001D01*
X121474000Y-119308999D01*
X121475204Y-119284495D01*
X121478804Y-119260227D01*
X121484765Y-119236428D01*
X121493030Y-119213329D01*
X121503520Y-119191150D01*
X121516132Y-119170107D01*
X121530747Y-119150401D01*
X121547223Y-119132223D01*
X121565401Y-119115747D01*
X121585107Y-119101132D01*
X121606150Y-119088520D01*
X121628329Y-119078030D01*
X121651428Y-119069765D01*
X121675227Y-119063804D01*
X121699495Y-119060204D01*
X121723999Y-119059000D01*
X122624001Y-119059000D01*
X122648505Y-119060204D01*
G37*
%TD.AperFunction*%
%TD*%
%TA.AperFunction,SMDPad,CuDef*%
%TO.P,C6,1*%
%TO.N,3.3V*%
G36*
X146778505Y-82738204D02*
G01*
X146802773Y-82741804D01*
X146826572Y-82747765D01*
X146849671Y-82756030D01*
X146871850Y-82766520D01*
X146892893Y-82779132D01*
X146912599Y-82793747D01*
X146930777Y-82810223D01*
X146947253Y-82828401D01*
X146961868Y-82848107D01*
X146974480Y-82869150D01*
X146984970Y-82891329D01*
X146993235Y-82914428D01*
X146999196Y-82938227D01*
X147002796Y-82962495D01*
X147004000Y-82986999D01*
X147004000Y-83637001D01*
X147002796Y-83661505D01*
X146999196Y-83685773D01*
X146993235Y-83709572D01*
X146984970Y-83732671D01*
X146974480Y-83754850D01*
X146961868Y-83775893D01*
X146947253Y-83795599D01*
X146930777Y-83813777D01*
X146912599Y-83830253D01*
X146892893Y-83844868D01*
X146871850Y-83857480D01*
X146849671Y-83867970D01*
X146826572Y-83876235D01*
X146802773Y-83882196D01*
X146778505Y-83885796D01*
X146754001Y-83887000D01*
X145853999Y-83887000D01*
X145829495Y-83885796D01*
X145805227Y-83882196D01*
X145781428Y-83876235D01*
X145758329Y-83867970D01*
X145736150Y-83857480D01*
X145715107Y-83844868D01*
X145695401Y-83830253D01*
X145677223Y-83813777D01*
X145660747Y-83795599D01*
X145646132Y-83775893D01*
X145633520Y-83754850D01*
X145623030Y-83732671D01*
X145614765Y-83709572D01*
X145608804Y-83685773D01*
X145605204Y-83661505D01*
X145604000Y-83637001D01*
X145604000Y-82986999D01*
X145605204Y-82962495D01*
X145608804Y-82938227D01*
X145614765Y-82914428D01*
X145623030Y-82891329D01*
X145633520Y-82869150D01*
X145646132Y-82848107D01*
X145660747Y-82828401D01*
X145677223Y-82810223D01*
X145695401Y-82793747D01*
X145715107Y-82779132D01*
X145736150Y-82766520D01*
X145758329Y-82756030D01*
X145781428Y-82747765D01*
X145805227Y-82741804D01*
X145829495Y-82738204D01*
X145853999Y-82737000D01*
X146754001Y-82737000D01*
X146778505Y-82738204D01*
G37*
%TD.AperFunction*%
%TA.AperFunction,SMDPad,CuDef*%
%TO.P,C6,2*%
%TO.N,GND*%
G36*
X146778505Y-80688204D02*
G01*
X146802773Y-80691804D01*
X146826572Y-80697765D01*
X146849671Y-80706030D01*
X146871850Y-80716520D01*
X146892893Y-80729132D01*
X146912599Y-80743747D01*
X146930777Y-80760223D01*
X146947253Y-80778401D01*
X146961868Y-80798107D01*
X146974480Y-80819150D01*
X146984970Y-80841329D01*
X146993235Y-80864428D01*
X146999196Y-80888227D01*
X147002796Y-80912495D01*
X147004000Y-80936999D01*
X147004000Y-81587001D01*
X147002796Y-81611505D01*
X146999196Y-81635773D01*
X146993235Y-81659572D01*
X146984970Y-81682671D01*
X146974480Y-81704850D01*
X146961868Y-81725893D01*
X146947253Y-81745599D01*
X146930777Y-81763777D01*
X146912599Y-81780253D01*
X146892893Y-81794868D01*
X146871850Y-81807480D01*
X146849671Y-81817970D01*
X146826572Y-81826235D01*
X146802773Y-81832196D01*
X146778505Y-81835796D01*
X146754001Y-81837000D01*
X145853999Y-81837000D01*
X145829495Y-81835796D01*
X145805227Y-81832196D01*
X145781428Y-81826235D01*
X145758329Y-81817970D01*
X145736150Y-81807480D01*
X145715107Y-81794868D01*
X145695401Y-81780253D01*
X145677223Y-81763777D01*
X145660747Y-81745599D01*
X145646132Y-81725893D01*
X145633520Y-81704850D01*
X145623030Y-81682671D01*
X145614765Y-81659572D01*
X145608804Y-81635773D01*
X145605204Y-81611505D01*
X145604000Y-81587001D01*
X145604000Y-80936999D01*
X145605204Y-80912495D01*
X145608804Y-80888227D01*
X145614765Y-80864428D01*
X145623030Y-80841329D01*
X145633520Y-80819150D01*
X145646132Y-80798107D01*
X145660747Y-80778401D01*
X145677223Y-80760223D01*
X145695401Y-80743747D01*
X145715107Y-80729132D01*
X145736150Y-80716520D01*
X145758329Y-80706030D01*
X145781428Y-80697765D01*
X145805227Y-80691804D01*
X145829495Y-80688204D01*
X145853999Y-80687000D01*
X146754001Y-80687000D01*
X146778505Y-80688204D01*
G37*
%TD.AperFunction*%
%TD*%
D16*
%TO.P,D1,2*%
%TO.N,Net-(D1-Pad2)*%
X144526000Y-112014000D03*
D17*
%TO.P,D1,1*%
%TO.N,Net-(D1-Pad1)*%
X152146000Y-112014000D03*
%TD*%
%TA.AperFunction,SMDPad,CuDef*%
D15*
%TO.P,R9,1*%
%TO.N,3.3V*%
G36*
X149826505Y-82756204D02*
G01*
X149850773Y-82759804D01*
X149874572Y-82765765D01*
X149897671Y-82774030D01*
X149919850Y-82784520D01*
X149940893Y-82797132D01*
X149960599Y-82811747D01*
X149978777Y-82828223D01*
X149995253Y-82846401D01*
X150009868Y-82866107D01*
X150022480Y-82887150D01*
X150032970Y-82909329D01*
X150041235Y-82932428D01*
X150047196Y-82956227D01*
X150050796Y-82980495D01*
X150052000Y-83004999D01*
X150052000Y-83655001D01*
X150050796Y-83679505D01*
X150047196Y-83703773D01*
X150041235Y-83727572D01*
X150032970Y-83750671D01*
X150022480Y-83772850D01*
X150009868Y-83793893D01*
X149995253Y-83813599D01*
X149978777Y-83831777D01*
X149960599Y-83848253D01*
X149940893Y-83862868D01*
X149919850Y-83875480D01*
X149897671Y-83885970D01*
X149874572Y-83894235D01*
X149850773Y-83900196D01*
X149826505Y-83903796D01*
X149802001Y-83905000D01*
X148901999Y-83905000D01*
X148877495Y-83903796D01*
X148853227Y-83900196D01*
X148829428Y-83894235D01*
X148806329Y-83885970D01*
X148784150Y-83875480D01*
X148763107Y-83862868D01*
X148743401Y-83848253D01*
X148725223Y-83831777D01*
X148708747Y-83813599D01*
X148694132Y-83793893D01*
X148681520Y-83772850D01*
X148671030Y-83750671D01*
X148662765Y-83727572D01*
X148656804Y-83703773D01*
X148653204Y-83679505D01*
X148652000Y-83655001D01*
X148652000Y-83004999D01*
X148653204Y-82980495D01*
X148656804Y-82956227D01*
X148662765Y-82932428D01*
X148671030Y-82909329D01*
X148681520Y-82887150D01*
X148694132Y-82866107D01*
X148708747Y-82846401D01*
X148725223Y-82828223D01*
X148743401Y-82811747D01*
X148763107Y-82797132D01*
X148784150Y-82784520D01*
X148806329Y-82774030D01*
X148829428Y-82765765D01*
X148853227Y-82759804D01*
X148877495Y-82756204D01*
X148901999Y-82755000D01*
X149802001Y-82755000D01*
X149826505Y-82756204D01*
G37*
%TD.AperFunction*%
%TA.AperFunction,SMDPad,CuDef*%
%TO.P,R9,2*%
%TO.N,RESET*%
G36*
X149826505Y-80706204D02*
G01*
X149850773Y-80709804D01*
X149874572Y-80715765D01*
X149897671Y-80724030D01*
X149919850Y-80734520D01*
X149940893Y-80747132D01*
X149960599Y-80761747D01*
X149978777Y-80778223D01*
X149995253Y-80796401D01*
X150009868Y-80816107D01*
X150022480Y-80837150D01*
X150032970Y-80859329D01*
X150041235Y-80882428D01*
X150047196Y-80906227D01*
X150050796Y-80930495D01*
X150052000Y-80954999D01*
X150052000Y-81605001D01*
X150050796Y-81629505D01*
X150047196Y-81653773D01*
X150041235Y-81677572D01*
X150032970Y-81700671D01*
X150022480Y-81722850D01*
X150009868Y-81743893D01*
X149995253Y-81763599D01*
X149978777Y-81781777D01*
X149960599Y-81798253D01*
X149940893Y-81812868D01*
X149919850Y-81825480D01*
X149897671Y-81835970D01*
X149874572Y-81844235D01*
X149850773Y-81850196D01*
X149826505Y-81853796D01*
X149802001Y-81855000D01*
X148901999Y-81855000D01*
X148877495Y-81853796D01*
X148853227Y-81850196D01*
X148829428Y-81844235D01*
X148806329Y-81835970D01*
X148784150Y-81825480D01*
X148763107Y-81812868D01*
X148743401Y-81798253D01*
X148725223Y-81781777D01*
X148708747Y-81763599D01*
X148694132Y-81743893D01*
X148681520Y-81722850D01*
X148671030Y-81700671D01*
X148662765Y-81677572D01*
X148656804Y-81653773D01*
X148653204Y-81629505D01*
X148652000Y-81605001D01*
X148652000Y-80954999D01*
X148653204Y-80930495D01*
X148656804Y-80906227D01*
X148662765Y-80882428D01*
X148671030Y-80859329D01*
X148681520Y-80837150D01*
X148694132Y-80816107D01*
X148708747Y-80796401D01*
X148725223Y-80778223D01*
X148743401Y-80761747D01*
X148763107Y-80747132D01*
X148784150Y-80734520D01*
X148806329Y-80724030D01*
X148829428Y-80715765D01*
X148853227Y-80709804D01*
X148877495Y-80706204D01*
X148901999Y-80705000D01*
X149802001Y-80705000D01*
X149826505Y-80706204D01*
G37*
%TD.AperFunction*%
%TD*%
D16*
%TO.P,U2,8*%
%TO.N,3.3V*%
X139954000Y-99822000D03*
%TO.P,U2,4*%
%TO.N,Net-(U2-Pad4)*%
X147574000Y-107442000D03*
%TO.P,U2,7*%
%TO.N,Net-(R3-Pad1)*%
X142494000Y-99822000D03*
%TO.P,U2,3*%
%TO.N,Net-(D1-Pad2)*%
X145034000Y-107442000D03*
%TO.P,U2,6*%
%TO.N,MIDI_DIN*%
X145034000Y-99822000D03*
%TO.P,U2,2*%
%TO.N,Net-(D1-Pad1)*%
X142494000Y-107442000D03*
%TO.P,U2,5*%
%TO.N,GND*%
X147574000Y-99822000D03*
D17*
%TO.P,U2,1*%
%TO.N,Net-(U2-Pad1)*%
X139954000Y-107442000D03*
%TD*%
D18*
%TO.P,J6,1*%
%TO.N,P9*%
X153924000Y-106426000D03*
D19*
%TO.P,J6,2*%
%TO.N,P10*%
X153924000Y-103886000D03*
%TO.P,J6,3*%
%TO.N,P11*%
X153924000Y-101346000D03*
%TO.P,J6,4*%
%TO.N,P12*%
X153924000Y-98806000D03*
%TO.P,J6,5*%
%TO.N,P13*%
X153924000Y-96266000D03*
%TO.P,J6,6*%
%TO.N,P14*%
X153924000Y-93726000D03*
%TO.P,J6,7*%
%TO.N,P15*%
X153924000Y-91186000D03*
%TD*%
D20*
%TO.P,C1,2*%
%TO.N,GND*%
X124794000Y-98298000D03*
D21*
%TO.P,C1,1*%
%TO.N,5V*%
X129794000Y-98298000D03*
%TD*%
%TA.AperFunction,SMDPad,CuDef*%
D15*
%TO.P,C4,2*%
%TO.N,GND*%
G36*
X131792505Y-82729204D02*
G01*
X131816773Y-82732804D01*
X131840572Y-82738765D01*
X131863671Y-82747030D01*
X131885850Y-82757520D01*
X131906893Y-82770132D01*
X131926599Y-82784747D01*
X131944777Y-82801223D01*
X131961253Y-82819401D01*
X131975868Y-82839107D01*
X131988480Y-82860150D01*
X131998970Y-82882329D01*
X132007235Y-82905428D01*
X132013196Y-82929227D01*
X132016796Y-82953495D01*
X132018000Y-82977999D01*
X132018000Y-83628001D01*
X132016796Y-83652505D01*
X132013196Y-83676773D01*
X132007235Y-83700572D01*
X131998970Y-83723671D01*
X131988480Y-83745850D01*
X131975868Y-83766893D01*
X131961253Y-83786599D01*
X131944777Y-83804777D01*
X131926599Y-83821253D01*
X131906893Y-83835868D01*
X131885850Y-83848480D01*
X131863671Y-83858970D01*
X131840572Y-83867235D01*
X131816773Y-83873196D01*
X131792505Y-83876796D01*
X131768001Y-83878000D01*
X130867999Y-83878000D01*
X130843495Y-83876796D01*
X130819227Y-83873196D01*
X130795428Y-83867235D01*
X130772329Y-83858970D01*
X130750150Y-83848480D01*
X130729107Y-83835868D01*
X130709401Y-83821253D01*
X130691223Y-83804777D01*
X130674747Y-83786599D01*
X130660132Y-83766893D01*
X130647520Y-83745850D01*
X130637030Y-83723671D01*
X130628765Y-83700572D01*
X130622804Y-83676773D01*
X130619204Y-83652505D01*
X130618000Y-83628001D01*
X130618000Y-82977999D01*
X130619204Y-82953495D01*
X130622804Y-82929227D01*
X130628765Y-82905428D01*
X130637030Y-82882329D01*
X130647520Y-82860150D01*
X130660132Y-82839107D01*
X130674747Y-82819401D01*
X130691223Y-82801223D01*
X130709401Y-82784747D01*
X130729107Y-82770132D01*
X130750150Y-82757520D01*
X130772329Y-82747030D01*
X130795428Y-82738765D01*
X130819227Y-82732804D01*
X130843495Y-82729204D01*
X130867999Y-82728000D01*
X131768001Y-82728000D01*
X131792505Y-82729204D01*
G37*
%TD.AperFunction*%
%TA.AperFunction,SMDPad,CuDef*%
%TO.P,C4,1*%
%TO.N,5V*%
G36*
X131792505Y-84779204D02*
G01*
X131816773Y-84782804D01*
X131840572Y-84788765D01*
X131863671Y-84797030D01*
X131885850Y-84807520D01*
X131906893Y-84820132D01*
X131926599Y-84834747D01*
X131944777Y-84851223D01*
X131961253Y-84869401D01*
X131975868Y-84889107D01*
X131988480Y-84910150D01*
X131998970Y-84932329D01*
X132007235Y-84955428D01*
X132013196Y-84979227D01*
X132016796Y-85003495D01*
X132018000Y-85027999D01*
X132018000Y-85678001D01*
X132016796Y-85702505D01*
X132013196Y-85726773D01*
X132007235Y-85750572D01*
X131998970Y-85773671D01*
X131988480Y-85795850D01*
X131975868Y-85816893D01*
X131961253Y-85836599D01*
X131944777Y-85854777D01*
X131926599Y-85871253D01*
X131906893Y-85885868D01*
X131885850Y-85898480D01*
X131863671Y-85908970D01*
X131840572Y-85917235D01*
X131816773Y-85923196D01*
X131792505Y-85926796D01*
X131768001Y-85928000D01*
X130867999Y-85928000D01*
X130843495Y-85926796D01*
X130819227Y-85923196D01*
X130795428Y-85917235D01*
X130772329Y-85908970D01*
X130750150Y-85898480D01*
X130729107Y-85885868D01*
X130709401Y-85871253D01*
X130691223Y-85854777D01*
X130674747Y-85836599D01*
X130660132Y-85816893D01*
X130647520Y-85795850D01*
X130637030Y-85773671D01*
X130628765Y-85750572D01*
X130622804Y-85726773D01*
X130619204Y-85702505D01*
X130618000Y-85678001D01*
X130618000Y-85027999D01*
X130619204Y-85003495D01*
X130622804Y-84979227D01*
X130628765Y-84955428D01*
X130637030Y-84932329D01*
X130647520Y-84910150D01*
X130660132Y-84889107D01*
X130674747Y-84869401D01*
X130691223Y-84851223D01*
X130709401Y-84834747D01*
X130729107Y-84820132D01*
X130750150Y-84807520D01*
X130772329Y-84797030D01*
X130795428Y-84788765D01*
X130819227Y-84782804D01*
X130843495Y-84779204D01*
X130867999Y-84778000D01*
X131768001Y-84778000D01*
X131792505Y-84779204D01*
G37*
%TD.AperFunction*%
%TD*%
%TA.AperFunction,SMDPad,CuDef*%
%TO.P,C5,2*%
%TO.N,GND*%
G36*
X148921505Y-115125204D02*
G01*
X148945773Y-115128804D01*
X148969572Y-115134765D01*
X148992671Y-115143030D01*
X149014850Y-115153520D01*
X149035893Y-115166132D01*
X149055599Y-115180747D01*
X149073777Y-115197223D01*
X149090253Y-115215401D01*
X149104868Y-115235107D01*
X149117480Y-115256150D01*
X149127970Y-115278329D01*
X149136235Y-115301428D01*
X149142196Y-115325227D01*
X149145796Y-115349495D01*
X149147000Y-115373999D01*
X149147000Y-116274001D01*
X149145796Y-116298505D01*
X149142196Y-116322773D01*
X149136235Y-116346572D01*
X149127970Y-116369671D01*
X149117480Y-116391850D01*
X149104868Y-116412893D01*
X149090253Y-116432599D01*
X149073777Y-116450777D01*
X149055599Y-116467253D01*
X149035893Y-116481868D01*
X149014850Y-116494480D01*
X148992671Y-116504970D01*
X148969572Y-116513235D01*
X148945773Y-116519196D01*
X148921505Y-116522796D01*
X148897001Y-116524000D01*
X148246999Y-116524000D01*
X148222495Y-116522796D01*
X148198227Y-116519196D01*
X148174428Y-116513235D01*
X148151329Y-116504970D01*
X148129150Y-116494480D01*
X148108107Y-116481868D01*
X148088401Y-116467253D01*
X148070223Y-116450777D01*
X148053747Y-116432599D01*
X148039132Y-116412893D01*
X148026520Y-116391850D01*
X148016030Y-116369671D01*
X148007765Y-116346572D01*
X148001804Y-116322773D01*
X147998204Y-116298505D01*
X147997000Y-116274001D01*
X147997000Y-115373999D01*
X147998204Y-115349495D01*
X148001804Y-115325227D01*
X148007765Y-115301428D01*
X148016030Y-115278329D01*
X148026520Y-115256150D01*
X148039132Y-115235107D01*
X148053747Y-115215401D01*
X148070223Y-115197223D01*
X148088401Y-115180747D01*
X148108107Y-115166132D01*
X148129150Y-115153520D01*
X148151329Y-115143030D01*
X148174428Y-115134765D01*
X148198227Y-115128804D01*
X148222495Y-115125204D01*
X148246999Y-115124000D01*
X148897001Y-115124000D01*
X148921505Y-115125204D01*
G37*
%TD.AperFunction*%
%TA.AperFunction,SMDPad,CuDef*%
%TO.P,C5,1*%
%TO.N,Net-(C5-Pad1)*%
G36*
X150971505Y-115125204D02*
G01*
X150995773Y-115128804D01*
X151019572Y-115134765D01*
X151042671Y-115143030D01*
X151064850Y-115153520D01*
X151085893Y-115166132D01*
X151105599Y-115180747D01*
X151123777Y-115197223D01*
X151140253Y-115215401D01*
X151154868Y-115235107D01*
X151167480Y-115256150D01*
X151177970Y-115278329D01*
X151186235Y-115301428D01*
X151192196Y-115325227D01*
X151195796Y-115349495D01*
X151197000Y-115373999D01*
X151197000Y-116274001D01*
X151195796Y-116298505D01*
X151192196Y-116322773D01*
X151186235Y-116346572D01*
X151177970Y-116369671D01*
X151167480Y-116391850D01*
X151154868Y-116412893D01*
X151140253Y-116432599D01*
X151123777Y-116450777D01*
X151105599Y-116467253D01*
X151085893Y-116481868D01*
X151064850Y-116494480D01*
X151042671Y-116504970D01*
X151019572Y-116513235D01*
X150995773Y-116519196D01*
X150971505Y-116522796D01*
X150947001Y-116524000D01*
X150296999Y-116524000D01*
X150272495Y-116522796D01*
X150248227Y-116519196D01*
X150224428Y-116513235D01*
X150201329Y-116504970D01*
X150179150Y-116494480D01*
X150158107Y-116481868D01*
X150138401Y-116467253D01*
X150120223Y-116450777D01*
X150103747Y-116432599D01*
X150089132Y-116412893D01*
X150076520Y-116391850D01*
X150066030Y-116369671D01*
X150057765Y-116346572D01*
X150051804Y-116322773D01*
X150048204Y-116298505D01*
X150047000Y-116274001D01*
X150047000Y-115373999D01*
X150048204Y-115349495D01*
X150051804Y-115325227D01*
X150057765Y-115301428D01*
X150066030Y-115278329D01*
X150076520Y-115256150D01*
X150089132Y-115235107D01*
X150103747Y-115215401D01*
X150120223Y-115197223D01*
X150138401Y-115180747D01*
X150158107Y-115166132D01*
X150179150Y-115153520D01*
X150201329Y-115143030D01*
X150224428Y-115134765D01*
X150248227Y-115128804D01*
X150272495Y-115125204D01*
X150296999Y-115124000D01*
X150947001Y-115124000D01*
X150971505Y-115125204D01*
G37*
%TD.AperFunction*%
%TD*%
%TA.AperFunction,SMDPad,CuDef*%
%TO.P,C7,2*%
%TO.N,3.3V*%
G36*
X144492505Y-82738204D02*
G01*
X144516773Y-82741804D01*
X144540572Y-82747765D01*
X144563671Y-82756030D01*
X144585850Y-82766520D01*
X144606893Y-82779132D01*
X144626599Y-82793747D01*
X144644777Y-82810223D01*
X144661253Y-82828401D01*
X144675868Y-82848107D01*
X144688480Y-82869150D01*
X144698970Y-82891329D01*
X144707235Y-82914428D01*
X144713196Y-82938227D01*
X144716796Y-82962495D01*
X144718000Y-82986999D01*
X144718000Y-83637001D01*
X144716796Y-83661505D01*
X144713196Y-83685773D01*
X144707235Y-83709572D01*
X144698970Y-83732671D01*
X144688480Y-83754850D01*
X144675868Y-83775893D01*
X144661253Y-83795599D01*
X144644777Y-83813777D01*
X144626599Y-83830253D01*
X144606893Y-83844868D01*
X144585850Y-83857480D01*
X144563671Y-83867970D01*
X144540572Y-83876235D01*
X144516773Y-83882196D01*
X144492505Y-83885796D01*
X144468001Y-83887000D01*
X143567999Y-83887000D01*
X143543495Y-83885796D01*
X143519227Y-83882196D01*
X143495428Y-83876235D01*
X143472329Y-83867970D01*
X143450150Y-83857480D01*
X143429107Y-83844868D01*
X143409401Y-83830253D01*
X143391223Y-83813777D01*
X143374747Y-83795599D01*
X143360132Y-83775893D01*
X143347520Y-83754850D01*
X143337030Y-83732671D01*
X143328765Y-83709572D01*
X143322804Y-83685773D01*
X143319204Y-83661505D01*
X143318000Y-83637001D01*
X143318000Y-82986999D01*
X143319204Y-82962495D01*
X143322804Y-82938227D01*
X143328765Y-82914428D01*
X143337030Y-82891329D01*
X143347520Y-82869150D01*
X143360132Y-82848107D01*
X143374747Y-82828401D01*
X143391223Y-82810223D01*
X143409401Y-82793747D01*
X143429107Y-82779132D01*
X143450150Y-82766520D01*
X143472329Y-82756030D01*
X143495428Y-82747765D01*
X143519227Y-82741804D01*
X143543495Y-82738204D01*
X143567999Y-82737000D01*
X144468001Y-82737000D01*
X144492505Y-82738204D01*
G37*
%TD.AperFunction*%
%TA.AperFunction,SMDPad,CuDef*%
%TO.P,C7,1*%
%TO.N,GND*%
G36*
X144492505Y-80688204D02*
G01*
X144516773Y-80691804D01*
X144540572Y-80697765D01*
X144563671Y-80706030D01*
X144585850Y-80716520D01*
X144606893Y-80729132D01*
X144626599Y-80743747D01*
X144644777Y-80760223D01*
X144661253Y-80778401D01*
X144675868Y-80798107D01*
X144688480Y-80819150D01*
X144698970Y-80841329D01*
X144707235Y-80864428D01*
X144713196Y-80888227D01*
X144716796Y-80912495D01*
X144718000Y-80936999D01*
X144718000Y-81587001D01*
X144716796Y-81611505D01*
X144713196Y-81635773D01*
X144707235Y-81659572D01*
X144698970Y-81682671D01*
X144688480Y-81704850D01*
X144675868Y-81725893D01*
X144661253Y-81745599D01*
X144644777Y-81763777D01*
X144626599Y-81780253D01*
X144606893Y-81794868D01*
X144585850Y-81807480D01*
X144563671Y-81817970D01*
X144540572Y-81826235D01*
X144516773Y-81832196D01*
X144492505Y-81835796D01*
X144468001Y-81837000D01*
X143567999Y-81837000D01*
X143543495Y-81835796D01*
X143519227Y-81832196D01*
X143495428Y-81826235D01*
X143472329Y-81817970D01*
X143450150Y-81807480D01*
X143429107Y-81794868D01*
X143409401Y-81780253D01*
X143391223Y-81763777D01*
X143374747Y-81745599D01*
X143360132Y-81725893D01*
X143347520Y-81704850D01*
X143337030Y-81682671D01*
X143328765Y-81659572D01*
X143322804Y-81635773D01*
X143319204Y-81611505D01*
X143318000Y-81587001D01*
X143318000Y-80936999D01*
X143319204Y-80912495D01*
X143322804Y-80888227D01*
X143328765Y-80864428D01*
X143337030Y-80841329D01*
X143347520Y-80819150D01*
X143360132Y-80798107D01*
X143374747Y-80778401D01*
X143391223Y-80760223D01*
X143409401Y-80743747D01*
X143429107Y-80729132D01*
X143450150Y-80716520D01*
X143472329Y-80706030D01*
X143495428Y-80697765D01*
X143519227Y-80691804D01*
X143543495Y-80688204D01*
X143567999Y-80687000D01*
X144468001Y-80687000D01*
X144492505Y-80688204D01*
G37*
%TD.AperFunction*%
%TD*%
D22*
%TO.P,J3,MH2*%
%TO.N,N/C*%
X142978000Y-126930000D03*
%TO.P,J3,MH1*%
X157988000Y-126930000D03*
D23*
%TO.P,J3,7*%
X147983000Y-131930000D03*
%TO.P,J3,6*%
X152983000Y-131930000D03*
%TO.P,J3,5*%
%TO.N,Net-(D1-Pad2)*%
X145478000Y-119430000D03*
%TO.P,J3,4*%
%TO.N,Net-(J3-Pad4)*%
X155488000Y-119430000D03*
%TO.P,J3,3*%
%TO.N,Net-(J3-Pad3)*%
X142978000Y-121920000D03*
%TO.P,J3,2*%
%TO.N,Net-(C5-Pad1)*%
X150483000Y-121920000D03*
%TO.P,J3,1*%
%TO.N,Net-(J3-Pad1)*%
X157988000Y-121920000D03*
%TD*%
D19*
%TO.P,J4,6*%
%TO.N,3.3V*%
X161290000Y-105918000D03*
%TO.P,J4,5*%
%TO.N,RESET*%
X161290000Y-103378000D03*
%TO.P,J4,4*%
%TO.N,SWDIO*%
X161290000Y-100838000D03*
%TO.P,J4,3*%
%TO.N,SWDCLK*%
X161290000Y-98298000D03*
%TO.P,J4,2*%
%TO.N,GND*%
X161290000Y-95758000D03*
D18*
%TO.P,J4,1*%
X161290000Y-93218000D03*
%TD*%
%TA.AperFunction,SMDPad,CuDef*%
D15*
%TO.P,R2,1*%
%TO.N,3.3V*%
G36*
X142571505Y-92773204D02*
G01*
X142595773Y-92776804D01*
X142619572Y-92782765D01*
X142642671Y-92791030D01*
X142664850Y-92801520D01*
X142685893Y-92814132D01*
X142705599Y-92828747D01*
X142723777Y-92845223D01*
X142740253Y-92863401D01*
X142754868Y-92883107D01*
X142767480Y-92904150D01*
X142777970Y-92926329D01*
X142786235Y-92949428D01*
X142792196Y-92973227D01*
X142795796Y-92997495D01*
X142797000Y-93021999D01*
X142797000Y-93922001D01*
X142795796Y-93946505D01*
X142792196Y-93970773D01*
X142786235Y-93994572D01*
X142777970Y-94017671D01*
X142767480Y-94039850D01*
X142754868Y-94060893D01*
X142740253Y-94080599D01*
X142723777Y-94098777D01*
X142705599Y-94115253D01*
X142685893Y-94129868D01*
X142664850Y-94142480D01*
X142642671Y-94152970D01*
X142619572Y-94161235D01*
X142595773Y-94167196D01*
X142571505Y-94170796D01*
X142547001Y-94172000D01*
X141896999Y-94172000D01*
X141872495Y-94170796D01*
X141848227Y-94167196D01*
X141824428Y-94161235D01*
X141801329Y-94152970D01*
X141779150Y-94142480D01*
X141758107Y-94129868D01*
X141738401Y-94115253D01*
X141720223Y-94098777D01*
X141703747Y-94080599D01*
X141689132Y-94060893D01*
X141676520Y-94039850D01*
X141666030Y-94017671D01*
X141657765Y-93994572D01*
X141651804Y-93970773D01*
X141648204Y-93946505D01*
X141647000Y-93922001D01*
X141647000Y-93021999D01*
X141648204Y-92997495D01*
X141651804Y-92973227D01*
X141657765Y-92949428D01*
X141666030Y-92926329D01*
X141676520Y-92904150D01*
X141689132Y-92883107D01*
X141703747Y-92863401D01*
X141720223Y-92845223D01*
X141738401Y-92828747D01*
X141758107Y-92814132D01*
X141779150Y-92801520D01*
X141801329Y-92791030D01*
X141824428Y-92782765D01*
X141848227Y-92776804D01*
X141872495Y-92773204D01*
X141896999Y-92772000D01*
X142547001Y-92772000D01*
X142571505Y-92773204D01*
G37*
%TD.AperFunction*%
%TA.AperFunction,SMDPad,CuDef*%
%TO.P,R2,2*%
%TO.N,MIDI_DIN*%
G36*
X144621505Y-92773204D02*
G01*
X144645773Y-92776804D01*
X144669572Y-92782765D01*
X144692671Y-92791030D01*
X144714850Y-92801520D01*
X144735893Y-92814132D01*
X144755599Y-92828747D01*
X144773777Y-92845223D01*
X144790253Y-92863401D01*
X144804868Y-92883107D01*
X144817480Y-92904150D01*
X144827970Y-92926329D01*
X144836235Y-92949428D01*
X144842196Y-92973227D01*
X144845796Y-92997495D01*
X144847000Y-93021999D01*
X144847000Y-93922001D01*
X144845796Y-93946505D01*
X144842196Y-93970773D01*
X144836235Y-93994572D01*
X144827970Y-94017671D01*
X144817480Y-94039850D01*
X144804868Y-94060893D01*
X144790253Y-94080599D01*
X144773777Y-94098777D01*
X144755599Y-94115253D01*
X144735893Y-94129868D01*
X144714850Y-94142480D01*
X144692671Y-94152970D01*
X144669572Y-94161235D01*
X144645773Y-94167196D01*
X144621505Y-94170796D01*
X144597001Y-94172000D01*
X143946999Y-94172000D01*
X143922495Y-94170796D01*
X143898227Y-94167196D01*
X143874428Y-94161235D01*
X143851329Y-94152970D01*
X143829150Y-94142480D01*
X143808107Y-94129868D01*
X143788401Y-94115253D01*
X143770223Y-94098777D01*
X143753747Y-94080599D01*
X143739132Y-94060893D01*
X143726520Y-94039850D01*
X143716030Y-94017671D01*
X143707765Y-93994572D01*
X143701804Y-93970773D01*
X143698204Y-93946505D01*
X143697000Y-93922001D01*
X143697000Y-93021999D01*
X143698204Y-92997495D01*
X143701804Y-92973227D01*
X143707765Y-92949428D01*
X143716030Y-92926329D01*
X143726520Y-92904150D01*
X143739132Y-92883107D01*
X143753747Y-92863401D01*
X143770223Y-92845223D01*
X143788401Y-92828747D01*
X143808107Y-92814132D01*
X143829150Y-92801520D01*
X143851329Y-92791030D01*
X143874428Y-92782765D01*
X143898227Y-92776804D01*
X143922495Y-92773204D01*
X143946999Y-92772000D01*
X144597001Y-92772000D01*
X144621505Y-92773204D01*
G37*
%TD.AperFunction*%
%TD*%
%TA.AperFunction,SMDPad,CuDef*%
%TO.P,R3,1*%
%TO.N,Net-(R3-Pad1)*%
G36*
X144621505Y-95567204D02*
G01*
X144645773Y-95570804D01*
X144669572Y-95576765D01*
X144692671Y-95585030D01*
X144714850Y-95595520D01*
X144735893Y-95608132D01*
X144755599Y-95622747D01*
X144773777Y-95639223D01*
X144790253Y-95657401D01*
X144804868Y-95677107D01*
X144817480Y-95698150D01*
X144827970Y-95720329D01*
X144836235Y-95743428D01*
X144842196Y-95767227D01*
X144845796Y-95791495D01*
X144847000Y-95815999D01*
X144847000Y-96716001D01*
X144845796Y-96740505D01*
X144842196Y-96764773D01*
X144836235Y-96788572D01*
X144827970Y-96811671D01*
X144817480Y-96833850D01*
X144804868Y-96854893D01*
X144790253Y-96874599D01*
X144773777Y-96892777D01*
X144755599Y-96909253D01*
X144735893Y-96923868D01*
X144714850Y-96936480D01*
X144692671Y-96946970D01*
X144669572Y-96955235D01*
X144645773Y-96961196D01*
X144621505Y-96964796D01*
X144597001Y-96966000D01*
X143946999Y-96966000D01*
X143922495Y-96964796D01*
X143898227Y-96961196D01*
X143874428Y-96955235D01*
X143851329Y-96946970D01*
X143829150Y-96936480D01*
X143808107Y-96923868D01*
X143788401Y-96909253D01*
X143770223Y-96892777D01*
X143753747Y-96874599D01*
X143739132Y-96854893D01*
X143726520Y-96833850D01*
X143716030Y-96811671D01*
X143707765Y-96788572D01*
X143701804Y-96764773D01*
X143698204Y-96740505D01*
X143697000Y-96716001D01*
X143697000Y-95815999D01*
X143698204Y-95791495D01*
X143701804Y-95767227D01*
X143707765Y-95743428D01*
X143716030Y-95720329D01*
X143726520Y-95698150D01*
X143739132Y-95677107D01*
X143753747Y-95657401D01*
X143770223Y-95639223D01*
X143788401Y-95622747D01*
X143808107Y-95608132D01*
X143829150Y-95595520D01*
X143851329Y-95585030D01*
X143874428Y-95576765D01*
X143898227Y-95570804D01*
X143922495Y-95567204D01*
X143946999Y-95566000D01*
X144597001Y-95566000D01*
X144621505Y-95567204D01*
G37*
%TD.AperFunction*%
%TA.AperFunction,SMDPad,CuDef*%
%TO.P,R3,2*%
%TO.N,GND*%
G36*
X142571505Y-95567204D02*
G01*
X142595773Y-95570804D01*
X142619572Y-95576765D01*
X142642671Y-95585030D01*
X142664850Y-95595520D01*
X142685893Y-95608132D01*
X142705599Y-95622747D01*
X142723777Y-95639223D01*
X142740253Y-95657401D01*
X142754868Y-95677107D01*
X142767480Y-95698150D01*
X142777970Y-95720329D01*
X142786235Y-95743428D01*
X142792196Y-95767227D01*
X142795796Y-95791495D01*
X142797000Y-95815999D01*
X142797000Y-96716001D01*
X142795796Y-96740505D01*
X142792196Y-96764773D01*
X142786235Y-96788572D01*
X142777970Y-96811671D01*
X142767480Y-96833850D01*
X142754868Y-96854893D01*
X142740253Y-96874599D01*
X142723777Y-96892777D01*
X142705599Y-96909253D01*
X142685893Y-96923868D01*
X142664850Y-96936480D01*
X142642671Y-96946970D01*
X142619572Y-96955235D01*
X142595773Y-96961196D01*
X142571505Y-96964796D01*
X142547001Y-96966000D01*
X141896999Y-96966000D01*
X141872495Y-96964796D01*
X141848227Y-96961196D01*
X141824428Y-96955235D01*
X141801329Y-96946970D01*
X141779150Y-96936480D01*
X141758107Y-96923868D01*
X141738401Y-96909253D01*
X141720223Y-96892777D01*
X141703747Y-96874599D01*
X141689132Y-96854893D01*
X141676520Y-96833850D01*
X141666030Y-96811671D01*
X141657765Y-96788572D01*
X141651804Y-96764773D01*
X141648204Y-96740505D01*
X141647000Y-96716001D01*
X141647000Y-95815999D01*
X141648204Y-95791495D01*
X141651804Y-95767227D01*
X141657765Y-95743428D01*
X141666030Y-95720329D01*
X141676520Y-95698150D01*
X141689132Y-95677107D01*
X141703747Y-95657401D01*
X141720223Y-95639223D01*
X141738401Y-95622747D01*
X141758107Y-95608132D01*
X141779150Y-95595520D01*
X141801329Y-95585030D01*
X141824428Y-95576765D01*
X141848227Y-95570804D01*
X141872495Y-95567204D01*
X141896999Y-95566000D01*
X142547001Y-95566000D01*
X142571505Y-95567204D01*
G37*
%TD.AperFunction*%
%TD*%
%TA.AperFunction,SMDPad,CuDef*%
%TO.P,R4,2*%
%TO.N,3.3V*%
G36*
X125063505Y-122491204D02*
G01*
X125087773Y-122494804D01*
X125111572Y-122500765D01*
X125134671Y-122509030D01*
X125156850Y-122519520D01*
X125177893Y-122532132D01*
X125197599Y-122546747D01*
X125215777Y-122563223D01*
X125232253Y-122581401D01*
X125246868Y-122601107D01*
X125259480Y-122622150D01*
X125269970Y-122644329D01*
X125278235Y-122667428D01*
X125284196Y-122691227D01*
X125287796Y-122715495D01*
X125289000Y-122739999D01*
X125289000Y-123640001D01*
X125287796Y-123664505D01*
X125284196Y-123688773D01*
X125278235Y-123712572D01*
X125269970Y-123735671D01*
X125259480Y-123757850D01*
X125246868Y-123778893D01*
X125232253Y-123798599D01*
X125215777Y-123816777D01*
X125197599Y-123833253D01*
X125177893Y-123847868D01*
X125156850Y-123860480D01*
X125134671Y-123870970D01*
X125111572Y-123879235D01*
X125087773Y-123885196D01*
X125063505Y-123888796D01*
X125039001Y-123890000D01*
X124388999Y-123890000D01*
X124364495Y-123888796D01*
X124340227Y-123885196D01*
X124316428Y-123879235D01*
X124293329Y-123870970D01*
X124271150Y-123860480D01*
X124250107Y-123847868D01*
X124230401Y-123833253D01*
X124212223Y-123816777D01*
X124195747Y-123798599D01*
X124181132Y-123778893D01*
X124168520Y-123757850D01*
X124158030Y-123735671D01*
X124149765Y-123712572D01*
X124143804Y-123688773D01*
X124140204Y-123664505D01*
X124139000Y-123640001D01*
X124139000Y-122739999D01*
X124140204Y-122715495D01*
X124143804Y-122691227D01*
X124149765Y-122667428D01*
X124158030Y-122644329D01*
X124168520Y-122622150D01*
X124181132Y-122601107D01*
X124195747Y-122581401D01*
X124212223Y-122563223D01*
X124230401Y-122546747D01*
X124250107Y-122532132D01*
X124271150Y-122519520D01*
X124293329Y-122509030D01*
X124316428Y-122500765D01*
X124340227Y-122494804D01*
X124364495Y-122491204D01*
X124388999Y-122490000D01*
X125039001Y-122490000D01*
X125063505Y-122491204D01*
G37*
%TD.AperFunction*%
%TA.AperFunction,SMDPad,CuDef*%
%TO.P,R4,1*%
%TO.N,Net-(J5-Pad8)*%
G36*
X123013505Y-122491204D02*
G01*
X123037773Y-122494804D01*
X123061572Y-122500765D01*
X123084671Y-122509030D01*
X123106850Y-122519520D01*
X123127893Y-122532132D01*
X123147599Y-122546747D01*
X123165777Y-122563223D01*
X123182253Y-122581401D01*
X123196868Y-122601107D01*
X123209480Y-122622150D01*
X123219970Y-122644329D01*
X123228235Y-122667428D01*
X123234196Y-122691227D01*
X123237796Y-122715495D01*
X123239000Y-122739999D01*
X123239000Y-123640001D01*
X123237796Y-123664505D01*
X123234196Y-123688773D01*
X123228235Y-123712572D01*
X123219970Y-123735671D01*
X123209480Y-123757850D01*
X123196868Y-123778893D01*
X123182253Y-123798599D01*
X123165777Y-123816777D01*
X123147599Y-123833253D01*
X123127893Y-123847868D01*
X123106850Y-123860480D01*
X123084671Y-123870970D01*
X123061572Y-123879235D01*
X123037773Y-123885196D01*
X123013505Y-123888796D01*
X122989001Y-123890000D01*
X122338999Y-123890000D01*
X122314495Y-123888796D01*
X122290227Y-123885196D01*
X122266428Y-123879235D01*
X122243329Y-123870970D01*
X122221150Y-123860480D01*
X122200107Y-123847868D01*
X122180401Y-123833253D01*
X122162223Y-123816777D01*
X122145747Y-123798599D01*
X122131132Y-123778893D01*
X122118520Y-123757850D01*
X122108030Y-123735671D01*
X122099765Y-123712572D01*
X122093804Y-123688773D01*
X122090204Y-123664505D01*
X122089000Y-123640001D01*
X122089000Y-122739999D01*
X122090204Y-122715495D01*
X122093804Y-122691227D01*
X122099765Y-122667428D01*
X122108030Y-122644329D01*
X122118520Y-122622150D01*
X122131132Y-122601107D01*
X122145747Y-122581401D01*
X122162223Y-122563223D01*
X122180401Y-122546747D01*
X122200107Y-122532132D01*
X122221150Y-122519520D01*
X122243329Y-122509030D01*
X122266428Y-122500765D01*
X122290227Y-122494804D01*
X122314495Y-122491204D01*
X122338999Y-122490000D01*
X122989001Y-122490000D01*
X123013505Y-122491204D01*
G37*
%TD.AperFunction*%
%TD*%
%TA.AperFunction,SMDPad,CuDef*%
%TO.P,R5,1*%
%TO.N,DAT0*%
G36*
X125299505Y-124777204D02*
G01*
X125323773Y-124780804D01*
X125347572Y-124786765D01*
X125370671Y-124795030D01*
X125392850Y-124805520D01*
X125413893Y-124818132D01*
X125433599Y-124832747D01*
X125451777Y-124849223D01*
X125468253Y-124867401D01*
X125482868Y-124887107D01*
X125495480Y-124908150D01*
X125505970Y-124930329D01*
X125514235Y-124953428D01*
X125520196Y-124977227D01*
X125523796Y-125001495D01*
X125525000Y-125025999D01*
X125525000Y-125926001D01*
X125523796Y-125950505D01*
X125520196Y-125974773D01*
X125514235Y-125998572D01*
X125505970Y-126021671D01*
X125495480Y-126043850D01*
X125482868Y-126064893D01*
X125468253Y-126084599D01*
X125451777Y-126102777D01*
X125433599Y-126119253D01*
X125413893Y-126133868D01*
X125392850Y-126146480D01*
X125370671Y-126156970D01*
X125347572Y-126165235D01*
X125323773Y-126171196D01*
X125299505Y-126174796D01*
X125275001Y-126176000D01*
X124624999Y-126176000D01*
X124600495Y-126174796D01*
X124576227Y-126171196D01*
X124552428Y-126165235D01*
X124529329Y-126156970D01*
X124507150Y-126146480D01*
X124486107Y-126133868D01*
X124466401Y-126119253D01*
X124448223Y-126102777D01*
X124431747Y-126084599D01*
X124417132Y-126064893D01*
X124404520Y-126043850D01*
X124394030Y-126021671D01*
X124385765Y-125998572D01*
X124379804Y-125974773D01*
X124376204Y-125950505D01*
X124375000Y-125926001D01*
X124375000Y-125025999D01*
X124376204Y-125001495D01*
X124379804Y-124977227D01*
X124385765Y-124953428D01*
X124394030Y-124930329D01*
X124404520Y-124908150D01*
X124417132Y-124887107D01*
X124431747Y-124867401D01*
X124448223Y-124849223D01*
X124466401Y-124832747D01*
X124486107Y-124818132D01*
X124507150Y-124805520D01*
X124529329Y-124795030D01*
X124552428Y-124786765D01*
X124576227Y-124780804D01*
X124600495Y-124777204D01*
X124624999Y-124776000D01*
X125275001Y-124776000D01*
X125299505Y-124777204D01*
G37*
%TD.AperFunction*%
%TA.AperFunction,SMDPad,CuDef*%
%TO.P,R5,2*%
%TO.N,3.3V*%
G36*
X127349505Y-124777204D02*
G01*
X127373773Y-124780804D01*
X127397572Y-124786765D01*
X127420671Y-124795030D01*
X127442850Y-124805520D01*
X127463893Y-124818132D01*
X127483599Y-124832747D01*
X127501777Y-124849223D01*
X127518253Y-124867401D01*
X127532868Y-124887107D01*
X127545480Y-124908150D01*
X127555970Y-124930329D01*
X127564235Y-124953428D01*
X127570196Y-124977227D01*
X127573796Y-125001495D01*
X127575000Y-125025999D01*
X127575000Y-125926001D01*
X127573796Y-125950505D01*
X127570196Y-125974773D01*
X127564235Y-125998572D01*
X127555970Y-126021671D01*
X127545480Y-126043850D01*
X127532868Y-126064893D01*
X127518253Y-126084599D01*
X127501777Y-126102777D01*
X127483599Y-126119253D01*
X127463893Y-126133868D01*
X127442850Y-126146480D01*
X127420671Y-126156970D01*
X127397572Y-126165235D01*
X127373773Y-126171196D01*
X127349505Y-126174796D01*
X127325001Y-126176000D01*
X126674999Y-126176000D01*
X126650495Y-126174796D01*
X126626227Y-126171196D01*
X126602428Y-126165235D01*
X126579329Y-126156970D01*
X126557150Y-126146480D01*
X126536107Y-126133868D01*
X126516401Y-126119253D01*
X126498223Y-126102777D01*
X126481747Y-126084599D01*
X126467132Y-126064893D01*
X126454520Y-126043850D01*
X126444030Y-126021671D01*
X126435765Y-125998572D01*
X126429804Y-125974773D01*
X126426204Y-125950505D01*
X126425000Y-125926001D01*
X126425000Y-125025999D01*
X126426204Y-125001495D01*
X126429804Y-124977227D01*
X126435765Y-124953428D01*
X126444030Y-124930329D01*
X126454520Y-124908150D01*
X126467132Y-124887107D01*
X126481747Y-124867401D01*
X126498223Y-124849223D01*
X126516401Y-124832747D01*
X126536107Y-124818132D01*
X126557150Y-124805520D01*
X126579329Y-124795030D01*
X126602428Y-124786765D01*
X126626227Y-124780804D01*
X126650495Y-124777204D01*
X126674999Y-124776000D01*
X127325001Y-124776000D01*
X127349505Y-124777204D01*
G37*
%TD.AperFunction*%
%TD*%
D24*
%TO.N,5V*%
X129286000Y-80264000D03*
%TO.N,GND*%
X152146000Y-74180300D03*
X142748000Y-74853000D03*
X142240000Y-98044000D03*
X138684000Y-84074000D03*
X149466300Y-87122000D03*
X136144000Y-96520000D03*
X152654000Y-89154000D03*
%TO.N,3.3V*%
X142240000Y-83312000D03*
X127000000Y-127508000D03*
X139446000Y-89408000D03*
X136652000Y-90424000D03*
%TO.N,RESET*%
X151721358Y-77178000D03*
%TO.N,Net-(J5-Pad8)*%
X122936000Y-128524000D03*
%TO.N,DAT0*%
X124714000Y-127508000D03*
X127000000Y-123444000D03*
%TO.N,CMD*%
X136144000Y-114300000D03*
%TO.N,SWDIO*%
X151638000Y-75184000D03*
%TO.N,SWDCLK*%
X152654000Y-75184000D03*
%TO.N,MIDI_DIN*%
X147574000Y-88392000D03*
%TO.N,CD*%
X136842538Y-116649462D03*
%TO.N,DET*%
X125984000Y-117602000D03*
X137668000Y-102108000D03*
%TD*%
D25*
%TO.N,5V*%
X129273000Y-83308000D02*
X131318000Y-85353000D01*
X128520000Y-83308000D02*
X128520000Y-81030000D01*
X126428000Y-83308000D02*
X128520000Y-83308000D01*
X128520000Y-83308000D02*
X129273000Y-83308000D01*
X128520000Y-81030000D02*
X129286000Y-80264000D01*
X132792000Y-90445000D02*
X132792000Y-91680000D01*
X132018000Y-85353000D02*
X132792000Y-86127000D01*
X132792000Y-86127000D02*
X132792000Y-90445000D01*
X131318000Y-85353000D02*
X132018000Y-85353000D01*
%TO.N,GND*%
X146304000Y-79313854D02*
X146304000Y-80687000D01*
X151437554Y-74180300D02*
X146304000Y-79313854D01*
X146304000Y-80687000D02*
X146304000Y-81262000D01*
X152146000Y-74180300D02*
X151437554Y-74180300D01*
X146304000Y-81262000D02*
X144018000Y-81262000D01*
X144018000Y-76123000D02*
X142748000Y-74853000D01*
X144018000Y-81262000D02*
X144018000Y-76123000D01*
X142222000Y-96966000D02*
X142240000Y-96984000D01*
X142222000Y-96266000D02*
X142222000Y-96966000D01*
X142240000Y-96984000D02*
X142240000Y-98044000D01*
X140275054Y-84074000D02*
X138684000Y-84074000D01*
X143087054Y-81262000D02*
X140275054Y-84074000D01*
X144018000Y-81262000D02*
X143087054Y-81262000D01*
X133032000Y-96520000D02*
X132792000Y-96280000D01*
X136144000Y-96520000D02*
X133032000Y-96520000D01*
%TO.N,3.3V*%
X146304000Y-83312000D02*
X144018000Y-83312000D01*
X144018000Y-83312000D02*
X143318000Y-83312000D01*
X143318000Y-83312000D02*
X142240000Y-83312000D01*
X149334000Y-83312000D02*
X149352000Y-83330000D01*
X146304000Y-83312000D02*
X149334000Y-83312000D01*
X146304000Y-83312000D02*
X146304000Y-85852000D01*
X143002000Y-89154000D02*
X146304000Y-85852000D01*
X142222000Y-89390000D02*
X142222000Y-93472000D01*
X141986000Y-89154000D02*
X142222000Y-89390000D01*
X141986000Y-89154000D02*
X143002000Y-89154000D01*
X139954000Y-99822000D02*
X139954000Y-100953370D01*
X141420315Y-102419685D02*
X141166315Y-102419685D01*
X139954000Y-100953370D02*
X141420315Y-102419685D01*
X125289000Y-123190000D02*
X124714000Y-123190000D01*
X127575000Y-125476000D02*
X129286000Y-123765000D01*
X127000000Y-125476000D02*
X127575000Y-125476000D01*
X129286000Y-121158000D02*
X128524000Y-120396000D01*
X129286000Y-123765000D02*
X129286000Y-121158000D01*
X128524000Y-120396000D02*
X125289000Y-123190000D01*
X133029901Y-115449099D02*
X128524000Y-120396000D01*
X127000000Y-125476000D02*
X127000000Y-127508000D01*
X133029901Y-115382099D02*
X137668000Y-110744000D01*
X137668000Y-105918000D02*
X141166315Y-102419685D01*
X137668000Y-110744000D02*
X137668000Y-105918000D01*
X140468178Y-89408000D02*
X140722178Y-89154000D01*
X139446000Y-89408000D02*
X140468178Y-89408000D01*
X134227000Y-93980000D02*
X134874000Y-93333000D01*
X132792000Y-93980000D02*
X134227000Y-93980000D01*
X134874000Y-93333000D02*
X134874000Y-90932000D01*
X134874000Y-90932000D02*
X135382000Y-90424000D01*
X135382000Y-90424000D02*
X136652000Y-90424000D01*
X141420315Y-102419685D02*
X145853685Y-102419685D01*
X145853685Y-102419685D02*
X152400000Y-108966000D01*
X158242000Y-108966000D02*
X161290000Y-105918000D01*
X152400000Y-108966000D02*
X158242000Y-108966000D01*
X124714000Y-122174000D02*
X122174000Y-119634000D01*
X124714000Y-123190000D02*
X124714000Y-122174000D01*
X140722178Y-89154000D02*
X141986000Y-89154000D01*
X142222000Y-93472000D02*
X142222000Y-94172000D01*
X142222000Y-94172000D02*
X139954000Y-96440000D01*
X139954000Y-96440000D02*
X139954000Y-98690630D01*
X139954000Y-98690630D02*
X139954000Y-99822000D01*
X133029901Y-115449099D02*
X133029901Y-115382099D01*
D26*
%TO.N,Net-(C5-Pad1)*%
X150622000Y-121781000D02*
X150483000Y-121920000D01*
X150622000Y-115824000D02*
X150622000Y-121781000D01*
%TO.N,Net-(D1-Pad2)*%
X144526000Y-118478000D02*
X145478000Y-119430000D01*
X144526000Y-112014000D02*
X144526000Y-118478000D01*
X144526000Y-107950000D02*
X145034000Y-107442000D01*
X144526000Y-112014000D02*
X144526000Y-107950000D01*
%TO.N,RESET*%
X149352000Y-81280000D02*
X150052000Y-81280000D01*
X152846000Y-78486000D02*
X153162000Y-78486000D01*
X152196899Y-77520899D02*
X153162000Y-78486000D01*
X152064257Y-77520899D02*
X152196899Y-77520899D01*
X151721358Y-77178000D02*
X152064257Y-77520899D01*
X150591000Y-80741000D02*
X150591000Y-84297000D01*
X150591000Y-80741000D02*
X152846000Y-78486000D01*
X150052000Y-81280000D02*
X150591000Y-80741000D01*
X157110801Y-99198801D02*
X161290000Y-103378000D01*
X157110801Y-90816801D02*
X157110801Y-99198801D01*
X150591000Y-84297000D02*
X157110801Y-90816801D01*
%TO.N,Net-(J5-Pad8)*%
X122664000Y-123190000D02*
X122664000Y-128252000D01*
X122664000Y-128252000D02*
X122936000Y-128524000D01*
%TO.N,DAT0*%
X124714000Y-125712000D02*
X124950000Y-125476000D01*
X124714000Y-127508000D02*
X124714000Y-125712000D01*
X124950000Y-125476000D02*
X124950000Y-124776000D01*
X124950000Y-124776000D02*
X126282000Y-123444000D01*
X126282000Y-123444000D02*
X127000000Y-123444000D01*
%TO.N,Net-(R3-Pad1)*%
X144272000Y-98044000D02*
X142494000Y-99822000D01*
X144272000Y-96266000D02*
X144272000Y-98044000D01*
%TO.N,SWDIO*%
X151638000Y-75668933D02*
X158496000Y-82526933D01*
X151638000Y-75184000D02*
X151638000Y-75668933D01*
X158496000Y-98044000D02*
X161290000Y-100838000D01*
X158496000Y-82526933D02*
X158496000Y-98044000D01*
%TO.N,SWDCLK*%
X152654000Y-75184000D02*
X159004000Y-81534000D01*
X159004000Y-96012000D02*
X161290000Y-98298000D01*
X159004000Y-81534000D02*
X159004000Y-96012000D01*
%TO.N,MIDI_DIN*%
X145833999Y-99022001D02*
X145034000Y-99822000D01*
X145833999Y-95733999D02*
X145833999Y-99022001D01*
X144272000Y-94172000D02*
X145833999Y-95733999D01*
X144272000Y-93472000D02*
X144272000Y-94172000D01*
X144272000Y-91694000D02*
X144272000Y-93472000D01*
X147574000Y-88392000D02*
X144272000Y-91694000D01*
%TO.N,DET*%
X125984000Y-116586000D02*
X125984000Y-117602000D01*
X125984000Y-116586000D02*
X124215000Y-116586000D01*
X123217000Y-117584000D02*
X124215000Y-116586000D01*
X122174000Y-117584000D02*
X123217000Y-117584000D01*
X130594120Y-116586000D02*
X125984000Y-116586000D01*
X136144000Y-111036120D02*
X130594120Y-116586000D01*
X137668000Y-102108000D02*
X136144000Y-103632000D01*
X136144000Y-103632000D02*
X136144000Y-111036120D01*
%TD*%
D27*
%TO.N,3.3V*%
G36*
X143383000Y-92341546D02*
G01*
X143319038Y-92394038D01*
X143313658Y-92400594D01*
X143248185Y-92320815D01*
X143151494Y-92241463D01*
X143041180Y-92182498D01*
X142921482Y-92146188D01*
X142797000Y-92133928D01*
X142507750Y-92137000D01*
X142349000Y-92295750D01*
X142349000Y-93345000D01*
X142369000Y-93345000D01*
X142369000Y-93599000D01*
X142349000Y-93599000D01*
X142349000Y-94648250D01*
X142507750Y-94807000D01*
X142797000Y-94810072D01*
X142921482Y-94797812D01*
X143041180Y-94761502D01*
X143151494Y-94702537D01*
X143248185Y-94623185D01*
X143313658Y-94543406D01*
X143319038Y-94549962D01*
X143383000Y-94602454D01*
X143383000Y-94869000D01*
X140970000Y-94869000D01*
X140945224Y-94871440D01*
X140921399Y-94878667D01*
X140899443Y-94890403D01*
X140880197Y-94906197D01*
X140864403Y-94925443D01*
X140852667Y-94947399D01*
X140845440Y-94971224D01*
X140843000Y-94996000D01*
X140843000Y-98703322D01*
X140691420Y-98590963D01*
X140437087Y-98470754D01*
X140303039Y-98430096D01*
X140081000Y-98552085D01*
X140081000Y-99695000D01*
X140101000Y-99695000D01*
X140101000Y-99949000D01*
X140081000Y-99949000D01*
X140081000Y-99969000D01*
X139827000Y-99969000D01*
X139827000Y-99949000D01*
X138683376Y-99949000D01*
X138562091Y-100171040D01*
X138656930Y-100435881D01*
X138801615Y-100677131D01*
X138990586Y-100885519D01*
X139097812Y-100965000D01*
X134493000Y-100965000D01*
X134493000Y-99472960D01*
X138562091Y-99472960D01*
X138683376Y-99695000D01*
X139827000Y-99695000D01*
X139827000Y-98552085D01*
X139604961Y-98430096D01*
X139470913Y-98470754D01*
X139216580Y-98590963D01*
X138990586Y-98758481D01*
X138801615Y-98966869D01*
X138656930Y-99208119D01*
X138562091Y-99472960D01*
X134493000Y-99472960D01*
X134493000Y-97472500D01*
X135919990Y-97472500D01*
X136047685Y-97497900D01*
X136240315Y-97497900D01*
X136429243Y-97460320D01*
X136607210Y-97386604D01*
X136767375Y-97279585D01*
X136903585Y-97143375D01*
X137010604Y-96983210D01*
X137084320Y-96805243D01*
X137121900Y-96616315D01*
X137121900Y-96423685D01*
X137084320Y-96234757D01*
X137010604Y-96056790D01*
X136903585Y-95896625D01*
X136767375Y-95760415D01*
X136607210Y-95653396D01*
X136550727Y-95630000D01*
X137753928Y-95630000D01*
X137766188Y-95754482D01*
X137802498Y-95874180D01*
X137861463Y-95984494D01*
X137940815Y-96081185D01*
X138037506Y-96160537D01*
X138147820Y-96219502D01*
X138267518Y-96255812D01*
X138392000Y-96268072D01*
X138906250Y-96265000D01*
X139065000Y-96106250D01*
X139065000Y-94107000D01*
X139319000Y-94107000D01*
X139319000Y-96106250D01*
X139477750Y-96265000D01*
X139992000Y-96268072D01*
X140116482Y-96255812D01*
X140236180Y-96219502D01*
X140346494Y-96160537D01*
X140443185Y-96081185D01*
X140522537Y-95984494D01*
X140581502Y-95874180D01*
X140617812Y-95754482D01*
X140630072Y-95630000D01*
X140627000Y-94265750D01*
X140533250Y-94172000D01*
X141008928Y-94172000D01*
X141021188Y-94296482D01*
X141057498Y-94416180D01*
X141116463Y-94526494D01*
X141195815Y-94623185D01*
X141292506Y-94702537D01*
X141402820Y-94761502D01*
X141522518Y-94797812D01*
X141647000Y-94810072D01*
X141936250Y-94807000D01*
X142095000Y-94648250D01*
X142095000Y-93599000D01*
X141170750Y-93599000D01*
X141012000Y-93757750D01*
X141008928Y-94172000D01*
X140533250Y-94172000D01*
X140468250Y-94107000D01*
X139319000Y-94107000D01*
X139065000Y-94107000D01*
X137915750Y-94107000D01*
X137757000Y-94265750D01*
X137753928Y-95630000D01*
X136550727Y-95630000D01*
X136429243Y-95579680D01*
X136240315Y-95542100D01*
X136047685Y-95542100D01*
X135919990Y-95567500D01*
X134493000Y-95567500D01*
X134493000Y-92330000D01*
X137753928Y-92330000D01*
X137757000Y-93694250D01*
X137915750Y-93853000D01*
X139065000Y-93853000D01*
X139065000Y-91853750D01*
X139319000Y-91853750D01*
X139319000Y-93853000D01*
X140468250Y-93853000D01*
X140627000Y-93694250D01*
X140629076Y-92772000D01*
X141008928Y-92772000D01*
X141012000Y-93186250D01*
X141170750Y-93345000D01*
X142095000Y-93345000D01*
X142095000Y-92295750D01*
X141936250Y-92137000D01*
X141647000Y-92133928D01*
X141522518Y-92146188D01*
X141402820Y-92182498D01*
X141292506Y-92241463D01*
X141195815Y-92320815D01*
X141116463Y-92417506D01*
X141057498Y-92527820D01*
X141021188Y-92647518D01*
X141008928Y-92772000D01*
X140629076Y-92772000D01*
X140630072Y-92330000D01*
X140617812Y-92205518D01*
X140581502Y-92085820D01*
X140522537Y-91975506D01*
X140443185Y-91878815D01*
X140346494Y-91799463D01*
X140236180Y-91740498D01*
X140116482Y-91704188D01*
X139992000Y-91691928D01*
X139477750Y-91695000D01*
X139319000Y-91853750D01*
X139065000Y-91853750D01*
X138906250Y-91695000D01*
X138392000Y-91691928D01*
X138267518Y-91704188D01*
X138147820Y-91740498D01*
X138037506Y-91799463D01*
X137940815Y-91878815D01*
X137861463Y-91975506D01*
X137802498Y-92085820D01*
X137766188Y-92205518D01*
X137753928Y-92330000D01*
X134493000Y-92330000D01*
X134493000Y-90043000D01*
X138684000Y-90043000D01*
X138708776Y-90040560D01*
X138732601Y-90033333D01*
X138754557Y-90021597D01*
X138773803Y-90005803D01*
X138789597Y-89986557D01*
X138801333Y-89964601D01*
X138808560Y-89940776D01*
X138811000Y-89916000D01*
X138811000Y-88519000D01*
X143383000Y-88519000D01*
X143383000Y-92341546D01*
G37*
X143383000Y-92341546D02*
X143319038Y-92394038D01*
X143313658Y-92400594D01*
X143248185Y-92320815D01*
X143151494Y-92241463D01*
X143041180Y-92182498D01*
X142921482Y-92146188D01*
X142797000Y-92133928D01*
X142507750Y-92137000D01*
X142349000Y-92295750D01*
X142349000Y-93345000D01*
X142369000Y-93345000D01*
X142369000Y-93599000D01*
X142349000Y-93599000D01*
X142349000Y-94648250D01*
X142507750Y-94807000D01*
X142797000Y-94810072D01*
X142921482Y-94797812D01*
X143041180Y-94761502D01*
X143151494Y-94702537D01*
X143248185Y-94623185D01*
X143313658Y-94543406D01*
X143319038Y-94549962D01*
X143383000Y-94602454D01*
X143383000Y-94869000D01*
X140970000Y-94869000D01*
X140945224Y-94871440D01*
X140921399Y-94878667D01*
X140899443Y-94890403D01*
X140880197Y-94906197D01*
X140864403Y-94925443D01*
X140852667Y-94947399D01*
X140845440Y-94971224D01*
X140843000Y-94996000D01*
X140843000Y-98703322D01*
X140691420Y-98590963D01*
X140437087Y-98470754D01*
X140303039Y-98430096D01*
X140081000Y-98552085D01*
X140081000Y-99695000D01*
X140101000Y-99695000D01*
X140101000Y-99949000D01*
X140081000Y-99949000D01*
X140081000Y-99969000D01*
X139827000Y-99969000D01*
X139827000Y-99949000D01*
X138683376Y-99949000D01*
X138562091Y-100171040D01*
X138656930Y-100435881D01*
X138801615Y-100677131D01*
X138990586Y-100885519D01*
X139097812Y-100965000D01*
X134493000Y-100965000D01*
X134493000Y-99472960D01*
X138562091Y-99472960D01*
X138683376Y-99695000D01*
X139827000Y-99695000D01*
X139827000Y-98552085D01*
X139604961Y-98430096D01*
X139470913Y-98470754D01*
X139216580Y-98590963D01*
X138990586Y-98758481D01*
X138801615Y-98966869D01*
X138656930Y-99208119D01*
X138562091Y-99472960D01*
X134493000Y-99472960D01*
X134493000Y-97472500D01*
X135919990Y-97472500D01*
X136047685Y-97497900D01*
X136240315Y-97497900D01*
X136429243Y-97460320D01*
X136607210Y-97386604D01*
X136767375Y-97279585D01*
X136903585Y-97143375D01*
X137010604Y-96983210D01*
X137084320Y-96805243D01*
X137121900Y-96616315D01*
X137121900Y-96423685D01*
X137084320Y-96234757D01*
X137010604Y-96056790D01*
X136903585Y-95896625D01*
X136767375Y-95760415D01*
X136607210Y-95653396D01*
X136550727Y-95630000D01*
X137753928Y-95630000D01*
X137766188Y-95754482D01*
X137802498Y-95874180D01*
X137861463Y-95984494D01*
X137940815Y-96081185D01*
X138037506Y-96160537D01*
X138147820Y-96219502D01*
X138267518Y-96255812D01*
X138392000Y-96268072D01*
X138906250Y-96265000D01*
X139065000Y-96106250D01*
X139065000Y-94107000D01*
X139319000Y-94107000D01*
X139319000Y-96106250D01*
X139477750Y-96265000D01*
X139992000Y-96268072D01*
X140116482Y-96255812D01*
X140236180Y-96219502D01*
X140346494Y-96160537D01*
X140443185Y-96081185D01*
X140522537Y-95984494D01*
X140581502Y-95874180D01*
X140617812Y-95754482D01*
X140630072Y-95630000D01*
X140627000Y-94265750D01*
X140533250Y-94172000D01*
X141008928Y-94172000D01*
X141021188Y-94296482D01*
X141057498Y-94416180D01*
X141116463Y-94526494D01*
X141195815Y-94623185D01*
X141292506Y-94702537D01*
X141402820Y-94761502D01*
X141522518Y-94797812D01*
X141647000Y-94810072D01*
X141936250Y-94807000D01*
X142095000Y-94648250D01*
X142095000Y-93599000D01*
X141170750Y-93599000D01*
X141012000Y-93757750D01*
X141008928Y-94172000D01*
X140533250Y-94172000D01*
X140468250Y-94107000D01*
X139319000Y-94107000D01*
X139065000Y-94107000D01*
X137915750Y-94107000D01*
X137757000Y-94265750D01*
X137753928Y-95630000D01*
X136550727Y-95630000D01*
X136429243Y-95579680D01*
X136240315Y-95542100D01*
X136047685Y-95542100D01*
X135919990Y-95567500D01*
X134493000Y-95567500D01*
X134493000Y-92330000D01*
X137753928Y-92330000D01*
X137757000Y-93694250D01*
X137915750Y-93853000D01*
X139065000Y-93853000D01*
X139065000Y-91853750D01*
X139319000Y-91853750D01*
X139319000Y-93853000D01*
X140468250Y-93853000D01*
X140627000Y-93694250D01*
X140629076Y-92772000D01*
X141008928Y-92772000D01*
X141012000Y-93186250D01*
X141170750Y-93345000D01*
X142095000Y-93345000D01*
X142095000Y-92295750D01*
X141936250Y-92137000D01*
X141647000Y-92133928D01*
X141522518Y-92146188D01*
X141402820Y-92182498D01*
X141292506Y-92241463D01*
X141195815Y-92320815D01*
X141116463Y-92417506D01*
X141057498Y-92527820D01*
X141021188Y-92647518D01*
X141008928Y-92772000D01*
X140629076Y-92772000D01*
X140630072Y-92330000D01*
X140617812Y-92205518D01*
X140581502Y-92085820D01*
X140522537Y-91975506D01*
X140443185Y-91878815D01*
X140346494Y-91799463D01*
X140236180Y-91740498D01*
X140116482Y-91704188D01*
X139992000Y-91691928D01*
X139477750Y-91695000D01*
X139319000Y-91853750D01*
X139065000Y-91853750D01*
X138906250Y-91695000D01*
X138392000Y-91691928D01*
X138267518Y-91704188D01*
X138147820Y-91740498D01*
X138037506Y-91799463D01*
X137940815Y-91878815D01*
X137861463Y-91975506D01*
X137802498Y-92085820D01*
X137766188Y-92205518D01*
X137753928Y-92330000D01*
X134493000Y-92330000D01*
X134493000Y-90043000D01*
X138684000Y-90043000D01*
X138708776Y-90040560D01*
X138732601Y-90033333D01*
X138754557Y-90021597D01*
X138773803Y-90005803D01*
X138789597Y-89986557D01*
X138801333Y-89964601D01*
X138808560Y-89940776D01*
X138811000Y-89916000D01*
X138811000Y-88519000D01*
X143383000Y-88519000D01*
X143383000Y-92341546D01*
%TO.N,GND*%
G36*
X162924545Y-74358909D02*
G01*
X163275208Y-74464780D01*
X163598625Y-74636744D01*
X163882484Y-74868254D01*
X164115965Y-75150486D01*
X164290183Y-75472695D01*
X164398502Y-75822614D01*
X164440000Y-76217443D01*
X164440001Y-132047711D01*
X164401091Y-132444545D01*
X164295220Y-132795206D01*
X164123257Y-133118623D01*
X163891748Y-133402482D01*
X163609514Y-133635965D01*
X163287304Y-133810184D01*
X162937385Y-133918502D01*
X162542557Y-133960000D01*
X123222279Y-133960000D01*
X122825455Y-133921091D01*
X122474794Y-133815220D01*
X122151377Y-133643257D01*
X121867518Y-133411748D01*
X121634035Y-133129514D01*
X121459816Y-132807304D01*
X121351498Y-132457385D01*
X121310000Y-132062557D01*
X121310000Y-131764042D01*
X146298000Y-131764042D01*
X146298000Y-132095958D01*
X146362754Y-132421496D01*
X146489772Y-132728147D01*
X146674175Y-133004125D01*
X146908875Y-133238825D01*
X147184853Y-133423228D01*
X147491504Y-133550246D01*
X147817042Y-133615000D01*
X148148958Y-133615000D01*
X148474496Y-133550246D01*
X148781147Y-133423228D01*
X149057125Y-133238825D01*
X149291825Y-133004125D01*
X149476228Y-132728147D01*
X149603246Y-132421496D01*
X149668000Y-132095958D01*
X149668000Y-131764042D01*
X151298000Y-131764042D01*
X151298000Y-132095958D01*
X151362754Y-132421496D01*
X151489772Y-132728147D01*
X151674175Y-133004125D01*
X151908875Y-133238825D01*
X152184853Y-133423228D01*
X152491504Y-133550246D01*
X152817042Y-133615000D01*
X153148958Y-133615000D01*
X153474496Y-133550246D01*
X153781147Y-133423228D01*
X154057125Y-133238825D01*
X154291825Y-133004125D01*
X154476228Y-132728147D01*
X154603246Y-132421496D01*
X154668000Y-132095958D01*
X154668000Y-131764042D01*
X154603246Y-131438504D01*
X154476228Y-131131853D01*
X154291825Y-130855875D01*
X154057125Y-130621175D01*
X153781147Y-130436772D01*
X153474496Y-130309754D01*
X153148958Y-130245000D01*
X152817042Y-130245000D01*
X152491504Y-130309754D01*
X152184853Y-130436772D01*
X151908875Y-130621175D01*
X151674175Y-130855875D01*
X151489772Y-131131853D01*
X151362754Y-131438504D01*
X151298000Y-131764042D01*
X149668000Y-131764042D01*
X149603246Y-131438504D01*
X149476228Y-131131853D01*
X149291825Y-130855875D01*
X149057125Y-130621175D01*
X148781147Y-130436772D01*
X148474496Y-130309754D01*
X148148958Y-130245000D01*
X147817042Y-130245000D01*
X147491504Y-130309754D01*
X147184853Y-130436772D01*
X146908875Y-130621175D01*
X146674175Y-130855875D01*
X146489772Y-131131853D01*
X146362754Y-131438504D01*
X146298000Y-131764042D01*
X121310000Y-131764042D01*
X121310000Y-120739838D01*
X121384149Y-120779472D01*
X121550745Y-120830008D01*
X121723999Y-120847072D01*
X122040034Y-120847072D01*
X123050996Y-121858034D01*
X122989001Y-121851928D01*
X122338999Y-121851928D01*
X122165745Y-121868992D01*
X121999149Y-121919528D01*
X121845613Y-122001595D01*
X121711038Y-122112038D01*
X121600595Y-122246613D01*
X121518528Y-122400149D01*
X121467992Y-122566745D01*
X121450928Y-122739999D01*
X121450928Y-123640001D01*
X121467992Y-123813255D01*
X121518528Y-123979851D01*
X121600595Y-124133387D01*
X121711038Y-124267962D01*
X121845613Y-124378405D01*
X121876600Y-124394968D01*
X121876601Y-128213327D01*
X121872792Y-128252000D01*
X121887995Y-128406357D01*
X121933018Y-128554782D01*
X121933019Y-128554783D01*
X121958100Y-128601706D01*
X121958100Y-128620315D01*
X121995680Y-128809243D01*
X122069396Y-128987210D01*
X122176415Y-129147375D01*
X122312625Y-129283585D01*
X122472790Y-129390604D01*
X122650757Y-129464320D01*
X122839685Y-129501900D01*
X123032315Y-129501900D01*
X123221243Y-129464320D01*
X123399210Y-129390604D01*
X123559375Y-129283585D01*
X123695585Y-129147375D01*
X123802604Y-128987210D01*
X123876320Y-128809243D01*
X123913900Y-128620315D01*
X123913900Y-128427685D01*
X123876320Y-128238757D01*
X123802604Y-128060790D01*
X123695585Y-127900625D01*
X123559375Y-127764415D01*
X123451400Y-127692268D01*
X123451400Y-124394968D01*
X123482387Y-124378405D01*
X123616962Y-124267962D01*
X123689000Y-124180184D01*
X123761038Y-124267962D01*
X123895613Y-124378405D01*
X123977312Y-124422074D01*
X123886595Y-124532613D01*
X123804528Y-124686149D01*
X123753992Y-124852745D01*
X123736928Y-125025999D01*
X123736928Y-125926001D01*
X123753992Y-126099255D01*
X123804528Y-126265851D01*
X123886595Y-126419387D01*
X123926601Y-126468134D01*
X123926600Y-126926253D01*
X123847396Y-127044790D01*
X123773680Y-127222757D01*
X123736100Y-127411685D01*
X123736100Y-127604315D01*
X123773680Y-127793243D01*
X123847396Y-127971210D01*
X123954415Y-128131375D01*
X124090625Y-128267585D01*
X124250790Y-128374604D01*
X124428757Y-128448320D01*
X124617685Y-128485900D01*
X124810315Y-128485900D01*
X124999243Y-128448320D01*
X125177210Y-128374604D01*
X125337375Y-128267585D01*
X125473585Y-128131375D01*
X125580604Y-127971210D01*
X125654320Y-127793243D01*
X125691900Y-127604315D01*
X125691900Y-127411685D01*
X125654320Y-127222757D01*
X125580604Y-127044790D01*
X125501400Y-126926253D01*
X125501400Y-126780887D01*
X125614851Y-126746472D01*
X125768387Y-126664405D01*
X125902962Y-126553962D01*
X125975000Y-126466184D01*
X126047038Y-126553962D01*
X126047501Y-126554342D01*
X126047501Y-127283986D01*
X126022100Y-127411685D01*
X126022100Y-127604315D01*
X126059680Y-127793243D01*
X126133396Y-127971210D01*
X126240415Y-128131375D01*
X126376625Y-128267585D01*
X126536790Y-128374604D01*
X126714757Y-128448320D01*
X126903685Y-128485900D01*
X127096315Y-128485900D01*
X127285243Y-128448320D01*
X127463210Y-128374604D01*
X127623375Y-128267585D01*
X127759585Y-128131375D01*
X127866604Y-127971210D01*
X127940320Y-127793243D01*
X127977900Y-127604315D01*
X127977900Y-127411685D01*
X127952500Y-127283990D01*
X127952500Y-126690912D01*
X140550500Y-126690912D01*
X140550500Y-127169088D01*
X140643787Y-127638076D01*
X140826777Y-128079853D01*
X141092437Y-128477441D01*
X141430559Y-128815563D01*
X141828147Y-129081223D01*
X142269924Y-129264213D01*
X142738912Y-129357500D01*
X143217088Y-129357500D01*
X143686076Y-129264213D01*
X144127853Y-129081223D01*
X144525441Y-128815563D01*
X144863563Y-128477441D01*
X145129223Y-128079853D01*
X145312213Y-127638076D01*
X145405500Y-127169088D01*
X145405500Y-126690912D01*
X155560500Y-126690912D01*
X155560500Y-127169088D01*
X155653787Y-127638076D01*
X155836777Y-128079853D01*
X156102437Y-128477441D01*
X156440559Y-128815563D01*
X156838147Y-129081223D01*
X157279924Y-129264213D01*
X157748912Y-129357500D01*
X158227088Y-129357500D01*
X158696076Y-129264213D01*
X159137853Y-129081223D01*
X159535441Y-128815563D01*
X159873563Y-128477441D01*
X160139223Y-128079853D01*
X160322213Y-127638076D01*
X160415500Y-127169088D01*
X160415500Y-126690912D01*
X160322213Y-126221924D01*
X160139223Y-125780147D01*
X159873563Y-125382559D01*
X159535441Y-125044437D01*
X159137853Y-124778777D01*
X158696076Y-124595787D01*
X158227088Y-124502500D01*
X157748912Y-124502500D01*
X157279924Y-124595787D01*
X156838147Y-124778777D01*
X156440559Y-125044437D01*
X156102437Y-125382559D01*
X155836777Y-125780147D01*
X155653787Y-126221924D01*
X155560500Y-126690912D01*
X145405500Y-126690912D01*
X145312213Y-126221924D01*
X145129223Y-125780147D01*
X144863563Y-125382559D01*
X144525441Y-125044437D01*
X144127853Y-124778777D01*
X143686076Y-124595787D01*
X143217088Y-124502500D01*
X142738912Y-124502500D01*
X142269924Y-124595787D01*
X141828147Y-124778777D01*
X141430559Y-125044437D01*
X141092437Y-125382559D01*
X140826777Y-125780147D01*
X140643787Y-126221924D01*
X140550500Y-126690912D01*
X127952500Y-126690912D01*
X127952500Y-126554341D01*
X127952962Y-126553962D01*
X128063405Y-126419387D01*
X128145472Y-126265851D01*
X128155905Y-126231459D01*
X128251778Y-126152778D01*
X128281607Y-126116431D01*
X129926431Y-124471607D01*
X129962778Y-124441778D01*
X130081806Y-124296741D01*
X130170252Y-124131269D01*
X130224717Y-123951723D01*
X130238500Y-123811785D01*
X130238500Y-123811784D01*
X130243108Y-123765001D01*
X130238500Y-123718216D01*
X130238500Y-121754042D01*
X141293000Y-121754042D01*
X141293000Y-122085958D01*
X141357754Y-122411496D01*
X141484772Y-122718147D01*
X141669175Y-122994125D01*
X141903875Y-123228825D01*
X142179853Y-123413228D01*
X142486504Y-123540246D01*
X142812042Y-123605000D01*
X143143958Y-123605000D01*
X143469496Y-123540246D01*
X143776147Y-123413228D01*
X144052125Y-123228825D01*
X144286825Y-122994125D01*
X144471228Y-122718147D01*
X144598246Y-122411496D01*
X144663000Y-122085958D01*
X144663000Y-121754042D01*
X144598246Y-121428504D01*
X144471228Y-121121853D01*
X144286825Y-120845875D01*
X144052125Y-120611175D01*
X143776147Y-120426772D01*
X143469496Y-120299754D01*
X143143958Y-120235000D01*
X142812042Y-120235000D01*
X142486504Y-120299754D01*
X142179853Y-120426772D01*
X141903875Y-120611175D01*
X141669175Y-120845875D01*
X141484772Y-121121853D01*
X141357754Y-121428504D01*
X141293000Y-121754042D01*
X130238500Y-121754042D01*
X130238500Y-121204785D01*
X130243108Y-121158000D01*
X130224717Y-120971278D01*
X130222585Y-120964248D01*
X130187040Y-120847072D01*
X130170252Y-120791730D01*
X130081809Y-120626265D01*
X130081806Y-120626259D01*
X129962778Y-120481222D01*
X129926436Y-120451397D01*
X129840349Y-120365310D01*
X133312670Y-116553147D01*
X135864638Y-116553147D01*
X135864638Y-116745777D01*
X135902218Y-116934705D01*
X135975934Y-117112672D01*
X136082953Y-117272837D01*
X136219163Y-117409047D01*
X136379328Y-117516066D01*
X136557295Y-117589782D01*
X136746223Y-117627362D01*
X136938853Y-117627362D01*
X137127781Y-117589782D01*
X137305748Y-117516066D01*
X137465913Y-117409047D01*
X137602123Y-117272837D01*
X137709142Y-117112672D01*
X137782858Y-116934705D01*
X137820438Y-116745777D01*
X137820438Y-116553147D01*
X137782858Y-116364219D01*
X137709142Y-116186252D01*
X137602123Y-116026087D01*
X137465913Y-115889877D01*
X137305748Y-115782858D01*
X137127781Y-115709142D01*
X136938853Y-115671562D01*
X136746223Y-115671562D01*
X136557295Y-115709142D01*
X136379328Y-115782858D01*
X136219163Y-115889877D01*
X136082953Y-116026087D01*
X135975934Y-116186252D01*
X135902218Y-116364219D01*
X135864638Y-116553147D01*
X133312670Y-116553147D01*
X133687558Y-116141569D01*
X133706679Y-116125877D01*
X133750614Y-116072341D01*
X133765579Y-116055912D01*
X133780269Y-116036207D01*
X133825707Y-115980840D01*
X133836254Y-115961108D01*
X133849622Y-115943176D01*
X133880288Y-115878750D01*
X135198722Y-114560316D01*
X135203680Y-114585243D01*
X135277396Y-114763210D01*
X135384415Y-114923375D01*
X135520625Y-115059585D01*
X135680790Y-115166604D01*
X135858757Y-115240320D01*
X136047685Y-115277900D01*
X136240315Y-115277900D01*
X136429243Y-115240320D01*
X136607210Y-115166604D01*
X136767375Y-115059585D01*
X136903585Y-114923375D01*
X137010604Y-114763210D01*
X137084320Y-114585243D01*
X137121900Y-114396315D01*
X137121900Y-114203685D01*
X137084320Y-114014757D01*
X137010604Y-113836790D01*
X136903585Y-113676625D01*
X136848077Y-113621117D01*
X138219000Y-113621117D01*
X138219000Y-113962883D01*
X138285675Y-114298081D01*
X138416463Y-114613831D01*
X138606337Y-114897998D01*
X138848002Y-115139663D01*
X139132169Y-115329537D01*
X139447919Y-115460325D01*
X139783117Y-115527000D01*
X140124883Y-115527000D01*
X140460081Y-115460325D01*
X140775831Y-115329537D01*
X141059998Y-115139663D01*
X141301663Y-114897998D01*
X141491537Y-114613831D01*
X141622325Y-114298081D01*
X141689000Y-113962883D01*
X141689000Y-113621117D01*
X141622325Y-113285919D01*
X141491537Y-112970169D01*
X141301663Y-112686002D01*
X141059998Y-112444337D01*
X140775831Y-112254463D01*
X140460081Y-112123675D01*
X140124883Y-112057000D01*
X139783117Y-112057000D01*
X139447919Y-112123675D01*
X139132169Y-112254463D01*
X138848002Y-112444337D01*
X138606337Y-112686002D01*
X138416463Y-112970169D01*
X138285675Y-113285919D01*
X138219000Y-113621117D01*
X136848077Y-113621117D01*
X136767375Y-113540415D01*
X136607210Y-113433396D01*
X136429243Y-113359680D01*
X136404316Y-113354722D01*
X138308431Y-111450607D01*
X138344778Y-111420778D01*
X138463806Y-111275741D01*
X138552252Y-111110269D01*
X138606717Y-110930723D01*
X138620500Y-110790785D01*
X138620500Y-110790784D01*
X138625108Y-110744000D01*
X138620500Y-110697215D01*
X138620500Y-108590951D01*
X138623463Y-108596494D01*
X138702815Y-108693185D01*
X138799506Y-108772537D01*
X138909820Y-108831502D01*
X139029518Y-108867812D01*
X139154000Y-108880072D01*
X140754000Y-108880072D01*
X140878482Y-108867812D01*
X140998180Y-108831502D01*
X141108494Y-108772537D01*
X141205185Y-108693185D01*
X141284537Y-108596494D01*
X141343502Y-108486180D01*
X141379812Y-108366482D01*
X141380643Y-108358039D01*
X141579241Y-108556637D01*
X141814273Y-108713680D01*
X142075426Y-108821853D01*
X142352665Y-108877000D01*
X142635335Y-108877000D01*
X142912574Y-108821853D01*
X143173727Y-108713680D01*
X143408759Y-108556637D01*
X143608637Y-108356759D01*
X143738601Y-108162254D01*
X143738600Y-110814264D01*
X143611241Y-110899363D01*
X143411363Y-111099241D01*
X143254320Y-111334273D01*
X143146147Y-111595426D01*
X143091000Y-111872665D01*
X143091000Y-112155335D01*
X143146147Y-112432574D01*
X143254320Y-112693727D01*
X143411363Y-112928759D01*
X143611241Y-113128637D01*
X143738600Y-113213735D01*
X143738601Y-118439327D01*
X143734792Y-118478000D01*
X143749995Y-118632357D01*
X143795018Y-118780782D01*
X143813636Y-118815613D01*
X143867171Y-118915769D01*
X143857754Y-118938504D01*
X143793000Y-119264042D01*
X143793000Y-119595958D01*
X143857754Y-119921496D01*
X143984772Y-120228147D01*
X144169175Y-120504125D01*
X144403875Y-120738825D01*
X144679853Y-120923228D01*
X144986504Y-121050246D01*
X145312042Y-121115000D01*
X145643958Y-121115000D01*
X145969496Y-121050246D01*
X146276147Y-120923228D01*
X146552125Y-120738825D01*
X146786825Y-120504125D01*
X146971228Y-120228147D01*
X147098246Y-119921496D01*
X147163000Y-119595958D01*
X147163000Y-119264042D01*
X147098246Y-118938504D01*
X146971228Y-118631853D01*
X146786825Y-118355875D01*
X146552125Y-118121175D01*
X146276147Y-117936772D01*
X145969496Y-117809754D01*
X145643958Y-117745000D01*
X145313400Y-117745000D01*
X145313400Y-116524000D01*
X147358928Y-116524000D01*
X147371188Y-116648482D01*
X147407498Y-116768180D01*
X147466463Y-116878494D01*
X147545815Y-116975185D01*
X147642506Y-117054537D01*
X147752820Y-117113502D01*
X147872518Y-117149812D01*
X147997000Y-117162072D01*
X148286250Y-117159000D01*
X148445000Y-117000250D01*
X148445000Y-115951000D01*
X147520750Y-115951000D01*
X147362000Y-116109750D01*
X147358928Y-116524000D01*
X145313400Y-116524000D01*
X145313400Y-115124000D01*
X147358928Y-115124000D01*
X147362000Y-115538250D01*
X147520750Y-115697000D01*
X148445000Y-115697000D01*
X148445000Y-114647750D01*
X148699000Y-114647750D01*
X148699000Y-115697000D01*
X148719000Y-115697000D01*
X148719000Y-115951000D01*
X148699000Y-115951000D01*
X148699000Y-117000250D01*
X148857750Y-117159000D01*
X149147000Y-117162072D01*
X149271482Y-117149812D01*
X149391180Y-117113502D01*
X149501494Y-117054537D01*
X149598185Y-116975185D01*
X149663658Y-116895406D01*
X149669038Y-116901962D01*
X149803613Y-117012405D01*
X149834600Y-117028968D01*
X149834601Y-120364745D01*
X149684853Y-120426772D01*
X149408875Y-120611175D01*
X149174175Y-120845875D01*
X148989772Y-121121853D01*
X148862754Y-121428504D01*
X148798000Y-121754042D01*
X148798000Y-122085958D01*
X148862754Y-122411496D01*
X148989772Y-122718147D01*
X149174175Y-122994125D01*
X149408875Y-123228825D01*
X149684853Y-123413228D01*
X149991504Y-123540246D01*
X150317042Y-123605000D01*
X150648958Y-123605000D01*
X150974496Y-123540246D01*
X151281147Y-123413228D01*
X151557125Y-123228825D01*
X151791825Y-122994125D01*
X151976228Y-122718147D01*
X152103246Y-122411496D01*
X152168000Y-122085958D01*
X152168000Y-121754042D01*
X156303000Y-121754042D01*
X156303000Y-122085958D01*
X156367754Y-122411496D01*
X156494772Y-122718147D01*
X156679175Y-122994125D01*
X156913875Y-123228825D01*
X157189853Y-123413228D01*
X157496504Y-123540246D01*
X157822042Y-123605000D01*
X158153958Y-123605000D01*
X158479496Y-123540246D01*
X158786147Y-123413228D01*
X159062125Y-123228825D01*
X159296825Y-122994125D01*
X159481228Y-122718147D01*
X159608246Y-122411496D01*
X159673000Y-122085958D01*
X159673000Y-121754042D01*
X159608246Y-121428504D01*
X159481228Y-121121853D01*
X159296825Y-120845875D01*
X159062125Y-120611175D01*
X158786147Y-120426772D01*
X158479496Y-120299754D01*
X158153958Y-120235000D01*
X157822042Y-120235000D01*
X157496504Y-120299754D01*
X157189853Y-120426772D01*
X156913875Y-120611175D01*
X156679175Y-120845875D01*
X156494772Y-121121853D01*
X156367754Y-121428504D01*
X156303000Y-121754042D01*
X152168000Y-121754042D01*
X152103246Y-121428504D01*
X151976228Y-121121853D01*
X151791825Y-120845875D01*
X151557125Y-120611175D01*
X151409400Y-120512468D01*
X151409400Y-119264042D01*
X153803000Y-119264042D01*
X153803000Y-119595958D01*
X153867754Y-119921496D01*
X153994772Y-120228147D01*
X154179175Y-120504125D01*
X154413875Y-120738825D01*
X154689853Y-120923228D01*
X154996504Y-121050246D01*
X155322042Y-121115000D01*
X155653958Y-121115000D01*
X155979496Y-121050246D01*
X156286147Y-120923228D01*
X156562125Y-120738825D01*
X156796825Y-120504125D01*
X156981228Y-120228147D01*
X157108246Y-119921496D01*
X157173000Y-119595958D01*
X157173000Y-119264042D01*
X157108246Y-118938504D01*
X156981228Y-118631853D01*
X156796825Y-118355875D01*
X156562125Y-118121175D01*
X156286147Y-117936772D01*
X155979496Y-117809754D01*
X155653958Y-117745000D01*
X155322042Y-117745000D01*
X154996504Y-117809754D01*
X154689853Y-117936772D01*
X154413875Y-118121175D01*
X154179175Y-118355875D01*
X153994772Y-118631853D01*
X153867754Y-118938504D01*
X153803000Y-119264042D01*
X151409400Y-119264042D01*
X151409400Y-117028968D01*
X151440387Y-117012405D01*
X151574962Y-116901962D01*
X151685405Y-116767387D01*
X151767472Y-116613851D01*
X151818008Y-116447255D01*
X151835072Y-116274001D01*
X151835072Y-115373999D01*
X151818008Y-115200745D01*
X151767472Y-115034149D01*
X151685405Y-114880613D01*
X151574962Y-114746038D01*
X151440387Y-114635595D01*
X151286851Y-114553528D01*
X151120255Y-114502992D01*
X150947001Y-114485928D01*
X150296999Y-114485928D01*
X150123745Y-114502992D01*
X149957149Y-114553528D01*
X149803613Y-114635595D01*
X149669038Y-114746038D01*
X149663658Y-114752594D01*
X149598185Y-114672815D01*
X149501494Y-114593463D01*
X149391180Y-114534498D01*
X149271482Y-114498188D01*
X149147000Y-114485928D01*
X148857750Y-114489000D01*
X148699000Y-114647750D01*
X148445000Y-114647750D01*
X148286250Y-114489000D01*
X147997000Y-114485928D01*
X147872518Y-114498188D01*
X147752820Y-114534498D01*
X147642506Y-114593463D01*
X147545815Y-114672815D01*
X147466463Y-114769506D01*
X147407498Y-114879820D01*
X147371188Y-114999518D01*
X147358928Y-115124000D01*
X145313400Y-115124000D01*
X145313400Y-113621117D01*
X158793000Y-113621117D01*
X158793000Y-113962883D01*
X158859675Y-114298081D01*
X158990463Y-114613831D01*
X159180337Y-114897998D01*
X159422002Y-115139663D01*
X159706169Y-115329537D01*
X160021919Y-115460325D01*
X160357117Y-115527000D01*
X160698883Y-115527000D01*
X161034081Y-115460325D01*
X161349831Y-115329537D01*
X161633998Y-115139663D01*
X161875663Y-114897998D01*
X162065537Y-114613831D01*
X162196325Y-114298081D01*
X162263000Y-113962883D01*
X162263000Y-113621117D01*
X162196325Y-113285919D01*
X162065537Y-112970169D01*
X161875663Y-112686002D01*
X161633998Y-112444337D01*
X161349831Y-112254463D01*
X161034081Y-112123675D01*
X160698883Y-112057000D01*
X160357117Y-112057000D01*
X160021919Y-112123675D01*
X159706169Y-112254463D01*
X159422002Y-112444337D01*
X159180337Y-112686002D01*
X158990463Y-112970169D01*
X158859675Y-113285919D01*
X158793000Y-113621117D01*
X145313400Y-113621117D01*
X145313400Y-113213735D01*
X145440759Y-113128637D01*
X145640637Y-112928759D01*
X145797680Y-112693727D01*
X145905853Y-112432574D01*
X145961000Y-112155335D01*
X145961000Y-111872665D01*
X145905853Y-111595426D01*
X145797680Y-111334273D01*
X145717317Y-111214000D01*
X150707928Y-111214000D01*
X150707928Y-112814000D01*
X150720188Y-112938482D01*
X150756498Y-113058180D01*
X150815463Y-113168494D01*
X150894815Y-113265185D01*
X150991506Y-113344537D01*
X151101820Y-113403502D01*
X151221518Y-113439812D01*
X151346000Y-113452072D01*
X152946000Y-113452072D01*
X153070482Y-113439812D01*
X153190180Y-113403502D01*
X153300494Y-113344537D01*
X153397185Y-113265185D01*
X153476537Y-113168494D01*
X153535502Y-113058180D01*
X153571812Y-112938482D01*
X153584072Y-112814000D01*
X153584072Y-111214000D01*
X153571812Y-111089518D01*
X153535502Y-110969820D01*
X153476537Y-110859506D01*
X153397185Y-110762815D01*
X153300494Y-110683463D01*
X153190180Y-110624498D01*
X153070482Y-110588188D01*
X152946000Y-110575928D01*
X151346000Y-110575928D01*
X151221518Y-110588188D01*
X151101820Y-110624498D01*
X150991506Y-110683463D01*
X150894815Y-110762815D01*
X150815463Y-110859506D01*
X150756498Y-110969820D01*
X150720188Y-111089518D01*
X150707928Y-111214000D01*
X145717317Y-111214000D01*
X145640637Y-111099241D01*
X145440759Y-110899363D01*
X145313400Y-110814265D01*
X145313400Y-108849537D01*
X145452574Y-108821853D01*
X145713727Y-108713680D01*
X145948759Y-108556637D01*
X146148637Y-108356759D01*
X146304000Y-108124241D01*
X146459363Y-108356759D01*
X146659241Y-108556637D01*
X146894273Y-108713680D01*
X147155426Y-108821853D01*
X147432665Y-108877000D01*
X147715335Y-108877000D01*
X147992574Y-108821853D01*
X148253727Y-108713680D01*
X148488759Y-108556637D01*
X148688637Y-108356759D01*
X148845680Y-108121727D01*
X148953853Y-107860574D01*
X149009000Y-107583335D01*
X149009000Y-107300665D01*
X148953853Y-107023426D01*
X148845680Y-106762273D01*
X148838521Y-106751559D01*
X151693393Y-109606431D01*
X151723222Y-109642778D01*
X151868259Y-109761806D01*
X152033731Y-109850252D01*
X152202161Y-109901345D01*
X152213277Y-109904717D01*
X152399999Y-109923108D01*
X152446784Y-109918500D01*
X158195215Y-109918500D01*
X158242000Y-109923108D01*
X158288785Y-109918500D01*
X158428723Y-109904717D01*
X158608269Y-109850252D01*
X158773741Y-109761806D01*
X158918778Y-109642778D01*
X158948607Y-109606431D01*
X161152039Y-107403000D01*
X161436260Y-107403000D01*
X161723158Y-107345932D01*
X161993411Y-107233990D01*
X162236632Y-107071475D01*
X162443475Y-106864632D01*
X162605990Y-106621411D01*
X162717932Y-106351158D01*
X162775000Y-106064260D01*
X162775000Y-105771740D01*
X162717932Y-105484842D01*
X162605990Y-105214589D01*
X162443475Y-104971368D01*
X162236632Y-104764525D01*
X162062240Y-104648000D01*
X162236632Y-104531475D01*
X162443475Y-104324632D01*
X162605990Y-104081411D01*
X162717932Y-103811158D01*
X162775000Y-103524260D01*
X162775000Y-103231740D01*
X162717932Y-102944842D01*
X162605990Y-102674589D01*
X162443475Y-102431368D01*
X162236632Y-102224525D01*
X162062240Y-102108000D01*
X162236632Y-101991475D01*
X162443475Y-101784632D01*
X162605990Y-101541411D01*
X162717932Y-101271158D01*
X162775000Y-100984260D01*
X162775000Y-100691740D01*
X162717932Y-100404842D01*
X162605990Y-100134589D01*
X162443475Y-99891368D01*
X162236632Y-99684525D01*
X162062240Y-99568000D01*
X162236632Y-99451475D01*
X162443475Y-99244632D01*
X162605990Y-99001411D01*
X162717932Y-98731158D01*
X162775000Y-98444260D01*
X162775000Y-98151740D01*
X162717932Y-97864842D01*
X162605990Y-97594589D01*
X162443475Y-97351368D01*
X162236632Y-97144525D01*
X162054466Y-97022805D01*
X162171355Y-96953178D01*
X162387588Y-96758269D01*
X162561641Y-96524920D01*
X162686825Y-96262099D01*
X162731476Y-96114890D01*
X162610155Y-95885000D01*
X161417000Y-95885000D01*
X161417000Y-95905000D01*
X161163000Y-95905000D01*
X161163000Y-95885000D01*
X161143000Y-95885000D01*
X161143000Y-95631000D01*
X161163000Y-95631000D01*
X161163000Y-93345000D01*
X161417000Y-93345000D01*
X161417000Y-95631000D01*
X162610155Y-95631000D01*
X162731476Y-95401110D01*
X162686825Y-95253901D01*
X162561641Y-94991080D01*
X162387588Y-94757731D01*
X162303534Y-94681966D01*
X162384180Y-94657502D01*
X162494494Y-94598537D01*
X162591185Y-94519185D01*
X162670537Y-94422494D01*
X162729502Y-94312180D01*
X162765812Y-94192482D01*
X162778072Y-94068000D01*
X162775000Y-93503750D01*
X162616250Y-93345000D01*
X161417000Y-93345000D01*
X161163000Y-93345000D01*
X159963750Y-93345000D01*
X159805000Y-93503750D01*
X159801928Y-94068000D01*
X159814188Y-94192482D01*
X159850498Y-94312180D01*
X159909463Y-94422494D01*
X159988815Y-94519185D01*
X160085506Y-94598537D01*
X160195820Y-94657502D01*
X160276466Y-94681966D01*
X160192412Y-94757731D01*
X160018359Y-94991080D01*
X159893175Y-95253901D01*
X159848524Y-95401110D01*
X159969844Y-95630998D01*
X159805000Y-95630998D01*
X159805000Y-95699450D01*
X159791400Y-95685850D01*
X159791400Y-92368000D01*
X159801928Y-92368000D01*
X159805000Y-92932250D01*
X159963750Y-93091000D01*
X161163000Y-93091000D01*
X161163000Y-91891750D01*
X161417000Y-91891750D01*
X161417000Y-93091000D01*
X162616250Y-93091000D01*
X162775000Y-92932250D01*
X162778072Y-92368000D01*
X162765812Y-92243518D01*
X162729502Y-92123820D01*
X162670537Y-92013506D01*
X162591185Y-91916815D01*
X162494494Y-91837463D01*
X162384180Y-91778498D01*
X162264482Y-91742188D01*
X162140000Y-91729928D01*
X161575750Y-91733000D01*
X161417000Y-91891750D01*
X161163000Y-91891750D01*
X161004250Y-91733000D01*
X160440000Y-91729928D01*
X160315518Y-91742188D01*
X160195820Y-91778498D01*
X160085506Y-91837463D01*
X159988815Y-91916815D01*
X159909463Y-92013506D01*
X159850498Y-92123820D01*
X159814188Y-92243518D01*
X159801928Y-92368000D01*
X159791400Y-92368000D01*
X159791400Y-81572662D01*
X159795208Y-81533999D01*
X159791400Y-81495336D01*
X159791400Y-81495327D01*
X159780006Y-81379643D01*
X159734982Y-81231217D01*
X159661866Y-81094428D01*
X159620302Y-81043782D01*
X159588121Y-81004569D01*
X159588119Y-81004567D01*
X159563469Y-80974531D01*
X159533434Y-80949882D01*
X159438669Y-80855117D01*
X160317000Y-80855117D01*
X160317000Y-81196883D01*
X160383675Y-81532081D01*
X160514463Y-81847831D01*
X160704337Y-82131998D01*
X160946002Y-82373663D01*
X161230169Y-82563537D01*
X161545919Y-82694325D01*
X161881117Y-82761000D01*
X162222883Y-82761000D01*
X162558081Y-82694325D01*
X162873831Y-82563537D01*
X163157998Y-82373663D01*
X163399663Y-82131998D01*
X163589537Y-81847831D01*
X163720325Y-81532081D01*
X163787000Y-81196883D01*
X163787000Y-80855117D01*
X163720325Y-80519919D01*
X163589537Y-80204169D01*
X163399663Y-79920002D01*
X163157998Y-79678337D01*
X162873831Y-79488463D01*
X162558081Y-79357675D01*
X162222883Y-79291000D01*
X161881117Y-79291000D01*
X161545919Y-79357675D01*
X161230169Y-79488463D01*
X160946002Y-79678337D01*
X160704337Y-79920002D01*
X160514463Y-80204169D01*
X160383675Y-80519919D01*
X160317000Y-80855117D01*
X159438669Y-80855117D01*
X153622133Y-75038583D01*
X153594320Y-74898757D01*
X153520604Y-74720790D01*
X153413585Y-74560625D01*
X153277375Y-74424415D01*
X153121107Y-74320000D01*
X162527721Y-74320000D01*
X162924545Y-74358909D01*
G37*
X162924545Y-74358909D02*
X163275208Y-74464780D01*
X163598625Y-74636744D01*
X163882484Y-74868254D01*
X164115965Y-75150486D01*
X164290183Y-75472695D01*
X164398502Y-75822614D01*
X164440000Y-76217443D01*
X164440001Y-132047711D01*
X164401091Y-132444545D01*
X164295220Y-132795206D01*
X164123257Y-133118623D01*
X163891748Y-133402482D01*
X163609514Y-133635965D01*
X163287304Y-133810184D01*
X162937385Y-133918502D01*
X162542557Y-133960000D01*
X123222279Y-133960000D01*
X122825455Y-133921091D01*
X122474794Y-133815220D01*
X122151377Y-133643257D01*
X121867518Y-133411748D01*
X121634035Y-133129514D01*
X121459816Y-132807304D01*
X121351498Y-132457385D01*
X121310000Y-132062557D01*
X121310000Y-131764042D01*
X146298000Y-131764042D01*
X146298000Y-132095958D01*
X146362754Y-132421496D01*
X146489772Y-132728147D01*
X146674175Y-133004125D01*
X146908875Y-133238825D01*
X147184853Y-133423228D01*
X147491504Y-133550246D01*
X147817042Y-133615000D01*
X148148958Y-133615000D01*
X148474496Y-133550246D01*
X148781147Y-133423228D01*
X149057125Y-133238825D01*
X149291825Y-133004125D01*
X149476228Y-132728147D01*
X149603246Y-132421496D01*
X149668000Y-132095958D01*
X149668000Y-131764042D01*
X151298000Y-131764042D01*
X151298000Y-132095958D01*
X151362754Y-132421496D01*
X151489772Y-132728147D01*
X151674175Y-133004125D01*
X151908875Y-133238825D01*
X152184853Y-133423228D01*
X152491504Y-133550246D01*
X152817042Y-133615000D01*
X153148958Y-133615000D01*
X153474496Y-133550246D01*
X153781147Y-133423228D01*
X154057125Y-133238825D01*
X154291825Y-133004125D01*
X154476228Y-132728147D01*
X154603246Y-132421496D01*
X154668000Y-132095958D01*
X154668000Y-131764042D01*
X154603246Y-131438504D01*
X154476228Y-131131853D01*
X154291825Y-130855875D01*
X154057125Y-130621175D01*
X153781147Y-130436772D01*
X153474496Y-130309754D01*
X153148958Y-130245000D01*
X152817042Y-130245000D01*
X152491504Y-130309754D01*
X152184853Y-130436772D01*
X151908875Y-130621175D01*
X151674175Y-130855875D01*
X151489772Y-131131853D01*
X151362754Y-131438504D01*
X151298000Y-131764042D01*
X149668000Y-131764042D01*
X149603246Y-131438504D01*
X149476228Y-131131853D01*
X149291825Y-130855875D01*
X149057125Y-130621175D01*
X148781147Y-130436772D01*
X148474496Y-130309754D01*
X148148958Y-130245000D01*
X147817042Y-130245000D01*
X147491504Y-130309754D01*
X147184853Y-130436772D01*
X146908875Y-130621175D01*
X146674175Y-130855875D01*
X146489772Y-131131853D01*
X146362754Y-131438504D01*
X146298000Y-131764042D01*
X121310000Y-131764042D01*
X121310000Y-120739838D01*
X121384149Y-120779472D01*
X121550745Y-120830008D01*
X121723999Y-120847072D01*
X122040034Y-120847072D01*
X123050996Y-121858034D01*
X122989001Y-121851928D01*
X122338999Y-121851928D01*
X122165745Y-121868992D01*
X121999149Y-121919528D01*
X121845613Y-122001595D01*
X121711038Y-122112038D01*
X121600595Y-122246613D01*
X121518528Y-122400149D01*
X121467992Y-122566745D01*
X121450928Y-122739999D01*
X121450928Y-123640001D01*
X121467992Y-123813255D01*
X121518528Y-123979851D01*
X121600595Y-124133387D01*
X121711038Y-124267962D01*
X121845613Y-124378405D01*
X121876600Y-124394968D01*
X121876601Y-128213327D01*
X121872792Y-128252000D01*
X121887995Y-128406357D01*
X121933018Y-128554782D01*
X121933019Y-128554783D01*
X121958100Y-128601706D01*
X121958100Y-128620315D01*
X121995680Y-128809243D01*
X122069396Y-128987210D01*
X122176415Y-129147375D01*
X122312625Y-129283585D01*
X122472790Y-129390604D01*
X122650757Y-129464320D01*
X122839685Y-129501900D01*
X123032315Y-129501900D01*
X123221243Y-129464320D01*
X123399210Y-129390604D01*
X123559375Y-129283585D01*
X123695585Y-129147375D01*
X123802604Y-128987210D01*
X123876320Y-128809243D01*
X123913900Y-128620315D01*
X123913900Y-128427685D01*
X123876320Y-128238757D01*
X123802604Y-128060790D01*
X123695585Y-127900625D01*
X123559375Y-127764415D01*
X123451400Y-127692268D01*
X123451400Y-124394968D01*
X123482387Y-124378405D01*
X123616962Y-124267962D01*
X123689000Y-124180184D01*
X123761038Y-124267962D01*
X123895613Y-124378405D01*
X123977312Y-124422074D01*
X123886595Y-124532613D01*
X123804528Y-124686149D01*
X123753992Y-124852745D01*
X123736928Y-125025999D01*
X123736928Y-125926001D01*
X123753992Y-126099255D01*
X123804528Y-126265851D01*
X123886595Y-126419387D01*
X123926601Y-126468134D01*
X123926600Y-126926253D01*
X123847396Y-127044790D01*
X123773680Y-127222757D01*
X123736100Y-127411685D01*
X123736100Y-127604315D01*
X123773680Y-127793243D01*
X123847396Y-127971210D01*
X123954415Y-128131375D01*
X124090625Y-128267585D01*
X124250790Y-128374604D01*
X124428757Y-128448320D01*
X124617685Y-128485900D01*
X124810315Y-128485900D01*
X124999243Y-128448320D01*
X125177210Y-128374604D01*
X125337375Y-128267585D01*
X125473585Y-128131375D01*
X125580604Y-127971210D01*
X125654320Y-127793243D01*
X125691900Y-127604315D01*
X125691900Y-127411685D01*
X125654320Y-127222757D01*
X125580604Y-127044790D01*
X125501400Y-126926253D01*
X125501400Y-126780887D01*
X125614851Y-126746472D01*
X125768387Y-126664405D01*
X125902962Y-126553962D01*
X125975000Y-126466184D01*
X126047038Y-126553962D01*
X126047501Y-126554342D01*
X126047501Y-127283986D01*
X126022100Y-127411685D01*
X126022100Y-127604315D01*
X126059680Y-127793243D01*
X126133396Y-127971210D01*
X126240415Y-128131375D01*
X126376625Y-128267585D01*
X126536790Y-128374604D01*
X126714757Y-128448320D01*
X126903685Y-128485900D01*
X127096315Y-128485900D01*
X127285243Y-128448320D01*
X127463210Y-128374604D01*
X127623375Y-128267585D01*
X127759585Y-128131375D01*
X127866604Y-127971210D01*
X127940320Y-127793243D01*
X127977900Y-127604315D01*
X127977900Y-127411685D01*
X127952500Y-127283990D01*
X127952500Y-126690912D01*
X140550500Y-126690912D01*
X140550500Y-127169088D01*
X140643787Y-127638076D01*
X140826777Y-128079853D01*
X141092437Y-128477441D01*
X141430559Y-128815563D01*
X141828147Y-129081223D01*
X142269924Y-129264213D01*
X142738912Y-129357500D01*
X143217088Y-129357500D01*
X143686076Y-129264213D01*
X144127853Y-129081223D01*
X144525441Y-128815563D01*
X144863563Y-128477441D01*
X145129223Y-128079853D01*
X145312213Y-127638076D01*
X145405500Y-127169088D01*
X145405500Y-126690912D01*
X155560500Y-126690912D01*
X155560500Y-127169088D01*
X155653787Y-127638076D01*
X155836777Y-128079853D01*
X156102437Y-128477441D01*
X156440559Y-128815563D01*
X156838147Y-129081223D01*
X157279924Y-129264213D01*
X157748912Y-129357500D01*
X158227088Y-129357500D01*
X158696076Y-129264213D01*
X159137853Y-129081223D01*
X159535441Y-128815563D01*
X159873563Y-128477441D01*
X160139223Y-128079853D01*
X160322213Y-127638076D01*
X160415500Y-127169088D01*
X160415500Y-126690912D01*
X160322213Y-126221924D01*
X160139223Y-125780147D01*
X159873563Y-125382559D01*
X159535441Y-125044437D01*
X159137853Y-124778777D01*
X158696076Y-124595787D01*
X158227088Y-124502500D01*
X157748912Y-124502500D01*
X157279924Y-124595787D01*
X156838147Y-124778777D01*
X156440559Y-125044437D01*
X156102437Y-125382559D01*
X155836777Y-125780147D01*
X155653787Y-126221924D01*
X155560500Y-126690912D01*
X145405500Y-126690912D01*
X145312213Y-126221924D01*
X145129223Y-125780147D01*
X144863563Y-125382559D01*
X144525441Y-125044437D01*
X144127853Y-124778777D01*
X143686076Y-124595787D01*
X143217088Y-124502500D01*
X142738912Y-124502500D01*
X142269924Y-124595787D01*
X141828147Y-124778777D01*
X141430559Y-125044437D01*
X141092437Y-125382559D01*
X140826777Y-125780147D01*
X140643787Y-126221924D01*
X140550500Y-126690912D01*
X127952500Y-126690912D01*
X127952500Y-126554341D01*
X127952962Y-126553962D01*
X128063405Y-126419387D01*
X128145472Y-126265851D01*
X128155905Y-126231459D01*
X128251778Y-126152778D01*
X128281607Y-126116431D01*
X129926431Y-124471607D01*
X129962778Y-124441778D01*
X130081806Y-124296741D01*
X130170252Y-124131269D01*
X130224717Y-123951723D01*
X130238500Y-123811785D01*
X130238500Y-123811784D01*
X130243108Y-123765001D01*
X130238500Y-123718216D01*
X130238500Y-121754042D01*
X141293000Y-121754042D01*
X141293000Y-122085958D01*
X141357754Y-122411496D01*
X141484772Y-122718147D01*
X141669175Y-122994125D01*
X141903875Y-123228825D01*
X142179853Y-123413228D01*
X142486504Y-123540246D01*
X142812042Y-123605000D01*
X143143958Y-123605000D01*
X143469496Y-123540246D01*
X143776147Y-123413228D01*
X144052125Y-123228825D01*
X144286825Y-122994125D01*
X144471228Y-122718147D01*
X144598246Y-122411496D01*
X144663000Y-122085958D01*
X144663000Y-121754042D01*
X144598246Y-121428504D01*
X144471228Y-121121853D01*
X144286825Y-120845875D01*
X144052125Y-120611175D01*
X143776147Y-120426772D01*
X143469496Y-120299754D01*
X143143958Y-120235000D01*
X142812042Y-120235000D01*
X142486504Y-120299754D01*
X142179853Y-120426772D01*
X141903875Y-120611175D01*
X141669175Y-120845875D01*
X141484772Y-121121853D01*
X141357754Y-121428504D01*
X141293000Y-121754042D01*
X130238500Y-121754042D01*
X130238500Y-121204785D01*
X130243108Y-121158000D01*
X130224717Y-120971278D01*
X130222585Y-120964248D01*
X130187040Y-120847072D01*
X130170252Y-120791730D01*
X130081809Y-120626265D01*
X130081806Y-120626259D01*
X129962778Y-120481222D01*
X129926436Y-120451397D01*
X129840349Y-120365310D01*
X133312670Y-116553147D01*
X135864638Y-116553147D01*
X135864638Y-116745777D01*
X135902218Y-116934705D01*
X135975934Y-117112672D01*
X136082953Y-117272837D01*
X136219163Y-117409047D01*
X136379328Y-117516066D01*
X136557295Y-117589782D01*
X136746223Y-117627362D01*
X136938853Y-117627362D01*
X137127781Y-117589782D01*
X137305748Y-117516066D01*
X137465913Y-117409047D01*
X137602123Y-117272837D01*
X137709142Y-117112672D01*
X137782858Y-116934705D01*
X137820438Y-116745777D01*
X137820438Y-116553147D01*
X137782858Y-116364219D01*
X137709142Y-116186252D01*
X137602123Y-116026087D01*
X137465913Y-115889877D01*
X137305748Y-115782858D01*
X137127781Y-115709142D01*
X136938853Y-115671562D01*
X136746223Y-115671562D01*
X136557295Y-115709142D01*
X136379328Y-115782858D01*
X136219163Y-115889877D01*
X136082953Y-116026087D01*
X135975934Y-116186252D01*
X135902218Y-116364219D01*
X135864638Y-116553147D01*
X133312670Y-116553147D01*
X133687558Y-116141569D01*
X133706679Y-116125877D01*
X133750614Y-116072341D01*
X133765579Y-116055912D01*
X133780269Y-116036207D01*
X133825707Y-115980840D01*
X133836254Y-115961108D01*
X133849622Y-115943176D01*
X133880288Y-115878750D01*
X135198722Y-114560316D01*
X135203680Y-114585243D01*
X135277396Y-114763210D01*
X135384415Y-114923375D01*
X135520625Y-115059585D01*
X135680790Y-115166604D01*
X135858757Y-115240320D01*
X136047685Y-115277900D01*
X136240315Y-115277900D01*
X136429243Y-115240320D01*
X136607210Y-115166604D01*
X136767375Y-115059585D01*
X136903585Y-114923375D01*
X137010604Y-114763210D01*
X137084320Y-114585243D01*
X137121900Y-114396315D01*
X137121900Y-114203685D01*
X137084320Y-114014757D01*
X137010604Y-113836790D01*
X136903585Y-113676625D01*
X136848077Y-113621117D01*
X138219000Y-113621117D01*
X138219000Y-113962883D01*
X138285675Y-114298081D01*
X138416463Y-114613831D01*
X138606337Y-114897998D01*
X138848002Y-115139663D01*
X139132169Y-115329537D01*
X139447919Y-115460325D01*
X139783117Y-115527000D01*
X140124883Y-115527000D01*
X140460081Y-115460325D01*
X140775831Y-115329537D01*
X141059998Y-115139663D01*
X141301663Y-114897998D01*
X141491537Y-114613831D01*
X141622325Y-114298081D01*
X141689000Y-113962883D01*
X141689000Y-113621117D01*
X141622325Y-113285919D01*
X141491537Y-112970169D01*
X141301663Y-112686002D01*
X141059998Y-112444337D01*
X140775831Y-112254463D01*
X140460081Y-112123675D01*
X140124883Y-112057000D01*
X139783117Y-112057000D01*
X139447919Y-112123675D01*
X139132169Y-112254463D01*
X138848002Y-112444337D01*
X138606337Y-112686002D01*
X138416463Y-112970169D01*
X138285675Y-113285919D01*
X138219000Y-113621117D01*
X136848077Y-113621117D01*
X136767375Y-113540415D01*
X136607210Y-113433396D01*
X136429243Y-113359680D01*
X136404316Y-113354722D01*
X138308431Y-111450607D01*
X138344778Y-111420778D01*
X138463806Y-111275741D01*
X138552252Y-111110269D01*
X138606717Y-110930723D01*
X138620500Y-110790785D01*
X138620500Y-110790784D01*
X138625108Y-110744000D01*
X138620500Y-110697215D01*
X138620500Y-108590951D01*
X138623463Y-108596494D01*
X138702815Y-108693185D01*
X138799506Y-108772537D01*
X138909820Y-108831502D01*
X139029518Y-108867812D01*
X139154000Y-108880072D01*
X140754000Y-108880072D01*
X140878482Y-108867812D01*
X140998180Y-108831502D01*
X141108494Y-108772537D01*
X141205185Y-108693185D01*
X141284537Y-108596494D01*
X141343502Y-108486180D01*
X141379812Y-108366482D01*
X141380643Y-108358039D01*
X141579241Y-108556637D01*
X141814273Y-108713680D01*
X142075426Y-108821853D01*
X142352665Y-108877000D01*
X142635335Y-108877000D01*
X142912574Y-108821853D01*
X143173727Y-108713680D01*
X143408759Y-108556637D01*
X143608637Y-108356759D01*
X143738601Y-108162254D01*
X143738600Y-110814264D01*
X143611241Y-110899363D01*
X143411363Y-111099241D01*
X143254320Y-111334273D01*
X143146147Y-111595426D01*
X143091000Y-111872665D01*
X143091000Y-112155335D01*
X143146147Y-112432574D01*
X143254320Y-112693727D01*
X143411363Y-112928759D01*
X143611241Y-113128637D01*
X143738600Y-113213735D01*
X143738601Y-118439327D01*
X143734792Y-118478000D01*
X143749995Y-118632357D01*
X143795018Y-118780782D01*
X143813636Y-118815613D01*
X143867171Y-118915769D01*
X143857754Y-118938504D01*
X143793000Y-119264042D01*
X143793000Y-119595958D01*
X143857754Y-119921496D01*
X143984772Y-120228147D01*
X144169175Y-120504125D01*
X144403875Y-120738825D01*
X144679853Y-120923228D01*
X144986504Y-121050246D01*
X145312042Y-121115000D01*
X145643958Y-121115000D01*
X145969496Y-121050246D01*
X146276147Y-120923228D01*
X146552125Y-120738825D01*
X146786825Y-120504125D01*
X146971228Y-120228147D01*
X147098246Y-119921496D01*
X147163000Y-119595958D01*
X147163000Y-119264042D01*
X147098246Y-118938504D01*
X146971228Y-118631853D01*
X146786825Y-118355875D01*
X146552125Y-118121175D01*
X146276147Y-117936772D01*
X145969496Y-117809754D01*
X145643958Y-117745000D01*
X145313400Y-117745000D01*
X145313400Y-116524000D01*
X147358928Y-116524000D01*
X147371188Y-116648482D01*
X147407498Y-116768180D01*
X147466463Y-116878494D01*
X147545815Y-116975185D01*
X147642506Y-117054537D01*
X147752820Y-117113502D01*
X147872518Y-117149812D01*
X147997000Y-117162072D01*
X148286250Y-117159000D01*
X148445000Y-117000250D01*
X148445000Y-115951000D01*
X147520750Y-115951000D01*
X147362000Y-116109750D01*
X147358928Y-116524000D01*
X145313400Y-116524000D01*
X145313400Y-115124000D01*
X147358928Y-115124000D01*
X147362000Y-115538250D01*
X147520750Y-115697000D01*
X148445000Y-115697000D01*
X148445000Y-114647750D01*
X148699000Y-114647750D01*
X148699000Y-115697000D01*
X148719000Y-115697000D01*
X148719000Y-115951000D01*
X148699000Y-115951000D01*
X148699000Y-117000250D01*
X148857750Y-117159000D01*
X149147000Y-117162072D01*
X149271482Y-117149812D01*
X149391180Y-117113502D01*
X149501494Y-117054537D01*
X149598185Y-116975185D01*
X149663658Y-116895406D01*
X149669038Y-116901962D01*
X149803613Y-117012405D01*
X149834600Y-117028968D01*
X149834601Y-120364745D01*
X149684853Y-120426772D01*
X149408875Y-120611175D01*
X149174175Y-120845875D01*
X148989772Y-121121853D01*
X148862754Y-121428504D01*
X148798000Y-121754042D01*
X148798000Y-122085958D01*
X148862754Y-122411496D01*
X148989772Y-122718147D01*
X149174175Y-122994125D01*
X149408875Y-123228825D01*
X149684853Y-123413228D01*
X149991504Y-123540246D01*
X150317042Y-123605000D01*
X150648958Y-123605000D01*
X150974496Y-123540246D01*
X151281147Y-123413228D01*
X151557125Y-123228825D01*
X151791825Y-122994125D01*
X151976228Y-122718147D01*
X152103246Y-122411496D01*
X152168000Y-122085958D01*
X152168000Y-121754042D01*
X156303000Y-121754042D01*
X156303000Y-122085958D01*
X156367754Y-122411496D01*
X156494772Y-122718147D01*
X156679175Y-122994125D01*
X156913875Y-123228825D01*
X157189853Y-123413228D01*
X157496504Y-123540246D01*
X157822042Y-123605000D01*
X158153958Y-123605000D01*
X158479496Y-123540246D01*
X158786147Y-123413228D01*
X159062125Y-123228825D01*
X159296825Y-122994125D01*
X159481228Y-122718147D01*
X159608246Y-122411496D01*
X159673000Y-122085958D01*
X159673000Y-121754042D01*
X159608246Y-121428504D01*
X159481228Y-121121853D01*
X159296825Y-120845875D01*
X159062125Y-120611175D01*
X158786147Y-120426772D01*
X158479496Y-120299754D01*
X158153958Y-120235000D01*
X157822042Y-120235000D01*
X157496504Y-120299754D01*
X157189853Y-120426772D01*
X156913875Y-120611175D01*
X156679175Y-120845875D01*
X156494772Y-121121853D01*
X156367754Y-121428504D01*
X156303000Y-121754042D01*
X152168000Y-121754042D01*
X152103246Y-121428504D01*
X151976228Y-121121853D01*
X151791825Y-120845875D01*
X151557125Y-120611175D01*
X151409400Y-120512468D01*
X151409400Y-119264042D01*
X153803000Y-119264042D01*
X153803000Y-119595958D01*
X153867754Y-119921496D01*
X153994772Y-120228147D01*
X154179175Y-120504125D01*
X154413875Y-120738825D01*
X154689853Y-120923228D01*
X154996504Y-121050246D01*
X155322042Y-121115000D01*
X155653958Y-121115000D01*
X155979496Y-121050246D01*
X156286147Y-120923228D01*
X156562125Y-120738825D01*
X156796825Y-120504125D01*
X156981228Y-120228147D01*
X157108246Y-119921496D01*
X157173000Y-119595958D01*
X157173000Y-119264042D01*
X157108246Y-118938504D01*
X156981228Y-118631853D01*
X156796825Y-118355875D01*
X156562125Y-118121175D01*
X156286147Y-117936772D01*
X155979496Y-117809754D01*
X155653958Y-117745000D01*
X155322042Y-117745000D01*
X154996504Y-117809754D01*
X154689853Y-117936772D01*
X154413875Y-118121175D01*
X154179175Y-118355875D01*
X153994772Y-118631853D01*
X153867754Y-118938504D01*
X153803000Y-119264042D01*
X151409400Y-119264042D01*
X151409400Y-117028968D01*
X151440387Y-117012405D01*
X151574962Y-116901962D01*
X151685405Y-116767387D01*
X151767472Y-116613851D01*
X151818008Y-116447255D01*
X151835072Y-116274001D01*
X151835072Y-115373999D01*
X151818008Y-115200745D01*
X151767472Y-115034149D01*
X151685405Y-114880613D01*
X151574962Y-114746038D01*
X151440387Y-114635595D01*
X151286851Y-114553528D01*
X151120255Y-114502992D01*
X150947001Y-114485928D01*
X150296999Y-114485928D01*
X150123745Y-114502992D01*
X149957149Y-114553528D01*
X149803613Y-114635595D01*
X149669038Y-114746038D01*
X149663658Y-114752594D01*
X149598185Y-114672815D01*
X149501494Y-114593463D01*
X149391180Y-114534498D01*
X149271482Y-114498188D01*
X149147000Y-114485928D01*
X148857750Y-114489000D01*
X148699000Y-114647750D01*
X148445000Y-114647750D01*
X148286250Y-114489000D01*
X147997000Y-114485928D01*
X147872518Y-114498188D01*
X147752820Y-114534498D01*
X147642506Y-114593463D01*
X147545815Y-114672815D01*
X147466463Y-114769506D01*
X147407498Y-114879820D01*
X147371188Y-114999518D01*
X147358928Y-115124000D01*
X145313400Y-115124000D01*
X145313400Y-113621117D01*
X158793000Y-113621117D01*
X158793000Y-113962883D01*
X158859675Y-114298081D01*
X158990463Y-114613831D01*
X159180337Y-114897998D01*
X159422002Y-115139663D01*
X159706169Y-115329537D01*
X160021919Y-115460325D01*
X160357117Y-115527000D01*
X160698883Y-115527000D01*
X161034081Y-115460325D01*
X161349831Y-115329537D01*
X161633998Y-115139663D01*
X161875663Y-114897998D01*
X162065537Y-114613831D01*
X162196325Y-114298081D01*
X162263000Y-113962883D01*
X162263000Y-113621117D01*
X162196325Y-113285919D01*
X162065537Y-112970169D01*
X161875663Y-112686002D01*
X161633998Y-112444337D01*
X161349831Y-112254463D01*
X161034081Y-112123675D01*
X160698883Y-112057000D01*
X160357117Y-112057000D01*
X160021919Y-112123675D01*
X159706169Y-112254463D01*
X159422002Y-112444337D01*
X159180337Y-112686002D01*
X158990463Y-112970169D01*
X158859675Y-113285919D01*
X158793000Y-113621117D01*
X145313400Y-113621117D01*
X145313400Y-113213735D01*
X145440759Y-113128637D01*
X145640637Y-112928759D01*
X145797680Y-112693727D01*
X145905853Y-112432574D01*
X145961000Y-112155335D01*
X145961000Y-111872665D01*
X145905853Y-111595426D01*
X145797680Y-111334273D01*
X145717317Y-111214000D01*
X150707928Y-111214000D01*
X150707928Y-112814000D01*
X150720188Y-112938482D01*
X150756498Y-113058180D01*
X150815463Y-113168494D01*
X150894815Y-113265185D01*
X150991506Y-113344537D01*
X151101820Y-113403502D01*
X151221518Y-113439812D01*
X151346000Y-113452072D01*
X152946000Y-113452072D01*
X153070482Y-113439812D01*
X153190180Y-113403502D01*
X153300494Y-113344537D01*
X153397185Y-113265185D01*
X153476537Y-113168494D01*
X153535502Y-113058180D01*
X153571812Y-112938482D01*
X153584072Y-112814000D01*
X153584072Y-111214000D01*
X153571812Y-111089518D01*
X153535502Y-110969820D01*
X153476537Y-110859506D01*
X153397185Y-110762815D01*
X153300494Y-110683463D01*
X153190180Y-110624498D01*
X153070482Y-110588188D01*
X152946000Y-110575928D01*
X151346000Y-110575928D01*
X151221518Y-110588188D01*
X151101820Y-110624498D01*
X150991506Y-110683463D01*
X150894815Y-110762815D01*
X150815463Y-110859506D01*
X150756498Y-110969820D01*
X150720188Y-111089518D01*
X150707928Y-111214000D01*
X145717317Y-111214000D01*
X145640637Y-111099241D01*
X145440759Y-110899363D01*
X145313400Y-110814265D01*
X145313400Y-108849537D01*
X145452574Y-108821853D01*
X145713727Y-108713680D01*
X145948759Y-108556637D01*
X146148637Y-108356759D01*
X146304000Y-108124241D01*
X146459363Y-108356759D01*
X146659241Y-108556637D01*
X146894273Y-108713680D01*
X147155426Y-108821853D01*
X147432665Y-108877000D01*
X147715335Y-108877000D01*
X147992574Y-108821853D01*
X148253727Y-108713680D01*
X148488759Y-108556637D01*
X148688637Y-108356759D01*
X148845680Y-108121727D01*
X148953853Y-107860574D01*
X149009000Y-107583335D01*
X149009000Y-107300665D01*
X148953853Y-107023426D01*
X148845680Y-106762273D01*
X148838521Y-106751559D01*
X151693393Y-109606431D01*
X151723222Y-109642778D01*
X151868259Y-109761806D01*
X152033731Y-109850252D01*
X152202161Y-109901345D01*
X152213277Y-109904717D01*
X152399999Y-109923108D01*
X152446784Y-109918500D01*
X158195215Y-109918500D01*
X158242000Y-109923108D01*
X158288785Y-109918500D01*
X158428723Y-109904717D01*
X158608269Y-109850252D01*
X158773741Y-109761806D01*
X158918778Y-109642778D01*
X158948607Y-109606431D01*
X161152039Y-107403000D01*
X161436260Y-107403000D01*
X161723158Y-107345932D01*
X161993411Y-107233990D01*
X162236632Y-107071475D01*
X162443475Y-106864632D01*
X162605990Y-106621411D01*
X162717932Y-106351158D01*
X162775000Y-106064260D01*
X162775000Y-105771740D01*
X162717932Y-105484842D01*
X162605990Y-105214589D01*
X162443475Y-104971368D01*
X162236632Y-104764525D01*
X162062240Y-104648000D01*
X162236632Y-104531475D01*
X162443475Y-104324632D01*
X162605990Y-104081411D01*
X162717932Y-103811158D01*
X162775000Y-103524260D01*
X162775000Y-103231740D01*
X162717932Y-102944842D01*
X162605990Y-102674589D01*
X162443475Y-102431368D01*
X162236632Y-102224525D01*
X162062240Y-102108000D01*
X162236632Y-101991475D01*
X162443475Y-101784632D01*
X162605990Y-101541411D01*
X162717932Y-101271158D01*
X162775000Y-100984260D01*
X162775000Y-100691740D01*
X162717932Y-100404842D01*
X162605990Y-100134589D01*
X162443475Y-99891368D01*
X162236632Y-99684525D01*
X162062240Y-99568000D01*
X162236632Y-99451475D01*
X162443475Y-99244632D01*
X162605990Y-99001411D01*
X162717932Y-98731158D01*
X162775000Y-98444260D01*
X162775000Y-98151740D01*
X162717932Y-97864842D01*
X162605990Y-97594589D01*
X162443475Y-97351368D01*
X162236632Y-97144525D01*
X162054466Y-97022805D01*
X162171355Y-96953178D01*
X162387588Y-96758269D01*
X162561641Y-96524920D01*
X162686825Y-96262099D01*
X162731476Y-96114890D01*
X162610155Y-95885000D01*
X161417000Y-95885000D01*
X161417000Y-95905000D01*
X161163000Y-95905000D01*
X161163000Y-95885000D01*
X161143000Y-95885000D01*
X161143000Y-95631000D01*
X161163000Y-95631000D01*
X161163000Y-93345000D01*
X161417000Y-93345000D01*
X161417000Y-95631000D01*
X162610155Y-95631000D01*
X162731476Y-95401110D01*
X162686825Y-95253901D01*
X162561641Y-94991080D01*
X162387588Y-94757731D01*
X162303534Y-94681966D01*
X162384180Y-94657502D01*
X162494494Y-94598537D01*
X162591185Y-94519185D01*
X162670537Y-94422494D01*
X162729502Y-94312180D01*
X162765812Y-94192482D01*
X162778072Y-94068000D01*
X162775000Y-93503750D01*
X162616250Y-93345000D01*
X161417000Y-93345000D01*
X161163000Y-93345000D01*
X159963750Y-93345000D01*
X159805000Y-93503750D01*
X159801928Y-94068000D01*
X159814188Y-94192482D01*
X159850498Y-94312180D01*
X159909463Y-94422494D01*
X159988815Y-94519185D01*
X160085506Y-94598537D01*
X160195820Y-94657502D01*
X160276466Y-94681966D01*
X160192412Y-94757731D01*
X160018359Y-94991080D01*
X159893175Y-95253901D01*
X159848524Y-95401110D01*
X159969844Y-95630998D01*
X159805000Y-95630998D01*
X159805000Y-95699450D01*
X159791400Y-95685850D01*
X159791400Y-92368000D01*
X159801928Y-92368000D01*
X159805000Y-92932250D01*
X159963750Y-93091000D01*
X161163000Y-93091000D01*
X161163000Y-91891750D01*
X161417000Y-91891750D01*
X161417000Y-93091000D01*
X162616250Y-93091000D01*
X162775000Y-92932250D01*
X162778072Y-92368000D01*
X162765812Y-92243518D01*
X162729502Y-92123820D01*
X162670537Y-92013506D01*
X162591185Y-91916815D01*
X162494494Y-91837463D01*
X162384180Y-91778498D01*
X162264482Y-91742188D01*
X162140000Y-91729928D01*
X161575750Y-91733000D01*
X161417000Y-91891750D01*
X161163000Y-91891750D01*
X161004250Y-91733000D01*
X160440000Y-91729928D01*
X160315518Y-91742188D01*
X160195820Y-91778498D01*
X160085506Y-91837463D01*
X159988815Y-91916815D01*
X159909463Y-92013506D01*
X159850498Y-92123820D01*
X159814188Y-92243518D01*
X159801928Y-92368000D01*
X159791400Y-92368000D01*
X159791400Y-81572662D01*
X159795208Y-81533999D01*
X159791400Y-81495336D01*
X159791400Y-81495327D01*
X159780006Y-81379643D01*
X159734982Y-81231217D01*
X159661866Y-81094428D01*
X159620302Y-81043782D01*
X159588121Y-81004569D01*
X159588119Y-81004567D01*
X159563469Y-80974531D01*
X159533434Y-80949882D01*
X159438669Y-80855117D01*
X160317000Y-80855117D01*
X160317000Y-81196883D01*
X160383675Y-81532081D01*
X160514463Y-81847831D01*
X160704337Y-82131998D01*
X160946002Y-82373663D01*
X161230169Y-82563537D01*
X161545919Y-82694325D01*
X161881117Y-82761000D01*
X162222883Y-82761000D01*
X162558081Y-82694325D01*
X162873831Y-82563537D01*
X163157998Y-82373663D01*
X163399663Y-82131998D01*
X163589537Y-81847831D01*
X163720325Y-81532081D01*
X163787000Y-81196883D01*
X163787000Y-80855117D01*
X163720325Y-80519919D01*
X163589537Y-80204169D01*
X163399663Y-79920002D01*
X163157998Y-79678337D01*
X162873831Y-79488463D01*
X162558081Y-79357675D01*
X162222883Y-79291000D01*
X161881117Y-79291000D01*
X161545919Y-79357675D01*
X161230169Y-79488463D01*
X160946002Y-79678337D01*
X160704337Y-79920002D01*
X160514463Y-80204169D01*
X160383675Y-80519919D01*
X160317000Y-80855117D01*
X159438669Y-80855117D01*
X153622133Y-75038583D01*
X153594320Y-74898757D01*
X153520604Y-74720790D01*
X153413585Y-74560625D01*
X153277375Y-74424415D01*
X153121107Y-74320000D01*
X162527721Y-74320000D01*
X162924545Y-74358909D01*
G36*
X151014625Y-74424415D02*
G01*
X150878415Y-74560625D01*
X150771396Y-74720790D01*
X150697680Y-74898757D01*
X150660100Y-75087685D01*
X150660100Y-75280315D01*
X150697680Y-75469243D01*
X150771396Y-75647210D01*
X150857316Y-75775799D01*
X150861994Y-75823290D01*
X150907018Y-75971716D01*
X150980134Y-76108505D01*
X151078532Y-76228402D01*
X151108573Y-76253056D01*
X151203457Y-76347940D01*
X151097983Y-76418415D01*
X150961773Y-76554625D01*
X150854754Y-76714790D01*
X150781038Y-76892757D01*
X150743458Y-77081685D01*
X150743458Y-77274315D01*
X150781038Y-77463243D01*
X150854754Y-77641210D01*
X150961773Y-77801375D01*
X151097983Y-77937585D01*
X151258148Y-78044604D01*
X151436115Y-78118320D01*
X151587796Y-78148491D01*
X151624685Y-78178765D01*
X151761474Y-78251881D01*
X151837346Y-78274896D01*
X151890449Y-78327999D01*
X150097405Y-80121045D01*
X149975255Y-80083992D01*
X149802001Y-80066928D01*
X148901999Y-80066928D01*
X148728745Y-80083992D01*
X148562149Y-80134528D01*
X148408613Y-80216595D01*
X148274038Y-80327038D01*
X148163595Y-80461613D01*
X148081528Y-80615149D01*
X148030992Y-80781745D01*
X148013928Y-80954999D01*
X148013928Y-81605001D01*
X148030992Y-81778255D01*
X148081528Y-81944851D01*
X148163595Y-82098387D01*
X148274038Y-82232962D01*
X148361816Y-82305000D01*
X148295408Y-82359500D01*
X147382341Y-82359500D01*
X147381962Y-82359038D01*
X147375406Y-82353658D01*
X147455185Y-82288185D01*
X147534537Y-82191494D01*
X147593502Y-82081180D01*
X147629812Y-81961482D01*
X147642072Y-81837000D01*
X147639000Y-81547750D01*
X147480250Y-81389000D01*
X146431000Y-81389000D01*
X146431000Y-81409000D01*
X146177000Y-81409000D01*
X146177000Y-81389000D01*
X144145000Y-81389000D01*
X144145000Y-81409000D01*
X143891000Y-81409000D01*
X143891000Y-81389000D01*
X142841750Y-81389000D01*
X142683000Y-81547750D01*
X142679928Y-81837000D01*
X142692188Y-81961482D01*
X142728498Y-82081180D01*
X142787463Y-82191494D01*
X142866815Y-82288185D01*
X142946594Y-82353658D01*
X142940038Y-82359038D01*
X142939659Y-82359500D01*
X142464010Y-82359500D01*
X142336315Y-82334100D01*
X142143685Y-82334100D01*
X141954757Y-82371680D01*
X141776790Y-82445396D01*
X141616625Y-82552415D01*
X141480415Y-82688625D01*
X141373396Y-82848790D01*
X141299680Y-83026757D01*
X141262100Y-83215685D01*
X141262100Y-83408315D01*
X141299680Y-83597243D01*
X141373396Y-83775210D01*
X141480415Y-83935375D01*
X141616625Y-84071585D01*
X141776790Y-84178604D01*
X141954757Y-84252320D01*
X142143685Y-84289900D01*
X142336315Y-84289900D01*
X142464010Y-84264500D01*
X142939659Y-84264500D01*
X142940038Y-84264962D01*
X143074613Y-84375405D01*
X143228149Y-84457472D01*
X143394745Y-84508008D01*
X143567999Y-84525072D01*
X144468001Y-84525072D01*
X144641255Y-84508008D01*
X144807851Y-84457472D01*
X144961387Y-84375405D01*
X145095962Y-84264962D01*
X145096341Y-84264500D01*
X145225659Y-84264500D01*
X145226038Y-84264962D01*
X145351500Y-84367926D01*
X145351501Y-85457460D01*
X143051962Y-87757000D01*
X138684000Y-87757000D01*
X138597511Y-87765518D01*
X138641000Y-87546883D01*
X138641000Y-87205117D01*
X138574325Y-86869919D01*
X138443537Y-86554169D01*
X138253663Y-86270002D01*
X138011998Y-86028337D01*
X137727831Y-85838463D01*
X137412081Y-85707675D01*
X137076883Y-85641000D01*
X136735117Y-85641000D01*
X136399919Y-85707675D01*
X136084169Y-85838463D01*
X135800002Y-86028337D01*
X135558337Y-86270002D01*
X135368463Y-86554169D01*
X135237675Y-86869919D01*
X135171000Y-87205117D01*
X135171000Y-87546883D01*
X135237675Y-87882081D01*
X135368463Y-88197831D01*
X135558337Y-88481998D01*
X135800002Y-88723663D01*
X136084169Y-88913537D01*
X136399919Y-89044325D01*
X136735117Y-89111000D01*
X137076883Y-89111000D01*
X137412081Y-89044325D01*
X137727831Y-88913537D01*
X138011998Y-88723663D01*
X138049000Y-88686661D01*
X138049000Y-89281000D01*
X134366000Y-89281000D01*
X134242118Y-89293201D01*
X134122996Y-89329336D01*
X134013213Y-89388017D01*
X133916987Y-89466987D01*
X133838017Y-89563213D01*
X133779336Y-89672996D01*
X133744500Y-89787836D01*
X133744500Y-86173784D01*
X133749108Y-86126999D01*
X133730717Y-85940277D01*
X133713870Y-85884740D01*
X133676252Y-85760731D01*
X133587806Y-85595259D01*
X133468778Y-85450222D01*
X133432431Y-85420393D01*
X132724607Y-84712569D01*
X132694778Y-84676222D01*
X132549741Y-84557194D01*
X132505554Y-84533575D01*
X132395962Y-84400038D01*
X132389406Y-84394658D01*
X132469185Y-84329185D01*
X132548537Y-84232494D01*
X132607502Y-84122180D01*
X132643812Y-84002482D01*
X132656072Y-83878000D01*
X132653000Y-83588750D01*
X132494250Y-83430000D01*
X131445000Y-83430000D01*
X131445000Y-83450000D01*
X131191000Y-83450000D01*
X131191000Y-83430000D01*
X131171000Y-83430000D01*
X131171000Y-83176000D01*
X131191000Y-83176000D01*
X131191000Y-82251750D01*
X131445000Y-82251750D01*
X131445000Y-83176000D01*
X132494250Y-83176000D01*
X132653000Y-83017250D01*
X132656072Y-82728000D01*
X132643812Y-82603518D01*
X132607502Y-82483820D01*
X132548537Y-82373506D01*
X132469185Y-82276815D01*
X132372494Y-82197463D01*
X132262180Y-82138498D01*
X132142482Y-82102188D01*
X132018000Y-82089928D01*
X131603750Y-82093000D01*
X131445000Y-82251750D01*
X131191000Y-82251750D01*
X131032250Y-82093000D01*
X130618000Y-82089928D01*
X130493518Y-82102188D01*
X130373820Y-82138498D01*
X130263506Y-82197463D01*
X130166815Y-82276815D01*
X130087463Y-82373506D01*
X130028498Y-82483820D01*
X129992188Y-82603518D01*
X129985317Y-82673279D01*
X129979607Y-82667569D01*
X129949778Y-82631222D01*
X129804741Y-82512194D01*
X129639269Y-82423748D01*
X129472500Y-82373159D01*
X129472500Y-81424538D01*
X129801118Y-81095920D01*
X129909375Y-81023585D01*
X130045585Y-80887375D01*
X130152604Y-80727210D01*
X130169259Y-80687000D01*
X142679928Y-80687000D01*
X142683000Y-80976250D01*
X142841750Y-81135000D01*
X143891000Y-81135000D01*
X143891000Y-80210750D01*
X144145000Y-80210750D01*
X144145000Y-81135000D01*
X146177000Y-81135000D01*
X146177000Y-80210750D01*
X146431000Y-80210750D01*
X146431000Y-81135000D01*
X147480250Y-81135000D01*
X147639000Y-80976250D01*
X147642072Y-80687000D01*
X147629812Y-80562518D01*
X147593502Y-80442820D01*
X147534537Y-80332506D01*
X147455185Y-80235815D01*
X147358494Y-80156463D01*
X147248180Y-80097498D01*
X147128482Y-80061188D01*
X147004000Y-80048928D01*
X146589750Y-80052000D01*
X146431000Y-80210750D01*
X146177000Y-80210750D01*
X146018250Y-80052000D01*
X145604000Y-80048928D01*
X145479518Y-80061188D01*
X145359820Y-80097498D01*
X145249506Y-80156463D01*
X145161000Y-80229098D01*
X145072494Y-80156463D01*
X144962180Y-80097498D01*
X144842482Y-80061188D01*
X144718000Y-80048928D01*
X144303750Y-80052000D01*
X144145000Y-80210750D01*
X143891000Y-80210750D01*
X143732250Y-80052000D01*
X143318000Y-80048928D01*
X143193518Y-80061188D01*
X143073820Y-80097498D01*
X142963506Y-80156463D01*
X142866815Y-80235815D01*
X142787463Y-80332506D01*
X142728498Y-80442820D01*
X142692188Y-80562518D01*
X142679928Y-80687000D01*
X130169259Y-80687000D01*
X130226320Y-80549243D01*
X130263900Y-80360315D01*
X130263900Y-80167685D01*
X130226320Y-79978757D01*
X130152604Y-79800790D01*
X130045585Y-79640625D01*
X129909375Y-79504415D01*
X129749210Y-79397396D01*
X129571243Y-79323680D01*
X129382315Y-79286100D01*
X129189685Y-79286100D01*
X129000757Y-79323680D01*
X128822790Y-79397396D01*
X128662625Y-79504415D01*
X128526415Y-79640625D01*
X128454080Y-79748882D01*
X127879565Y-80323397D01*
X127843223Y-80353222D01*
X127813399Y-80389563D01*
X127724194Y-80498260D01*
X127635749Y-80663731D01*
X127581283Y-80843278D01*
X127562892Y-81030000D01*
X127567501Y-81076794D01*
X127567501Y-81958485D01*
X127549935Y-81940919D01*
X127261673Y-81748308D01*
X126941373Y-81615636D01*
X126601345Y-81548000D01*
X126254655Y-81548000D01*
X125914627Y-81615636D01*
X125594327Y-81748308D01*
X125306065Y-81940919D01*
X125060919Y-82186065D01*
X124868308Y-82474327D01*
X124735636Y-82794627D01*
X124668000Y-83134655D01*
X124668000Y-83481345D01*
X124735636Y-83821373D01*
X124868308Y-84141673D01*
X125060919Y-84429935D01*
X125306065Y-84675081D01*
X125594327Y-84867692D01*
X125914627Y-85000364D01*
X126254655Y-85068000D01*
X126601345Y-85068000D01*
X126941373Y-85000364D01*
X127261673Y-84867692D01*
X127549935Y-84675081D01*
X127795081Y-84429935D01*
X127908294Y-84260500D01*
X128473215Y-84260500D01*
X128520000Y-84265108D01*
X128566785Y-84260500D01*
X128878462Y-84260500D01*
X129979928Y-85361967D01*
X129979928Y-85678001D01*
X129996992Y-85851255D01*
X130047528Y-86017851D01*
X130129595Y-86171387D01*
X130240038Y-86305962D01*
X130374613Y-86416405D01*
X130528149Y-86498472D01*
X130694745Y-86549008D01*
X130867999Y-86566072D01*
X131768001Y-86566072D01*
X131839500Y-86559030D01*
X131839501Y-90398206D01*
X131839500Y-90398216D01*
X131839500Y-90462687D01*
X131747820Y-90490498D01*
X131637506Y-90549463D01*
X131540815Y-90628815D01*
X131461463Y-90725506D01*
X131402498Y-90835820D01*
X131366188Y-90955518D01*
X131353928Y-91080000D01*
X131353928Y-92280000D01*
X131366188Y-92404482D01*
X131402498Y-92524180D01*
X131461463Y-92634494D01*
X131540815Y-92731185D01*
X131637506Y-92810537D01*
X131673918Y-92830000D01*
X131637506Y-92849463D01*
X131540815Y-92928815D01*
X131461463Y-93025506D01*
X131402498Y-93135820D01*
X131366188Y-93255518D01*
X131353928Y-93380000D01*
X131353928Y-94580000D01*
X131366188Y-94704482D01*
X131402498Y-94824180D01*
X131461463Y-94934494D01*
X131540815Y-95031185D01*
X131637506Y-95110537D01*
X131673918Y-95130000D01*
X131637506Y-95149463D01*
X131540815Y-95228815D01*
X131461463Y-95325506D01*
X131402498Y-95435820D01*
X131366188Y-95555518D01*
X131353928Y-95680000D01*
X131357000Y-95994250D01*
X131515750Y-96153000D01*
X132665000Y-96153000D01*
X132665000Y-96133000D01*
X132919000Y-96133000D01*
X132919000Y-96153000D01*
X132939000Y-96153000D01*
X132939000Y-96407000D01*
X132919000Y-96407000D01*
X132919000Y-97356250D01*
X133077750Y-97515000D01*
X133592000Y-97518072D01*
X133716482Y-97505812D01*
X133731000Y-97501408D01*
X133731000Y-101092000D01*
X133743201Y-101215882D01*
X133779336Y-101335004D01*
X133838017Y-101444787D01*
X133916987Y-101541013D01*
X134013213Y-101619983D01*
X134122996Y-101678664D01*
X134242118Y-101714799D01*
X134366000Y-101727000D01*
X136767344Y-101727000D01*
X136727680Y-101822757D01*
X136699867Y-101962581D01*
X135614577Y-103047873D01*
X135584531Y-103072531D01*
X135486134Y-103192429D01*
X135413018Y-103329218D01*
X135367994Y-103477644D01*
X135356600Y-103593328D01*
X135356600Y-103593337D01*
X135352792Y-103632000D01*
X135356600Y-103670663D01*
X135356601Y-110709967D01*
X131718072Y-114348497D01*
X131718072Y-114003000D01*
X131696685Y-113785850D01*
X131633344Y-113577046D01*
X131530486Y-113384610D01*
X131392061Y-113215939D01*
X131223390Y-113077514D01*
X131030954Y-112974656D01*
X130822150Y-112911315D01*
X130605000Y-112889928D01*
X128255000Y-112889928D01*
X128037850Y-112911315D01*
X127829046Y-112974656D01*
X127636610Y-113077514D01*
X127467939Y-113215939D01*
X127329514Y-113384610D01*
X127226656Y-113577046D01*
X127163315Y-113785850D01*
X127141928Y-114003000D01*
X127141928Y-114953000D01*
X127163315Y-115170150D01*
X127226656Y-115378954D01*
X127329514Y-115571390D01*
X127467939Y-115740061D01*
X127539269Y-115798600D01*
X126620731Y-115798600D01*
X126692061Y-115740061D01*
X126830486Y-115571390D01*
X126933344Y-115378954D01*
X126996685Y-115170150D01*
X127018072Y-114953000D01*
X127018072Y-114003000D01*
X126996685Y-113785850D01*
X126933344Y-113577046D01*
X126830486Y-113384610D01*
X126692061Y-113215939D01*
X126523390Y-113077514D01*
X126330954Y-112974656D01*
X126122150Y-112911315D01*
X125905000Y-112889928D01*
X123555000Y-112889928D01*
X123337850Y-112911315D01*
X123129046Y-112974656D01*
X122936610Y-113077514D01*
X122767939Y-113215939D01*
X122629514Y-113384610D01*
X122526656Y-113577046D01*
X122463315Y-113785850D01*
X122441928Y-114003000D01*
X122441928Y-114953000D01*
X122463315Y-115170150D01*
X122526656Y-115378954D01*
X122629514Y-115571390D01*
X122767939Y-115740061D01*
X122936610Y-115878486D01*
X123129046Y-115981344D01*
X123337850Y-116044685D01*
X123555000Y-116066072D01*
X123621376Y-116066072D01*
X123144557Y-116542892D01*
X123117387Y-116520595D01*
X122963851Y-116438528D01*
X122797255Y-116387992D01*
X122624001Y-116370928D01*
X121723999Y-116370928D01*
X121550745Y-116387992D01*
X121384149Y-116438528D01*
X121310000Y-116478162D01*
X121310000Y-111723629D01*
X123591943Y-111723629D01*
X123603350Y-111848192D01*
X123638840Y-111968136D01*
X123697047Y-112078851D01*
X123775735Y-112176084D01*
X123871880Y-112256097D01*
X123981788Y-112315815D01*
X124101235Y-112352944D01*
X124198250Y-112363000D01*
X124357000Y-112204250D01*
X124357000Y-111506000D01*
X123753750Y-111506000D01*
X123595000Y-111664750D01*
X123591943Y-111723629D01*
X121310000Y-111723629D01*
X121310000Y-111057829D01*
X121546842Y-111155932D01*
X121833740Y-111213000D01*
X122126260Y-111213000D01*
X122413158Y-111155932D01*
X122683411Y-111043990D01*
X122926632Y-110881475D01*
X122948897Y-110859210D01*
X124194500Y-110859210D01*
X124197141Y-110886029D01*
X124197125Y-110888389D01*
X124197991Y-110897220D01*
X124202008Y-110935436D01*
X124203696Y-110952579D01*
X124203869Y-110953151D01*
X124206151Y-110974859D01*
X124217733Y-111031284D01*
X124228526Y-111087860D01*
X124231089Y-111096349D01*
X124231090Y-111096353D01*
X124231091Y-111096355D01*
X124254176Y-111170930D01*
X124276494Y-111224022D01*
X124298072Y-111277429D01*
X124302237Y-111285263D01*
X124339367Y-111353934D01*
X124371570Y-111401676D01*
X124403115Y-111449883D01*
X124408723Y-111456759D01*
X124458484Y-111516910D01*
X124499335Y-111557476D01*
X124539655Y-111598650D01*
X124546492Y-111604306D01*
X124606989Y-111653646D01*
X124654962Y-111685519D01*
X124702490Y-111718062D01*
X124710295Y-111722282D01*
X124779224Y-111758932D01*
X124832489Y-111780886D01*
X124885412Y-111803569D01*
X124893890Y-111806193D01*
X124893894Y-111806195D01*
X124893899Y-111806196D01*
X124968623Y-111828757D01*
X125025125Y-111839946D01*
X125081467Y-111851921D01*
X125090283Y-111852848D01*
X125090288Y-111852849D01*
X125090292Y-111852849D01*
X125167986Y-111860467D01*
X125195773Y-111860467D01*
X125223402Y-111863466D01*
X125232275Y-111863496D01*
X125235068Y-111863486D01*
X125262654Y-111860681D01*
X125290389Y-111860875D01*
X125299220Y-111860009D01*
X125376859Y-111851849D01*
X125433284Y-111840267D01*
X125489860Y-111829474D01*
X125498349Y-111826911D01*
X125498353Y-111826910D01*
X125498356Y-111826909D01*
X125572930Y-111803824D01*
X125626022Y-111781506D01*
X125679429Y-111759928D01*
X125687263Y-111755763D01*
X125755934Y-111718633D01*
X125803676Y-111686430D01*
X125851883Y-111654885D01*
X125858759Y-111649277D01*
X125918910Y-111599516D01*
X125959476Y-111558665D01*
X126000650Y-111518345D01*
X126006306Y-111511508D01*
X126010798Y-111506000D01*
X126103000Y-111506000D01*
X126103000Y-112204250D01*
X126261750Y-112363000D01*
X126358765Y-112352944D01*
X126478212Y-112315815D01*
X126588120Y-112256097D01*
X126684265Y-112176084D01*
X126762953Y-112078851D01*
X126821160Y-111968136D01*
X126856650Y-111848192D01*
X126868057Y-111723629D01*
X126865000Y-111664750D01*
X126706250Y-111506000D01*
X126103000Y-111506000D01*
X126010798Y-111506000D01*
X126055646Y-111451011D01*
X126087519Y-111403038D01*
X126120062Y-111355510D01*
X126124282Y-111347705D01*
X126160932Y-111278776D01*
X126182886Y-111225511D01*
X126205569Y-111172588D01*
X126208193Y-111164111D01*
X126230757Y-111089377D01*
X126241946Y-111032875D01*
X126253921Y-110976533D01*
X126254849Y-110967708D01*
X126262467Y-110890014D01*
X126262467Y-110890006D01*
X126265500Y-110859211D01*
X126265500Y-109554655D01*
X129470000Y-109554655D01*
X129470000Y-109901345D01*
X129537636Y-110241373D01*
X129670308Y-110561673D01*
X129862919Y-110849935D01*
X130108065Y-111095081D01*
X130396327Y-111287692D01*
X130716627Y-111420364D01*
X131056655Y-111488000D01*
X131403345Y-111488000D01*
X131743373Y-111420364D01*
X132063673Y-111287692D01*
X132351935Y-111095081D01*
X132597081Y-110849935D01*
X132789692Y-110561673D01*
X132922364Y-110241373D01*
X132990000Y-109901345D01*
X132990000Y-109554655D01*
X132922364Y-109214627D01*
X132789692Y-108894327D01*
X132597081Y-108606065D01*
X132351935Y-108360919D01*
X132063673Y-108168308D01*
X131743373Y-108035636D01*
X131403345Y-107968000D01*
X131056655Y-107968000D01*
X130716627Y-108035636D01*
X130396327Y-108168308D01*
X130108065Y-108360919D01*
X129862919Y-108606065D01*
X129670308Y-108894327D01*
X129537636Y-109214627D01*
X129470000Y-109554655D01*
X126265500Y-109554655D01*
X126265500Y-108596789D01*
X126262859Y-108569970D01*
X126262875Y-108567611D01*
X126262009Y-108558780D01*
X126257995Y-108520587D01*
X126256304Y-108503420D01*
X126256130Y-108502847D01*
X126253849Y-108481142D01*
X126242271Y-108424737D01*
X126231474Y-108368139D01*
X126228910Y-108359646D01*
X126228909Y-108359644D01*
X126205824Y-108285070D01*
X126183506Y-108231978D01*
X126161928Y-108178571D01*
X126157762Y-108170736D01*
X126120633Y-108102066D01*
X126088420Y-108054308D01*
X126056885Y-108006117D01*
X126051277Y-107999241D01*
X126001516Y-107939090D01*
X125960665Y-107898524D01*
X125920345Y-107857350D01*
X125913508Y-107851694D01*
X125853011Y-107802354D01*
X125805012Y-107770464D01*
X125757510Y-107737939D01*
X125749705Y-107733718D01*
X125680776Y-107697068D01*
X125627511Y-107675114D01*
X125574588Y-107652431D01*
X125566111Y-107649807D01*
X125566108Y-107649806D01*
X125566106Y-107649805D01*
X125566101Y-107649804D01*
X125491377Y-107627243D01*
X125434882Y-107616056D01*
X125378533Y-107604079D01*
X125369715Y-107603152D01*
X125369712Y-107603151D01*
X125369709Y-107603151D01*
X125292014Y-107595533D01*
X125264227Y-107595533D01*
X125236598Y-107592534D01*
X125227725Y-107592504D01*
X125224932Y-107592514D01*
X125197346Y-107595319D01*
X125169611Y-107595125D01*
X125160780Y-107595991D01*
X125083142Y-107604151D01*
X125026737Y-107615729D01*
X124970139Y-107626526D01*
X124961651Y-107629089D01*
X124961647Y-107629090D01*
X124961644Y-107629091D01*
X124961645Y-107629091D01*
X124887070Y-107652176D01*
X124833978Y-107674494D01*
X124780571Y-107696072D01*
X124772736Y-107700238D01*
X124704066Y-107737367D01*
X124656308Y-107769580D01*
X124608117Y-107801115D01*
X124601241Y-107806723D01*
X124541090Y-107856484D01*
X124500524Y-107897335D01*
X124459350Y-107937655D01*
X124453694Y-107944492D01*
X124404354Y-108004989D01*
X124372464Y-108052988D01*
X124339939Y-108100490D01*
X124335718Y-108108295D01*
X124299068Y-108177224D01*
X124277114Y-108230489D01*
X124254431Y-108283412D01*
X124251807Y-108291889D01*
X124229243Y-108366623D01*
X124218056Y-108423118D01*
X124206079Y-108479467D01*
X124205151Y-108488291D01*
X124197533Y-108565986D01*
X124197533Y-108566004D01*
X124194501Y-108596789D01*
X124194500Y-110859210D01*
X122948897Y-110859210D01*
X123133475Y-110674632D01*
X123295990Y-110431411D01*
X123407932Y-110161158D01*
X123465000Y-109874260D01*
X123465000Y-109581740D01*
X123407932Y-109294842D01*
X123295990Y-109024589D01*
X123133475Y-108781368D01*
X122926632Y-108574525D01*
X122683411Y-108412010D01*
X122413158Y-108300068D01*
X122126260Y-108243000D01*
X121833740Y-108243000D01*
X121546842Y-108300068D01*
X121310000Y-108398171D01*
X121310000Y-107732371D01*
X123591943Y-107732371D01*
X123595000Y-107791250D01*
X123753750Y-107950000D01*
X124357000Y-107950000D01*
X124357000Y-107251750D01*
X126103000Y-107251750D01*
X126103000Y-107950000D01*
X126706250Y-107950000D01*
X126865000Y-107791250D01*
X126868057Y-107732371D01*
X126856650Y-107607808D01*
X126821160Y-107487864D01*
X126762953Y-107377149D01*
X126684265Y-107279916D01*
X126588120Y-107199903D01*
X126478212Y-107140185D01*
X126358765Y-107103056D01*
X126261750Y-107093000D01*
X126103000Y-107251750D01*
X124357000Y-107251750D01*
X124198250Y-107093000D01*
X124101235Y-107103056D01*
X123981788Y-107140185D01*
X123871880Y-107199903D01*
X123775735Y-107279916D01*
X123697047Y-107377149D01*
X123638840Y-107487864D01*
X123603350Y-107607808D01*
X123591943Y-107732371D01*
X121310000Y-107732371D01*
X121310000Y-104503000D01*
X122441928Y-104503000D01*
X122441928Y-105453000D01*
X122463315Y-105670150D01*
X122526656Y-105878954D01*
X122629514Y-106071390D01*
X122767939Y-106240061D01*
X122936610Y-106378486D01*
X123129046Y-106481344D01*
X123337850Y-106544685D01*
X123555000Y-106566072D01*
X125905000Y-106566072D01*
X126122150Y-106544685D01*
X126330954Y-106481344D01*
X126523390Y-106378486D01*
X126692061Y-106240061D01*
X126830486Y-106071390D01*
X126933344Y-105878954D01*
X126996685Y-105670150D01*
X127018072Y-105453000D01*
X127018072Y-104503000D01*
X127141928Y-104503000D01*
X127141928Y-105453000D01*
X127163315Y-105670150D01*
X127226656Y-105878954D01*
X127329514Y-106071390D01*
X127467939Y-106240061D01*
X127636610Y-106378486D01*
X127829046Y-106481344D01*
X128037850Y-106544685D01*
X128255000Y-106566072D01*
X130605000Y-106566072D01*
X130822150Y-106544685D01*
X131030954Y-106481344D01*
X131223390Y-106378486D01*
X131392061Y-106240061D01*
X131530486Y-106071390D01*
X131633344Y-105878954D01*
X131696685Y-105670150D01*
X131718072Y-105453000D01*
X131718072Y-104503000D01*
X131696685Y-104285850D01*
X131633344Y-104077046D01*
X131530486Y-103884610D01*
X131392061Y-103715939D01*
X131223390Y-103577514D01*
X131030954Y-103474656D01*
X130822150Y-103411315D01*
X130605000Y-103389928D01*
X128255000Y-103389928D01*
X128037850Y-103411315D01*
X127829046Y-103474656D01*
X127636610Y-103577514D01*
X127467939Y-103715939D01*
X127329514Y-103884610D01*
X127226656Y-104077046D01*
X127163315Y-104285850D01*
X127141928Y-104503000D01*
X127018072Y-104503000D01*
X126996685Y-104285850D01*
X126933344Y-104077046D01*
X126830486Y-103884610D01*
X126692061Y-103715939D01*
X126523390Y-103577514D01*
X126330954Y-103474656D01*
X126122150Y-103411315D01*
X125905000Y-103389928D01*
X123555000Y-103389928D01*
X123337850Y-103411315D01*
X123129046Y-103474656D01*
X122936610Y-103577514D01*
X122767939Y-103715939D01*
X122629514Y-103884610D01*
X122526656Y-104077046D01*
X122463315Y-104285850D01*
X122441928Y-104503000D01*
X121310000Y-104503000D01*
X121310000Y-99643281D01*
X124167140Y-99643281D01*
X124286625Y-99860603D01*
X124601223Y-99929563D01*
X124923229Y-99935822D01*
X125240269Y-99879140D01*
X125301375Y-99860603D01*
X125420860Y-99643281D01*
X124794000Y-99016420D01*
X124167140Y-99643281D01*
X121310000Y-99643281D01*
X121310000Y-98427229D01*
X123156178Y-98427229D01*
X123212860Y-98744269D01*
X123231397Y-98805375D01*
X123448719Y-98924860D01*
X124075580Y-98298000D01*
X125512420Y-98298000D01*
X126139281Y-98924860D01*
X126356603Y-98805375D01*
X126425563Y-98490777D01*
X126431822Y-98168771D01*
X126375140Y-97851731D01*
X126356603Y-97790625D01*
X126139281Y-97671140D01*
X125512420Y-98298000D01*
X124075580Y-98298000D01*
X123448719Y-97671140D01*
X123231397Y-97790625D01*
X123162437Y-98105223D01*
X123156178Y-98427229D01*
X121310000Y-98427229D01*
X121310000Y-96952719D01*
X124167140Y-96952719D01*
X124794000Y-97579580D01*
X125075579Y-97298000D01*
X128155928Y-97298000D01*
X128155928Y-99298000D01*
X128168188Y-99422482D01*
X128204498Y-99542180D01*
X128263463Y-99652494D01*
X128342815Y-99749185D01*
X128439506Y-99828537D01*
X128549820Y-99887502D01*
X128669518Y-99923812D01*
X128794000Y-99936072D01*
X130794000Y-99936072D01*
X130918482Y-99923812D01*
X131038180Y-99887502D01*
X131148494Y-99828537D01*
X131245185Y-99749185D01*
X131324537Y-99652494D01*
X131383502Y-99542180D01*
X131419812Y-99422482D01*
X131432072Y-99298000D01*
X131432072Y-97298000D01*
X131419812Y-97173518D01*
X131407926Y-97134335D01*
X131461463Y-97234494D01*
X131540815Y-97331185D01*
X131637506Y-97410537D01*
X131747820Y-97469502D01*
X131867518Y-97505812D01*
X131992000Y-97518072D01*
X132506250Y-97515000D01*
X132665000Y-97356250D01*
X132665000Y-96407000D01*
X131515750Y-96407000D01*
X131357000Y-96565750D01*
X131353928Y-96880000D01*
X131366188Y-97004482D01*
X131378074Y-97043665D01*
X131324537Y-96943506D01*
X131245185Y-96846815D01*
X131148494Y-96767463D01*
X131038180Y-96708498D01*
X130918482Y-96672188D01*
X130794000Y-96659928D01*
X128794000Y-96659928D01*
X128669518Y-96672188D01*
X128549820Y-96708498D01*
X128439506Y-96767463D01*
X128342815Y-96846815D01*
X128263463Y-96943506D01*
X128204498Y-97053820D01*
X128168188Y-97173518D01*
X128155928Y-97298000D01*
X125075579Y-97298000D01*
X125420860Y-96952719D01*
X125301375Y-96735397D01*
X124986777Y-96666437D01*
X124664771Y-96660178D01*
X124347731Y-96716860D01*
X124286625Y-96735397D01*
X124167140Y-96952719D01*
X121310000Y-96952719D01*
X121310000Y-89532531D01*
X125383074Y-89532531D01*
X125493921Y-89809714D01*
X125804840Y-89963089D01*
X126139705Y-90052860D01*
X126485650Y-90075576D01*
X126829380Y-90030366D01*
X127157685Y-89918966D01*
X127362079Y-89809714D01*
X127472926Y-89532531D01*
X126428000Y-88487605D01*
X125383074Y-89532531D01*
X121310000Y-89532531D01*
X121310000Y-88365650D01*
X124660424Y-88365650D01*
X124705634Y-88709380D01*
X124817034Y-89037685D01*
X124926286Y-89242079D01*
X125203469Y-89352926D01*
X126248395Y-88308000D01*
X126607605Y-88308000D01*
X127652531Y-89352926D01*
X127929714Y-89242079D01*
X128083089Y-88931160D01*
X128172860Y-88596295D01*
X128195576Y-88250350D01*
X128150366Y-87906620D01*
X128038966Y-87578315D01*
X127929714Y-87373921D01*
X127652531Y-87263074D01*
X126607605Y-88308000D01*
X126248395Y-88308000D01*
X125203469Y-87263074D01*
X124926286Y-87373921D01*
X124772911Y-87684840D01*
X124683140Y-88019705D01*
X124660424Y-88365650D01*
X121310000Y-88365650D01*
X121310000Y-87083469D01*
X125383074Y-87083469D01*
X126428000Y-88128395D01*
X127472926Y-87083469D01*
X127362079Y-86806286D01*
X127051160Y-86652911D01*
X126716295Y-86563140D01*
X126370350Y-86540424D01*
X126026620Y-86585634D01*
X125698315Y-86697034D01*
X125493921Y-86806286D01*
X125383074Y-87083469D01*
X121310000Y-87083469D01*
X121310000Y-77183000D01*
X124664928Y-77183000D01*
X124664928Y-79433000D01*
X124677188Y-79557482D01*
X124713498Y-79677180D01*
X124772463Y-79787494D01*
X124851815Y-79884185D01*
X124948506Y-79963537D01*
X125058820Y-80022502D01*
X125178518Y-80058812D01*
X125303000Y-80071072D01*
X127553000Y-80071072D01*
X127677482Y-80058812D01*
X127797180Y-80022502D01*
X127907494Y-79963537D01*
X128004185Y-79884185D01*
X128083537Y-79787494D01*
X128142502Y-79677180D01*
X128178812Y-79557482D01*
X128191072Y-79433000D01*
X128191072Y-77183000D01*
X128178812Y-77058518D01*
X128142502Y-76938820D01*
X128083537Y-76828506D01*
X128004185Y-76731815D01*
X127907494Y-76652463D01*
X127797180Y-76593498D01*
X127677482Y-76557188D01*
X127553000Y-76544928D01*
X125303000Y-76544928D01*
X125178518Y-76557188D01*
X125058820Y-76593498D01*
X124948506Y-76652463D01*
X124851815Y-76731815D01*
X124772463Y-76828506D01*
X124713498Y-76938820D01*
X124677188Y-77058518D01*
X124664928Y-77183000D01*
X121310000Y-77183000D01*
X121310000Y-76232279D01*
X121348909Y-75835455D01*
X121454780Y-75484792D01*
X121626744Y-75161375D01*
X121858254Y-74877516D01*
X122140486Y-74644035D01*
X122462695Y-74469817D01*
X122812614Y-74361498D01*
X123207443Y-74320000D01*
X151170893Y-74320000D01*
X151014625Y-74424415D01*
G37*
X151014625Y-74424415D02*
X150878415Y-74560625D01*
X150771396Y-74720790D01*
X150697680Y-74898757D01*
X150660100Y-75087685D01*
X150660100Y-75280315D01*
X150697680Y-75469243D01*
X150771396Y-75647210D01*
X150857316Y-75775799D01*
X150861994Y-75823290D01*
X150907018Y-75971716D01*
X150980134Y-76108505D01*
X151078532Y-76228402D01*
X151108573Y-76253056D01*
X151203457Y-76347940D01*
X151097983Y-76418415D01*
X150961773Y-76554625D01*
X150854754Y-76714790D01*
X150781038Y-76892757D01*
X150743458Y-77081685D01*
X150743458Y-77274315D01*
X150781038Y-77463243D01*
X150854754Y-77641210D01*
X150961773Y-77801375D01*
X151097983Y-77937585D01*
X151258148Y-78044604D01*
X151436115Y-78118320D01*
X151587796Y-78148491D01*
X151624685Y-78178765D01*
X151761474Y-78251881D01*
X151837346Y-78274896D01*
X151890449Y-78327999D01*
X150097405Y-80121045D01*
X149975255Y-80083992D01*
X149802001Y-80066928D01*
X148901999Y-80066928D01*
X148728745Y-80083992D01*
X148562149Y-80134528D01*
X148408613Y-80216595D01*
X148274038Y-80327038D01*
X148163595Y-80461613D01*
X148081528Y-80615149D01*
X148030992Y-80781745D01*
X148013928Y-80954999D01*
X148013928Y-81605001D01*
X148030992Y-81778255D01*
X148081528Y-81944851D01*
X148163595Y-82098387D01*
X148274038Y-82232962D01*
X148361816Y-82305000D01*
X148295408Y-82359500D01*
X147382341Y-82359500D01*
X147381962Y-82359038D01*
X147375406Y-82353658D01*
X147455185Y-82288185D01*
X147534537Y-82191494D01*
X147593502Y-82081180D01*
X147629812Y-81961482D01*
X147642072Y-81837000D01*
X147639000Y-81547750D01*
X147480250Y-81389000D01*
X146431000Y-81389000D01*
X146431000Y-81409000D01*
X146177000Y-81409000D01*
X146177000Y-81389000D01*
X144145000Y-81389000D01*
X144145000Y-81409000D01*
X143891000Y-81409000D01*
X143891000Y-81389000D01*
X142841750Y-81389000D01*
X142683000Y-81547750D01*
X142679928Y-81837000D01*
X142692188Y-81961482D01*
X142728498Y-82081180D01*
X142787463Y-82191494D01*
X142866815Y-82288185D01*
X142946594Y-82353658D01*
X142940038Y-82359038D01*
X142939659Y-82359500D01*
X142464010Y-82359500D01*
X142336315Y-82334100D01*
X142143685Y-82334100D01*
X141954757Y-82371680D01*
X141776790Y-82445396D01*
X141616625Y-82552415D01*
X141480415Y-82688625D01*
X141373396Y-82848790D01*
X141299680Y-83026757D01*
X141262100Y-83215685D01*
X141262100Y-83408315D01*
X141299680Y-83597243D01*
X141373396Y-83775210D01*
X141480415Y-83935375D01*
X141616625Y-84071585D01*
X141776790Y-84178604D01*
X141954757Y-84252320D01*
X142143685Y-84289900D01*
X142336315Y-84289900D01*
X142464010Y-84264500D01*
X142939659Y-84264500D01*
X142940038Y-84264962D01*
X143074613Y-84375405D01*
X143228149Y-84457472D01*
X143394745Y-84508008D01*
X143567999Y-84525072D01*
X144468001Y-84525072D01*
X144641255Y-84508008D01*
X144807851Y-84457472D01*
X144961387Y-84375405D01*
X145095962Y-84264962D01*
X145096341Y-84264500D01*
X145225659Y-84264500D01*
X145226038Y-84264962D01*
X145351500Y-84367926D01*
X145351501Y-85457460D01*
X143051962Y-87757000D01*
X138684000Y-87757000D01*
X138597511Y-87765518D01*
X138641000Y-87546883D01*
X138641000Y-87205117D01*
X138574325Y-86869919D01*
X138443537Y-86554169D01*
X138253663Y-86270002D01*
X138011998Y-86028337D01*
X137727831Y-85838463D01*
X137412081Y-85707675D01*
X137076883Y-85641000D01*
X136735117Y-85641000D01*
X136399919Y-85707675D01*
X136084169Y-85838463D01*
X135800002Y-86028337D01*
X135558337Y-86270002D01*
X135368463Y-86554169D01*
X135237675Y-86869919D01*
X135171000Y-87205117D01*
X135171000Y-87546883D01*
X135237675Y-87882081D01*
X135368463Y-88197831D01*
X135558337Y-88481998D01*
X135800002Y-88723663D01*
X136084169Y-88913537D01*
X136399919Y-89044325D01*
X136735117Y-89111000D01*
X137076883Y-89111000D01*
X137412081Y-89044325D01*
X137727831Y-88913537D01*
X138011998Y-88723663D01*
X138049000Y-88686661D01*
X138049000Y-89281000D01*
X134366000Y-89281000D01*
X134242118Y-89293201D01*
X134122996Y-89329336D01*
X134013213Y-89388017D01*
X133916987Y-89466987D01*
X133838017Y-89563213D01*
X133779336Y-89672996D01*
X133744500Y-89787836D01*
X133744500Y-86173784D01*
X133749108Y-86126999D01*
X133730717Y-85940277D01*
X133713870Y-85884740D01*
X133676252Y-85760731D01*
X133587806Y-85595259D01*
X133468778Y-85450222D01*
X133432431Y-85420393D01*
X132724607Y-84712569D01*
X132694778Y-84676222D01*
X132549741Y-84557194D01*
X132505554Y-84533575D01*
X132395962Y-84400038D01*
X132389406Y-84394658D01*
X132469185Y-84329185D01*
X132548537Y-84232494D01*
X132607502Y-84122180D01*
X132643812Y-84002482D01*
X132656072Y-83878000D01*
X132653000Y-83588750D01*
X132494250Y-83430000D01*
X131445000Y-83430000D01*
X131445000Y-83450000D01*
X131191000Y-83450000D01*
X131191000Y-83430000D01*
X131171000Y-83430000D01*
X131171000Y-83176000D01*
X131191000Y-83176000D01*
X131191000Y-82251750D01*
X131445000Y-82251750D01*
X131445000Y-83176000D01*
X132494250Y-83176000D01*
X132653000Y-83017250D01*
X132656072Y-82728000D01*
X132643812Y-82603518D01*
X132607502Y-82483820D01*
X132548537Y-82373506D01*
X132469185Y-82276815D01*
X132372494Y-82197463D01*
X132262180Y-82138498D01*
X132142482Y-82102188D01*
X132018000Y-82089928D01*
X131603750Y-82093000D01*
X131445000Y-82251750D01*
X131191000Y-82251750D01*
X131032250Y-82093000D01*
X130618000Y-82089928D01*
X130493518Y-82102188D01*
X130373820Y-82138498D01*
X130263506Y-82197463D01*
X130166815Y-82276815D01*
X130087463Y-82373506D01*
X130028498Y-82483820D01*
X129992188Y-82603518D01*
X129985317Y-82673279D01*
X129979607Y-82667569D01*
X129949778Y-82631222D01*
X129804741Y-82512194D01*
X129639269Y-82423748D01*
X129472500Y-82373159D01*
X129472500Y-81424538D01*
X129801118Y-81095920D01*
X129909375Y-81023585D01*
X130045585Y-80887375D01*
X130152604Y-80727210D01*
X130169259Y-80687000D01*
X142679928Y-80687000D01*
X142683000Y-80976250D01*
X142841750Y-81135000D01*
X143891000Y-81135000D01*
X143891000Y-80210750D01*
X144145000Y-80210750D01*
X144145000Y-81135000D01*
X146177000Y-81135000D01*
X146177000Y-80210750D01*
X146431000Y-80210750D01*
X146431000Y-81135000D01*
X147480250Y-81135000D01*
X147639000Y-80976250D01*
X147642072Y-80687000D01*
X147629812Y-80562518D01*
X147593502Y-80442820D01*
X147534537Y-80332506D01*
X147455185Y-80235815D01*
X147358494Y-80156463D01*
X147248180Y-80097498D01*
X147128482Y-80061188D01*
X147004000Y-80048928D01*
X146589750Y-80052000D01*
X146431000Y-80210750D01*
X146177000Y-80210750D01*
X146018250Y-80052000D01*
X145604000Y-80048928D01*
X145479518Y-80061188D01*
X145359820Y-80097498D01*
X145249506Y-80156463D01*
X145161000Y-80229098D01*
X145072494Y-80156463D01*
X144962180Y-80097498D01*
X144842482Y-80061188D01*
X144718000Y-80048928D01*
X144303750Y-80052000D01*
X144145000Y-80210750D01*
X143891000Y-80210750D01*
X143732250Y-80052000D01*
X143318000Y-80048928D01*
X143193518Y-80061188D01*
X143073820Y-80097498D01*
X142963506Y-80156463D01*
X142866815Y-80235815D01*
X142787463Y-80332506D01*
X142728498Y-80442820D01*
X142692188Y-80562518D01*
X142679928Y-80687000D01*
X130169259Y-80687000D01*
X130226320Y-80549243D01*
X130263900Y-80360315D01*
X130263900Y-80167685D01*
X130226320Y-79978757D01*
X130152604Y-79800790D01*
X130045585Y-79640625D01*
X129909375Y-79504415D01*
X129749210Y-79397396D01*
X129571243Y-79323680D01*
X129382315Y-79286100D01*
X129189685Y-79286100D01*
X129000757Y-79323680D01*
X128822790Y-79397396D01*
X128662625Y-79504415D01*
X128526415Y-79640625D01*
X128454080Y-79748882D01*
X127879565Y-80323397D01*
X127843223Y-80353222D01*
X127813399Y-80389563D01*
X127724194Y-80498260D01*
X127635749Y-80663731D01*
X127581283Y-80843278D01*
X127562892Y-81030000D01*
X127567501Y-81076794D01*
X127567501Y-81958485D01*
X127549935Y-81940919D01*
X127261673Y-81748308D01*
X126941373Y-81615636D01*
X126601345Y-81548000D01*
X126254655Y-81548000D01*
X125914627Y-81615636D01*
X125594327Y-81748308D01*
X125306065Y-81940919D01*
X125060919Y-82186065D01*
X124868308Y-82474327D01*
X124735636Y-82794627D01*
X124668000Y-83134655D01*
X124668000Y-83481345D01*
X124735636Y-83821373D01*
X124868308Y-84141673D01*
X125060919Y-84429935D01*
X125306065Y-84675081D01*
X125594327Y-84867692D01*
X125914627Y-85000364D01*
X126254655Y-85068000D01*
X126601345Y-85068000D01*
X126941373Y-85000364D01*
X127261673Y-84867692D01*
X127549935Y-84675081D01*
X127795081Y-84429935D01*
X127908294Y-84260500D01*
X128473215Y-84260500D01*
X128520000Y-84265108D01*
X128566785Y-84260500D01*
X128878462Y-84260500D01*
X129979928Y-85361967D01*
X129979928Y-85678001D01*
X129996992Y-85851255D01*
X130047528Y-86017851D01*
X130129595Y-86171387D01*
X130240038Y-86305962D01*
X130374613Y-86416405D01*
X130528149Y-86498472D01*
X130694745Y-86549008D01*
X130867999Y-86566072D01*
X131768001Y-86566072D01*
X131839500Y-86559030D01*
X131839501Y-90398206D01*
X131839500Y-90398216D01*
X131839500Y-90462687D01*
X131747820Y-90490498D01*
X131637506Y-90549463D01*
X131540815Y-90628815D01*
X131461463Y-90725506D01*
X131402498Y-90835820D01*
X131366188Y-90955518D01*
X131353928Y-91080000D01*
X131353928Y-92280000D01*
X131366188Y-92404482D01*
X131402498Y-92524180D01*
X131461463Y-92634494D01*
X131540815Y-92731185D01*
X131637506Y-92810537D01*
X131673918Y-92830000D01*
X131637506Y-92849463D01*
X131540815Y-92928815D01*
X131461463Y-93025506D01*
X131402498Y-93135820D01*
X131366188Y-93255518D01*
X131353928Y-93380000D01*
X131353928Y-94580000D01*
X131366188Y-94704482D01*
X131402498Y-94824180D01*
X131461463Y-94934494D01*
X131540815Y-95031185D01*
X131637506Y-95110537D01*
X131673918Y-95130000D01*
X131637506Y-95149463D01*
X131540815Y-95228815D01*
X131461463Y-95325506D01*
X131402498Y-95435820D01*
X131366188Y-95555518D01*
X131353928Y-95680000D01*
X131357000Y-95994250D01*
X131515750Y-96153000D01*
X132665000Y-96153000D01*
X132665000Y-96133000D01*
X132919000Y-96133000D01*
X132919000Y-96153000D01*
X132939000Y-96153000D01*
X132939000Y-96407000D01*
X132919000Y-96407000D01*
X132919000Y-97356250D01*
X133077750Y-97515000D01*
X133592000Y-97518072D01*
X133716482Y-97505812D01*
X133731000Y-97501408D01*
X133731000Y-101092000D01*
X133743201Y-101215882D01*
X133779336Y-101335004D01*
X133838017Y-101444787D01*
X133916987Y-101541013D01*
X134013213Y-101619983D01*
X134122996Y-101678664D01*
X134242118Y-101714799D01*
X134366000Y-101727000D01*
X136767344Y-101727000D01*
X136727680Y-101822757D01*
X136699867Y-101962581D01*
X135614577Y-103047873D01*
X135584531Y-103072531D01*
X135486134Y-103192429D01*
X135413018Y-103329218D01*
X135367994Y-103477644D01*
X135356600Y-103593328D01*
X135356600Y-103593337D01*
X135352792Y-103632000D01*
X135356600Y-103670663D01*
X135356601Y-110709967D01*
X131718072Y-114348497D01*
X131718072Y-114003000D01*
X131696685Y-113785850D01*
X131633344Y-113577046D01*
X131530486Y-113384610D01*
X131392061Y-113215939D01*
X131223390Y-113077514D01*
X131030954Y-112974656D01*
X130822150Y-112911315D01*
X130605000Y-112889928D01*
X128255000Y-112889928D01*
X128037850Y-112911315D01*
X127829046Y-112974656D01*
X127636610Y-113077514D01*
X127467939Y-113215939D01*
X127329514Y-113384610D01*
X127226656Y-113577046D01*
X127163315Y-113785850D01*
X127141928Y-114003000D01*
X127141928Y-114953000D01*
X127163315Y-115170150D01*
X127226656Y-115378954D01*
X127329514Y-115571390D01*
X127467939Y-115740061D01*
X127539269Y-115798600D01*
X126620731Y-115798600D01*
X126692061Y-115740061D01*
X126830486Y-115571390D01*
X126933344Y-115378954D01*
X126996685Y-115170150D01*
X127018072Y-114953000D01*
X127018072Y-114003000D01*
X126996685Y-113785850D01*
X126933344Y-113577046D01*
X126830486Y-113384610D01*
X126692061Y-113215939D01*
X126523390Y-113077514D01*
X126330954Y-112974656D01*
X126122150Y-112911315D01*
X125905000Y-112889928D01*
X123555000Y-112889928D01*
X123337850Y-112911315D01*
X123129046Y-112974656D01*
X122936610Y-113077514D01*
X122767939Y-113215939D01*
X122629514Y-113384610D01*
X122526656Y-113577046D01*
X122463315Y-113785850D01*
X122441928Y-114003000D01*
X122441928Y-114953000D01*
X122463315Y-115170150D01*
X122526656Y-115378954D01*
X122629514Y-115571390D01*
X122767939Y-115740061D01*
X122936610Y-115878486D01*
X123129046Y-115981344D01*
X123337850Y-116044685D01*
X123555000Y-116066072D01*
X123621376Y-116066072D01*
X123144557Y-116542892D01*
X123117387Y-116520595D01*
X122963851Y-116438528D01*
X122797255Y-116387992D01*
X122624001Y-116370928D01*
X121723999Y-116370928D01*
X121550745Y-116387992D01*
X121384149Y-116438528D01*
X121310000Y-116478162D01*
X121310000Y-111723629D01*
X123591943Y-111723629D01*
X123603350Y-111848192D01*
X123638840Y-111968136D01*
X123697047Y-112078851D01*
X123775735Y-112176084D01*
X123871880Y-112256097D01*
X123981788Y-112315815D01*
X124101235Y-112352944D01*
X124198250Y-112363000D01*
X124357000Y-112204250D01*
X124357000Y-111506000D01*
X123753750Y-111506000D01*
X123595000Y-111664750D01*
X123591943Y-111723629D01*
X121310000Y-111723629D01*
X121310000Y-111057829D01*
X121546842Y-111155932D01*
X121833740Y-111213000D01*
X122126260Y-111213000D01*
X122413158Y-111155932D01*
X122683411Y-111043990D01*
X122926632Y-110881475D01*
X122948897Y-110859210D01*
X124194500Y-110859210D01*
X124197141Y-110886029D01*
X124197125Y-110888389D01*
X124197991Y-110897220D01*
X124202008Y-110935436D01*
X124203696Y-110952579D01*
X124203869Y-110953151D01*
X124206151Y-110974859D01*
X124217733Y-111031284D01*
X124228526Y-111087860D01*
X124231089Y-111096349D01*
X124231090Y-111096353D01*
X124231091Y-111096355D01*
X124254176Y-111170930D01*
X124276494Y-111224022D01*
X124298072Y-111277429D01*
X124302237Y-111285263D01*
X124339367Y-111353934D01*
X124371570Y-111401676D01*
X124403115Y-111449883D01*
X124408723Y-111456759D01*
X124458484Y-111516910D01*
X124499335Y-111557476D01*
X124539655Y-111598650D01*
X124546492Y-111604306D01*
X124606989Y-111653646D01*
X124654962Y-111685519D01*
X124702490Y-111718062D01*
X124710295Y-111722282D01*
X124779224Y-111758932D01*
X124832489Y-111780886D01*
X124885412Y-111803569D01*
X124893890Y-111806193D01*
X124893894Y-111806195D01*
X124893899Y-111806196D01*
X124968623Y-111828757D01*
X125025125Y-111839946D01*
X125081467Y-111851921D01*
X125090283Y-111852848D01*
X125090288Y-111852849D01*
X125090292Y-111852849D01*
X125167986Y-111860467D01*
X125195773Y-111860467D01*
X125223402Y-111863466D01*
X125232275Y-111863496D01*
X125235068Y-111863486D01*
X125262654Y-111860681D01*
X125290389Y-111860875D01*
X125299220Y-111860009D01*
X125376859Y-111851849D01*
X125433284Y-111840267D01*
X125489860Y-111829474D01*
X125498349Y-111826911D01*
X125498353Y-111826910D01*
X125498356Y-111826909D01*
X125572930Y-111803824D01*
X125626022Y-111781506D01*
X125679429Y-111759928D01*
X125687263Y-111755763D01*
X125755934Y-111718633D01*
X125803676Y-111686430D01*
X125851883Y-111654885D01*
X125858759Y-111649277D01*
X125918910Y-111599516D01*
X125959476Y-111558665D01*
X126000650Y-111518345D01*
X126006306Y-111511508D01*
X126010798Y-111506000D01*
X126103000Y-111506000D01*
X126103000Y-112204250D01*
X126261750Y-112363000D01*
X126358765Y-112352944D01*
X126478212Y-112315815D01*
X126588120Y-112256097D01*
X126684265Y-112176084D01*
X126762953Y-112078851D01*
X126821160Y-111968136D01*
X126856650Y-111848192D01*
X126868057Y-111723629D01*
X126865000Y-111664750D01*
X126706250Y-111506000D01*
X126103000Y-111506000D01*
X126010798Y-111506000D01*
X126055646Y-111451011D01*
X126087519Y-111403038D01*
X126120062Y-111355510D01*
X126124282Y-111347705D01*
X126160932Y-111278776D01*
X126182886Y-111225511D01*
X126205569Y-111172588D01*
X126208193Y-111164111D01*
X126230757Y-111089377D01*
X126241946Y-111032875D01*
X126253921Y-110976533D01*
X126254849Y-110967708D01*
X126262467Y-110890014D01*
X126262467Y-110890006D01*
X126265500Y-110859211D01*
X126265500Y-109554655D01*
X129470000Y-109554655D01*
X129470000Y-109901345D01*
X129537636Y-110241373D01*
X129670308Y-110561673D01*
X129862919Y-110849935D01*
X130108065Y-111095081D01*
X130396327Y-111287692D01*
X130716627Y-111420364D01*
X131056655Y-111488000D01*
X131403345Y-111488000D01*
X131743373Y-111420364D01*
X132063673Y-111287692D01*
X132351935Y-111095081D01*
X132597081Y-110849935D01*
X132789692Y-110561673D01*
X132922364Y-110241373D01*
X132990000Y-109901345D01*
X132990000Y-109554655D01*
X132922364Y-109214627D01*
X132789692Y-108894327D01*
X132597081Y-108606065D01*
X132351935Y-108360919D01*
X132063673Y-108168308D01*
X131743373Y-108035636D01*
X131403345Y-107968000D01*
X131056655Y-107968000D01*
X130716627Y-108035636D01*
X130396327Y-108168308D01*
X130108065Y-108360919D01*
X129862919Y-108606065D01*
X129670308Y-108894327D01*
X129537636Y-109214627D01*
X129470000Y-109554655D01*
X126265500Y-109554655D01*
X126265500Y-108596789D01*
X126262859Y-108569970D01*
X126262875Y-108567611D01*
X126262009Y-108558780D01*
X126257995Y-108520587D01*
X126256304Y-108503420D01*
X126256130Y-108502847D01*
X126253849Y-108481142D01*
X126242271Y-108424737D01*
X126231474Y-108368139D01*
X126228910Y-108359646D01*
X126228909Y-108359644D01*
X126205824Y-108285070D01*
X126183506Y-108231978D01*
X126161928Y-108178571D01*
X126157762Y-108170736D01*
X126120633Y-108102066D01*
X126088420Y-108054308D01*
X126056885Y-108006117D01*
X126051277Y-107999241D01*
X126001516Y-107939090D01*
X125960665Y-107898524D01*
X125920345Y-107857350D01*
X125913508Y-107851694D01*
X125853011Y-107802354D01*
X125805012Y-107770464D01*
X125757510Y-107737939D01*
X125749705Y-107733718D01*
X125680776Y-107697068D01*
X125627511Y-107675114D01*
X125574588Y-107652431D01*
X125566111Y-107649807D01*
X125566108Y-107649806D01*
X125566106Y-107649805D01*
X125566101Y-107649804D01*
X125491377Y-107627243D01*
X125434882Y-107616056D01*
X125378533Y-107604079D01*
X125369715Y-107603152D01*
X125369712Y-107603151D01*
X125369709Y-107603151D01*
X125292014Y-107595533D01*
X125264227Y-107595533D01*
X125236598Y-107592534D01*
X125227725Y-107592504D01*
X125224932Y-107592514D01*
X125197346Y-107595319D01*
X125169611Y-107595125D01*
X125160780Y-107595991D01*
X125083142Y-107604151D01*
X125026737Y-107615729D01*
X124970139Y-107626526D01*
X124961651Y-107629089D01*
X124961647Y-107629090D01*
X124961644Y-107629091D01*
X124961645Y-107629091D01*
X124887070Y-107652176D01*
X124833978Y-107674494D01*
X124780571Y-107696072D01*
X124772736Y-107700238D01*
X124704066Y-107737367D01*
X124656308Y-107769580D01*
X124608117Y-107801115D01*
X124601241Y-107806723D01*
X124541090Y-107856484D01*
X124500524Y-107897335D01*
X124459350Y-107937655D01*
X124453694Y-107944492D01*
X124404354Y-108004989D01*
X124372464Y-108052988D01*
X124339939Y-108100490D01*
X124335718Y-108108295D01*
X124299068Y-108177224D01*
X124277114Y-108230489D01*
X124254431Y-108283412D01*
X124251807Y-108291889D01*
X124229243Y-108366623D01*
X124218056Y-108423118D01*
X124206079Y-108479467D01*
X124205151Y-108488291D01*
X124197533Y-108565986D01*
X124197533Y-108566004D01*
X124194501Y-108596789D01*
X124194500Y-110859210D01*
X122948897Y-110859210D01*
X123133475Y-110674632D01*
X123295990Y-110431411D01*
X123407932Y-110161158D01*
X123465000Y-109874260D01*
X123465000Y-109581740D01*
X123407932Y-109294842D01*
X123295990Y-109024589D01*
X123133475Y-108781368D01*
X122926632Y-108574525D01*
X122683411Y-108412010D01*
X122413158Y-108300068D01*
X122126260Y-108243000D01*
X121833740Y-108243000D01*
X121546842Y-108300068D01*
X121310000Y-108398171D01*
X121310000Y-107732371D01*
X123591943Y-107732371D01*
X123595000Y-107791250D01*
X123753750Y-107950000D01*
X124357000Y-107950000D01*
X124357000Y-107251750D01*
X126103000Y-107251750D01*
X126103000Y-107950000D01*
X126706250Y-107950000D01*
X126865000Y-107791250D01*
X126868057Y-107732371D01*
X126856650Y-107607808D01*
X126821160Y-107487864D01*
X126762953Y-107377149D01*
X126684265Y-107279916D01*
X126588120Y-107199903D01*
X126478212Y-107140185D01*
X126358765Y-107103056D01*
X126261750Y-107093000D01*
X126103000Y-107251750D01*
X124357000Y-107251750D01*
X124198250Y-107093000D01*
X124101235Y-107103056D01*
X123981788Y-107140185D01*
X123871880Y-107199903D01*
X123775735Y-107279916D01*
X123697047Y-107377149D01*
X123638840Y-107487864D01*
X123603350Y-107607808D01*
X123591943Y-107732371D01*
X121310000Y-107732371D01*
X121310000Y-104503000D01*
X122441928Y-104503000D01*
X122441928Y-105453000D01*
X122463315Y-105670150D01*
X122526656Y-105878954D01*
X122629514Y-106071390D01*
X122767939Y-106240061D01*
X122936610Y-106378486D01*
X123129046Y-106481344D01*
X123337850Y-106544685D01*
X123555000Y-106566072D01*
X125905000Y-106566072D01*
X126122150Y-106544685D01*
X126330954Y-106481344D01*
X126523390Y-106378486D01*
X126692061Y-106240061D01*
X126830486Y-106071390D01*
X126933344Y-105878954D01*
X126996685Y-105670150D01*
X127018072Y-105453000D01*
X127018072Y-104503000D01*
X127141928Y-104503000D01*
X127141928Y-105453000D01*
X127163315Y-105670150D01*
X127226656Y-105878954D01*
X127329514Y-106071390D01*
X127467939Y-106240061D01*
X127636610Y-106378486D01*
X127829046Y-106481344D01*
X128037850Y-106544685D01*
X128255000Y-106566072D01*
X130605000Y-106566072D01*
X130822150Y-106544685D01*
X131030954Y-106481344D01*
X131223390Y-106378486D01*
X131392061Y-106240061D01*
X131530486Y-106071390D01*
X131633344Y-105878954D01*
X131696685Y-105670150D01*
X131718072Y-105453000D01*
X131718072Y-104503000D01*
X131696685Y-104285850D01*
X131633344Y-104077046D01*
X131530486Y-103884610D01*
X131392061Y-103715939D01*
X131223390Y-103577514D01*
X131030954Y-103474656D01*
X130822150Y-103411315D01*
X130605000Y-103389928D01*
X128255000Y-103389928D01*
X128037850Y-103411315D01*
X127829046Y-103474656D01*
X127636610Y-103577514D01*
X127467939Y-103715939D01*
X127329514Y-103884610D01*
X127226656Y-104077046D01*
X127163315Y-104285850D01*
X127141928Y-104503000D01*
X127018072Y-104503000D01*
X126996685Y-104285850D01*
X126933344Y-104077046D01*
X126830486Y-103884610D01*
X126692061Y-103715939D01*
X126523390Y-103577514D01*
X126330954Y-103474656D01*
X126122150Y-103411315D01*
X125905000Y-103389928D01*
X123555000Y-103389928D01*
X123337850Y-103411315D01*
X123129046Y-103474656D01*
X122936610Y-103577514D01*
X122767939Y-103715939D01*
X122629514Y-103884610D01*
X122526656Y-104077046D01*
X122463315Y-104285850D01*
X122441928Y-104503000D01*
X121310000Y-104503000D01*
X121310000Y-99643281D01*
X124167140Y-99643281D01*
X124286625Y-99860603D01*
X124601223Y-99929563D01*
X124923229Y-99935822D01*
X125240269Y-99879140D01*
X125301375Y-99860603D01*
X125420860Y-99643281D01*
X124794000Y-99016420D01*
X124167140Y-99643281D01*
X121310000Y-99643281D01*
X121310000Y-98427229D01*
X123156178Y-98427229D01*
X123212860Y-98744269D01*
X123231397Y-98805375D01*
X123448719Y-98924860D01*
X124075580Y-98298000D01*
X125512420Y-98298000D01*
X126139281Y-98924860D01*
X126356603Y-98805375D01*
X126425563Y-98490777D01*
X126431822Y-98168771D01*
X126375140Y-97851731D01*
X126356603Y-97790625D01*
X126139281Y-97671140D01*
X125512420Y-98298000D01*
X124075580Y-98298000D01*
X123448719Y-97671140D01*
X123231397Y-97790625D01*
X123162437Y-98105223D01*
X123156178Y-98427229D01*
X121310000Y-98427229D01*
X121310000Y-96952719D01*
X124167140Y-96952719D01*
X124794000Y-97579580D01*
X125075579Y-97298000D01*
X128155928Y-97298000D01*
X128155928Y-99298000D01*
X128168188Y-99422482D01*
X128204498Y-99542180D01*
X128263463Y-99652494D01*
X128342815Y-99749185D01*
X128439506Y-99828537D01*
X128549820Y-99887502D01*
X128669518Y-99923812D01*
X128794000Y-99936072D01*
X130794000Y-99936072D01*
X130918482Y-99923812D01*
X131038180Y-99887502D01*
X131148494Y-99828537D01*
X131245185Y-99749185D01*
X131324537Y-99652494D01*
X131383502Y-99542180D01*
X131419812Y-99422482D01*
X131432072Y-99298000D01*
X131432072Y-97298000D01*
X131419812Y-97173518D01*
X131407926Y-97134335D01*
X131461463Y-97234494D01*
X131540815Y-97331185D01*
X131637506Y-97410537D01*
X131747820Y-97469502D01*
X131867518Y-97505812D01*
X131992000Y-97518072D01*
X132506250Y-97515000D01*
X132665000Y-97356250D01*
X132665000Y-96407000D01*
X131515750Y-96407000D01*
X131357000Y-96565750D01*
X131353928Y-96880000D01*
X131366188Y-97004482D01*
X131378074Y-97043665D01*
X131324537Y-96943506D01*
X131245185Y-96846815D01*
X131148494Y-96767463D01*
X131038180Y-96708498D01*
X130918482Y-96672188D01*
X130794000Y-96659928D01*
X128794000Y-96659928D01*
X128669518Y-96672188D01*
X128549820Y-96708498D01*
X128439506Y-96767463D01*
X128342815Y-96846815D01*
X128263463Y-96943506D01*
X128204498Y-97053820D01*
X128168188Y-97173518D01*
X128155928Y-97298000D01*
X125075579Y-97298000D01*
X125420860Y-96952719D01*
X125301375Y-96735397D01*
X124986777Y-96666437D01*
X124664771Y-96660178D01*
X124347731Y-96716860D01*
X124286625Y-96735397D01*
X124167140Y-96952719D01*
X121310000Y-96952719D01*
X121310000Y-89532531D01*
X125383074Y-89532531D01*
X125493921Y-89809714D01*
X125804840Y-89963089D01*
X126139705Y-90052860D01*
X126485650Y-90075576D01*
X126829380Y-90030366D01*
X127157685Y-89918966D01*
X127362079Y-89809714D01*
X127472926Y-89532531D01*
X126428000Y-88487605D01*
X125383074Y-89532531D01*
X121310000Y-89532531D01*
X121310000Y-88365650D01*
X124660424Y-88365650D01*
X124705634Y-88709380D01*
X124817034Y-89037685D01*
X124926286Y-89242079D01*
X125203469Y-89352926D01*
X126248395Y-88308000D01*
X126607605Y-88308000D01*
X127652531Y-89352926D01*
X127929714Y-89242079D01*
X128083089Y-88931160D01*
X128172860Y-88596295D01*
X128195576Y-88250350D01*
X128150366Y-87906620D01*
X128038966Y-87578315D01*
X127929714Y-87373921D01*
X127652531Y-87263074D01*
X126607605Y-88308000D01*
X126248395Y-88308000D01*
X125203469Y-87263074D01*
X124926286Y-87373921D01*
X124772911Y-87684840D01*
X124683140Y-88019705D01*
X124660424Y-88365650D01*
X121310000Y-88365650D01*
X121310000Y-87083469D01*
X125383074Y-87083469D01*
X126428000Y-88128395D01*
X127472926Y-87083469D01*
X127362079Y-86806286D01*
X127051160Y-86652911D01*
X126716295Y-86563140D01*
X126370350Y-86540424D01*
X126026620Y-86585634D01*
X125698315Y-86697034D01*
X125493921Y-86806286D01*
X125383074Y-87083469D01*
X121310000Y-87083469D01*
X121310000Y-77183000D01*
X124664928Y-77183000D01*
X124664928Y-79433000D01*
X124677188Y-79557482D01*
X124713498Y-79677180D01*
X124772463Y-79787494D01*
X124851815Y-79884185D01*
X124948506Y-79963537D01*
X125058820Y-80022502D01*
X125178518Y-80058812D01*
X125303000Y-80071072D01*
X127553000Y-80071072D01*
X127677482Y-80058812D01*
X127797180Y-80022502D01*
X127907494Y-79963537D01*
X128004185Y-79884185D01*
X128083537Y-79787494D01*
X128142502Y-79677180D01*
X128178812Y-79557482D01*
X128191072Y-79433000D01*
X128191072Y-77183000D01*
X128178812Y-77058518D01*
X128142502Y-76938820D01*
X128083537Y-76828506D01*
X128004185Y-76731815D01*
X127907494Y-76652463D01*
X127797180Y-76593498D01*
X127677482Y-76557188D01*
X127553000Y-76544928D01*
X125303000Y-76544928D01*
X125178518Y-76557188D01*
X125058820Y-76593498D01*
X124948506Y-76652463D01*
X124851815Y-76731815D01*
X124772463Y-76828506D01*
X124713498Y-76938820D01*
X124677188Y-77058518D01*
X124664928Y-77183000D01*
X121310000Y-77183000D01*
X121310000Y-76232279D01*
X121348909Y-75835455D01*
X121454780Y-75484792D01*
X121626744Y-75161375D01*
X121858254Y-74877516D01*
X122140486Y-74644035D01*
X122462695Y-74469817D01*
X122812614Y-74361498D01*
X123207443Y-74320000D01*
X151170893Y-74320000D01*
X151014625Y-74424415D01*
G36*
X148274038Y-84282962D02*
G01*
X148408613Y-84393405D01*
X148562149Y-84475472D01*
X148728745Y-84526008D01*
X148901999Y-84543072D01*
X149802001Y-84543072D01*
X149841632Y-84539169D01*
X149860018Y-84599782D01*
X149860019Y-84599783D01*
X149933135Y-84736572D01*
X150031532Y-84856469D01*
X150061573Y-84881123D01*
X156323401Y-91142952D01*
X156323402Y-99160128D01*
X156319593Y-99198801D01*
X156334796Y-99353158D01*
X156379819Y-99501583D01*
X156418999Y-99574882D01*
X156452936Y-99638373D01*
X156551333Y-99758270D01*
X156581374Y-99782924D01*
X159842362Y-103043912D01*
X159805000Y-103231740D01*
X159805000Y-103524260D01*
X159862068Y-103811158D01*
X159974010Y-104081411D01*
X160136525Y-104324632D01*
X160343368Y-104531475D01*
X160517760Y-104648000D01*
X160343368Y-104764525D01*
X160136525Y-104971368D01*
X159974010Y-105214589D01*
X159862068Y-105484842D01*
X159805000Y-105771740D01*
X159805000Y-106055961D01*
X157847462Y-108013500D01*
X152794538Y-108013500D01*
X150357038Y-105576000D01*
X152435928Y-105576000D01*
X152435928Y-107276000D01*
X152448188Y-107400482D01*
X152484498Y-107520180D01*
X152543463Y-107630494D01*
X152622815Y-107727185D01*
X152719506Y-107806537D01*
X152829820Y-107865502D01*
X152949518Y-107901812D01*
X153074000Y-107914072D01*
X154774000Y-107914072D01*
X154898482Y-107901812D01*
X155018180Y-107865502D01*
X155128494Y-107806537D01*
X155225185Y-107727185D01*
X155304537Y-107630494D01*
X155363502Y-107520180D01*
X155399812Y-107400482D01*
X155412072Y-107276000D01*
X155412072Y-105576000D01*
X155399812Y-105451518D01*
X155363502Y-105331820D01*
X155304537Y-105221506D01*
X155225185Y-105124815D01*
X155128494Y-105045463D01*
X155018180Y-104986498D01*
X154945620Y-104964487D01*
X155077475Y-104832632D01*
X155239990Y-104589411D01*
X155351932Y-104319158D01*
X155409000Y-104032260D01*
X155409000Y-103739740D01*
X155351932Y-103452842D01*
X155239990Y-103182589D01*
X155077475Y-102939368D01*
X154870632Y-102732525D01*
X154696240Y-102616000D01*
X154870632Y-102499475D01*
X155077475Y-102292632D01*
X155239990Y-102049411D01*
X155351932Y-101779158D01*
X155409000Y-101492260D01*
X155409000Y-101199740D01*
X155351932Y-100912842D01*
X155239990Y-100642589D01*
X155077475Y-100399368D01*
X154870632Y-100192525D01*
X154696240Y-100076000D01*
X154870632Y-99959475D01*
X155077475Y-99752632D01*
X155239990Y-99509411D01*
X155351932Y-99239158D01*
X155409000Y-98952260D01*
X155409000Y-98659740D01*
X155351932Y-98372842D01*
X155239990Y-98102589D01*
X155077475Y-97859368D01*
X154870632Y-97652525D01*
X154696240Y-97536000D01*
X154870632Y-97419475D01*
X155077475Y-97212632D01*
X155239990Y-96969411D01*
X155351932Y-96699158D01*
X155409000Y-96412260D01*
X155409000Y-96119740D01*
X155351932Y-95832842D01*
X155239990Y-95562589D01*
X155077475Y-95319368D01*
X154870632Y-95112525D01*
X154696240Y-94996000D01*
X154870632Y-94879475D01*
X155077475Y-94672632D01*
X155239990Y-94429411D01*
X155351932Y-94159158D01*
X155409000Y-93872260D01*
X155409000Y-93579740D01*
X155351932Y-93292842D01*
X155239990Y-93022589D01*
X155077475Y-92779368D01*
X154870632Y-92572525D01*
X154696240Y-92456000D01*
X154870632Y-92339475D01*
X155077475Y-92132632D01*
X155239990Y-91889411D01*
X155351932Y-91619158D01*
X155409000Y-91332260D01*
X155409000Y-91039740D01*
X155351932Y-90752842D01*
X155239990Y-90482589D01*
X155077475Y-90239368D01*
X154870632Y-90032525D01*
X154627411Y-89870010D01*
X154357158Y-89758068D01*
X154070260Y-89701000D01*
X153777740Y-89701000D01*
X153490842Y-89758068D01*
X153220589Y-89870010D01*
X152977368Y-90032525D01*
X152770525Y-90239368D01*
X152608010Y-90482589D01*
X152496068Y-90752842D01*
X152439000Y-91039740D01*
X152439000Y-91332260D01*
X152496068Y-91619158D01*
X152608010Y-91889411D01*
X152770525Y-92132632D01*
X152977368Y-92339475D01*
X153151760Y-92456000D01*
X152977368Y-92572525D01*
X152770525Y-92779368D01*
X152608010Y-93022589D01*
X152496068Y-93292842D01*
X152439000Y-93579740D01*
X152439000Y-93872260D01*
X152496068Y-94159158D01*
X152608010Y-94429411D01*
X152770525Y-94672632D01*
X152977368Y-94879475D01*
X153151760Y-94996000D01*
X152977368Y-95112525D01*
X152770525Y-95319368D01*
X152608010Y-95562589D01*
X152496068Y-95832842D01*
X152439000Y-96119740D01*
X152439000Y-96412260D01*
X152496068Y-96699158D01*
X152608010Y-96969411D01*
X152770525Y-97212632D01*
X152977368Y-97419475D01*
X153151760Y-97536000D01*
X152977368Y-97652525D01*
X152770525Y-97859368D01*
X152608010Y-98102589D01*
X152496068Y-98372842D01*
X152439000Y-98659740D01*
X152439000Y-98952260D01*
X152496068Y-99239158D01*
X152608010Y-99509411D01*
X152770525Y-99752632D01*
X152977368Y-99959475D01*
X153151760Y-100076000D01*
X152977368Y-100192525D01*
X152770525Y-100399368D01*
X152608010Y-100642589D01*
X152496068Y-100912842D01*
X152439000Y-101199740D01*
X152439000Y-101492260D01*
X152496068Y-101779158D01*
X152608010Y-102049411D01*
X152770525Y-102292632D01*
X152977368Y-102499475D01*
X153151760Y-102616000D01*
X152977368Y-102732525D01*
X152770525Y-102939368D01*
X152608010Y-103182589D01*
X152496068Y-103452842D01*
X152439000Y-103739740D01*
X152439000Y-104032260D01*
X152496068Y-104319158D01*
X152608010Y-104589411D01*
X152770525Y-104832632D01*
X152902380Y-104964487D01*
X152829820Y-104986498D01*
X152719506Y-105045463D01*
X152622815Y-105124815D01*
X152543463Y-105221506D01*
X152484498Y-105331820D01*
X152448188Y-105451518D01*
X152435928Y-105576000D01*
X150357038Y-105576000D01*
X146560292Y-101779254D01*
X146530463Y-101742907D01*
X146385426Y-101623879D01*
X146219954Y-101535433D01*
X146040408Y-101480968D01*
X145900470Y-101467185D01*
X145853685Y-101462577D01*
X145806900Y-101467185D01*
X141814853Y-101467185D01*
X141585991Y-101238323D01*
X141592799Y-101215882D01*
X141605000Y-101092000D01*
X141605000Y-100953849D01*
X141814273Y-101093680D01*
X142075426Y-101201853D01*
X142352665Y-101257000D01*
X142635335Y-101257000D01*
X142912574Y-101201853D01*
X143173727Y-101093680D01*
X143408759Y-100936637D01*
X143608637Y-100736759D01*
X143764000Y-100504241D01*
X143919363Y-100736759D01*
X144119241Y-100936637D01*
X144354273Y-101093680D01*
X144615426Y-101201853D01*
X144892665Y-101257000D01*
X145175335Y-101257000D01*
X145452574Y-101201853D01*
X145713727Y-101093680D01*
X145948759Y-100936637D01*
X146148637Y-100736759D01*
X146305680Y-100501727D01*
X146310067Y-100491135D01*
X146421615Y-100677131D01*
X146610586Y-100885519D01*
X146836580Y-101053037D01*
X147090913Y-101173246D01*
X147224961Y-101213904D01*
X147447000Y-101091915D01*
X147447000Y-99949000D01*
X147701000Y-99949000D01*
X147701000Y-101091915D01*
X147923039Y-101213904D01*
X148057087Y-101173246D01*
X148311420Y-101053037D01*
X148537414Y-100885519D01*
X148726385Y-100677131D01*
X148871070Y-100435881D01*
X148965909Y-100171040D01*
X148844624Y-99949000D01*
X147701000Y-99949000D01*
X147447000Y-99949000D01*
X147427000Y-99949000D01*
X147427000Y-99695000D01*
X147447000Y-99695000D01*
X147447000Y-98552085D01*
X147701000Y-98552085D01*
X147701000Y-99695000D01*
X148844624Y-99695000D01*
X148965909Y-99472960D01*
X148871070Y-99208119D01*
X148726385Y-98966869D01*
X148537414Y-98758481D01*
X148311420Y-98590963D01*
X148057087Y-98470754D01*
X147923039Y-98430096D01*
X147701000Y-98552085D01*
X147447000Y-98552085D01*
X147224961Y-98430096D01*
X147090913Y-98470754D01*
X146836580Y-98590963D01*
X146621399Y-98750466D01*
X146621399Y-95772661D01*
X146625207Y-95733998D01*
X146621399Y-95695335D01*
X146621399Y-95695326D01*
X146610005Y-95579642D01*
X146564981Y-95431216D01*
X146491865Y-95294427D01*
X146458606Y-95253901D01*
X146418120Y-95204568D01*
X146418118Y-95204566D01*
X146393468Y-95174530D01*
X146363433Y-95149881D01*
X145430955Y-94217404D01*
X145468008Y-94095255D01*
X145485072Y-93922001D01*
X145485072Y-93021999D01*
X145468008Y-92848745D01*
X145417472Y-92682149D01*
X145335405Y-92528613D01*
X145224962Y-92394038D01*
X145090387Y-92283595D01*
X145059400Y-92267032D01*
X145059400Y-92020150D01*
X147719419Y-89360133D01*
X147859243Y-89332320D01*
X148037210Y-89258604D01*
X148197375Y-89151585D01*
X148333585Y-89015375D01*
X148440604Y-88855210D01*
X148514320Y-88677243D01*
X148551900Y-88488315D01*
X148551900Y-88295685D01*
X148514320Y-88106757D01*
X148440604Y-87928790D01*
X148333585Y-87768625D01*
X148197375Y-87632415D01*
X148037210Y-87525396D01*
X147859243Y-87451680D01*
X147670315Y-87414100D01*
X147477685Y-87414100D01*
X147288757Y-87451680D01*
X147110790Y-87525396D01*
X146950625Y-87632415D01*
X146814415Y-87768625D01*
X146707396Y-87928790D01*
X146633680Y-88106757D01*
X146605867Y-88246581D01*
X144145000Y-90707450D01*
X144145000Y-89358038D01*
X146944436Y-86558603D01*
X146980778Y-86528778D01*
X147099806Y-86383741D01*
X147188252Y-86218269D01*
X147242717Y-86038723D01*
X147256500Y-85898785D01*
X147261108Y-85852001D01*
X147256500Y-85805216D01*
X147256500Y-84367926D01*
X147381962Y-84264962D01*
X147382341Y-84264500D01*
X148258887Y-84264500D01*
X148274038Y-84282962D01*
G37*
X148274038Y-84282962D02*
X148408613Y-84393405D01*
X148562149Y-84475472D01*
X148728745Y-84526008D01*
X148901999Y-84543072D01*
X149802001Y-84543072D01*
X149841632Y-84539169D01*
X149860018Y-84599782D01*
X149860019Y-84599783D01*
X149933135Y-84736572D01*
X150031532Y-84856469D01*
X150061573Y-84881123D01*
X156323401Y-91142952D01*
X156323402Y-99160128D01*
X156319593Y-99198801D01*
X156334796Y-99353158D01*
X156379819Y-99501583D01*
X156418999Y-99574882D01*
X156452936Y-99638373D01*
X156551333Y-99758270D01*
X156581374Y-99782924D01*
X159842362Y-103043912D01*
X159805000Y-103231740D01*
X159805000Y-103524260D01*
X159862068Y-103811158D01*
X159974010Y-104081411D01*
X160136525Y-104324632D01*
X160343368Y-104531475D01*
X160517760Y-104648000D01*
X160343368Y-104764525D01*
X160136525Y-104971368D01*
X159974010Y-105214589D01*
X159862068Y-105484842D01*
X159805000Y-105771740D01*
X159805000Y-106055961D01*
X157847462Y-108013500D01*
X152794538Y-108013500D01*
X150357038Y-105576000D01*
X152435928Y-105576000D01*
X152435928Y-107276000D01*
X152448188Y-107400482D01*
X152484498Y-107520180D01*
X152543463Y-107630494D01*
X152622815Y-107727185D01*
X152719506Y-107806537D01*
X152829820Y-107865502D01*
X152949518Y-107901812D01*
X153074000Y-107914072D01*
X154774000Y-107914072D01*
X154898482Y-107901812D01*
X155018180Y-107865502D01*
X155128494Y-107806537D01*
X155225185Y-107727185D01*
X155304537Y-107630494D01*
X155363502Y-107520180D01*
X155399812Y-107400482D01*
X155412072Y-107276000D01*
X155412072Y-105576000D01*
X155399812Y-105451518D01*
X155363502Y-105331820D01*
X155304537Y-105221506D01*
X155225185Y-105124815D01*
X155128494Y-105045463D01*
X155018180Y-104986498D01*
X154945620Y-104964487D01*
X155077475Y-104832632D01*
X155239990Y-104589411D01*
X155351932Y-104319158D01*
X155409000Y-104032260D01*
X155409000Y-103739740D01*
X155351932Y-103452842D01*
X155239990Y-103182589D01*
X155077475Y-102939368D01*
X154870632Y-102732525D01*
X154696240Y-102616000D01*
X154870632Y-102499475D01*
X155077475Y-102292632D01*
X155239990Y-102049411D01*
X155351932Y-101779158D01*
X155409000Y-101492260D01*
X155409000Y-101199740D01*
X155351932Y-100912842D01*
X155239990Y-100642589D01*
X155077475Y-100399368D01*
X154870632Y-100192525D01*
X154696240Y-100076000D01*
X154870632Y-99959475D01*
X155077475Y-99752632D01*
X155239990Y-99509411D01*
X155351932Y-99239158D01*
X155409000Y-98952260D01*
X155409000Y-98659740D01*
X155351932Y-98372842D01*
X155239990Y-98102589D01*
X155077475Y-97859368D01*
X154870632Y-97652525D01*
X154696240Y-97536000D01*
X154870632Y-97419475D01*
X155077475Y-97212632D01*
X155239990Y-96969411D01*
X155351932Y-96699158D01*
X155409000Y-96412260D01*
X155409000Y-96119740D01*
X155351932Y-95832842D01*
X155239990Y-95562589D01*
X155077475Y-95319368D01*
X154870632Y-95112525D01*
X154696240Y-94996000D01*
X154870632Y-94879475D01*
X155077475Y-94672632D01*
X155239990Y-94429411D01*
X155351932Y-94159158D01*
X155409000Y-93872260D01*
X155409000Y-93579740D01*
X155351932Y-93292842D01*
X155239990Y-93022589D01*
X155077475Y-92779368D01*
X154870632Y-92572525D01*
X154696240Y-92456000D01*
X154870632Y-92339475D01*
X155077475Y-92132632D01*
X155239990Y-91889411D01*
X155351932Y-91619158D01*
X155409000Y-91332260D01*
X155409000Y-91039740D01*
X155351932Y-90752842D01*
X155239990Y-90482589D01*
X155077475Y-90239368D01*
X154870632Y-90032525D01*
X154627411Y-89870010D01*
X154357158Y-89758068D01*
X154070260Y-89701000D01*
X153777740Y-89701000D01*
X153490842Y-89758068D01*
X153220589Y-89870010D01*
X152977368Y-90032525D01*
X152770525Y-90239368D01*
X152608010Y-90482589D01*
X152496068Y-90752842D01*
X152439000Y-91039740D01*
X152439000Y-91332260D01*
X152496068Y-91619158D01*
X152608010Y-91889411D01*
X152770525Y-92132632D01*
X152977368Y-92339475D01*
X153151760Y-92456000D01*
X152977368Y-92572525D01*
X152770525Y-92779368D01*
X152608010Y-93022589D01*
X152496068Y-93292842D01*
X152439000Y-93579740D01*
X152439000Y-93872260D01*
X152496068Y-94159158D01*
X152608010Y-94429411D01*
X152770525Y-94672632D01*
X152977368Y-94879475D01*
X153151760Y-94996000D01*
X152977368Y-95112525D01*
X152770525Y-95319368D01*
X152608010Y-95562589D01*
X152496068Y-95832842D01*
X152439000Y-96119740D01*
X152439000Y-96412260D01*
X152496068Y-96699158D01*
X152608010Y-96969411D01*
X152770525Y-97212632D01*
X152977368Y-97419475D01*
X153151760Y-97536000D01*
X152977368Y-97652525D01*
X152770525Y-97859368D01*
X152608010Y-98102589D01*
X152496068Y-98372842D01*
X152439000Y-98659740D01*
X152439000Y-98952260D01*
X152496068Y-99239158D01*
X152608010Y-99509411D01*
X152770525Y-99752632D01*
X152977368Y-99959475D01*
X153151760Y-100076000D01*
X152977368Y-100192525D01*
X152770525Y-100399368D01*
X152608010Y-100642589D01*
X152496068Y-100912842D01*
X152439000Y-101199740D01*
X152439000Y-101492260D01*
X152496068Y-101779158D01*
X152608010Y-102049411D01*
X152770525Y-102292632D01*
X152977368Y-102499475D01*
X153151760Y-102616000D01*
X152977368Y-102732525D01*
X152770525Y-102939368D01*
X152608010Y-103182589D01*
X152496068Y-103452842D01*
X152439000Y-103739740D01*
X152439000Y-104032260D01*
X152496068Y-104319158D01*
X152608010Y-104589411D01*
X152770525Y-104832632D01*
X152902380Y-104964487D01*
X152829820Y-104986498D01*
X152719506Y-105045463D01*
X152622815Y-105124815D01*
X152543463Y-105221506D01*
X152484498Y-105331820D01*
X152448188Y-105451518D01*
X152435928Y-105576000D01*
X150357038Y-105576000D01*
X146560292Y-101779254D01*
X146530463Y-101742907D01*
X146385426Y-101623879D01*
X146219954Y-101535433D01*
X146040408Y-101480968D01*
X145900470Y-101467185D01*
X145853685Y-101462577D01*
X145806900Y-101467185D01*
X141814853Y-101467185D01*
X141585991Y-101238323D01*
X141592799Y-101215882D01*
X141605000Y-101092000D01*
X141605000Y-100953849D01*
X141814273Y-101093680D01*
X142075426Y-101201853D01*
X142352665Y-101257000D01*
X142635335Y-101257000D01*
X142912574Y-101201853D01*
X143173727Y-101093680D01*
X143408759Y-100936637D01*
X143608637Y-100736759D01*
X143764000Y-100504241D01*
X143919363Y-100736759D01*
X144119241Y-100936637D01*
X144354273Y-101093680D01*
X144615426Y-101201853D01*
X144892665Y-101257000D01*
X145175335Y-101257000D01*
X145452574Y-101201853D01*
X145713727Y-101093680D01*
X145948759Y-100936637D01*
X146148637Y-100736759D01*
X146305680Y-100501727D01*
X146310067Y-100491135D01*
X146421615Y-100677131D01*
X146610586Y-100885519D01*
X146836580Y-101053037D01*
X147090913Y-101173246D01*
X147224961Y-101213904D01*
X147447000Y-101091915D01*
X147447000Y-99949000D01*
X147701000Y-99949000D01*
X147701000Y-101091915D01*
X147923039Y-101213904D01*
X148057087Y-101173246D01*
X148311420Y-101053037D01*
X148537414Y-100885519D01*
X148726385Y-100677131D01*
X148871070Y-100435881D01*
X148965909Y-100171040D01*
X148844624Y-99949000D01*
X147701000Y-99949000D01*
X147447000Y-99949000D01*
X147427000Y-99949000D01*
X147427000Y-99695000D01*
X147447000Y-99695000D01*
X147447000Y-98552085D01*
X147701000Y-98552085D01*
X147701000Y-99695000D01*
X148844624Y-99695000D01*
X148965909Y-99472960D01*
X148871070Y-99208119D01*
X148726385Y-98966869D01*
X148537414Y-98758481D01*
X148311420Y-98590963D01*
X148057087Y-98470754D01*
X147923039Y-98430096D01*
X147701000Y-98552085D01*
X147447000Y-98552085D01*
X147224961Y-98430096D01*
X147090913Y-98470754D01*
X146836580Y-98590963D01*
X146621399Y-98750466D01*
X146621399Y-95772661D01*
X146625207Y-95733998D01*
X146621399Y-95695335D01*
X146621399Y-95695326D01*
X146610005Y-95579642D01*
X146564981Y-95431216D01*
X146491865Y-95294427D01*
X146458606Y-95253901D01*
X146418120Y-95204568D01*
X146418118Y-95204566D01*
X146393468Y-95174530D01*
X146363433Y-95149881D01*
X145430955Y-94217404D01*
X145468008Y-94095255D01*
X145485072Y-93922001D01*
X145485072Y-93021999D01*
X145468008Y-92848745D01*
X145417472Y-92682149D01*
X145335405Y-92528613D01*
X145224962Y-92394038D01*
X145090387Y-92283595D01*
X145059400Y-92267032D01*
X145059400Y-92020150D01*
X147719419Y-89360133D01*
X147859243Y-89332320D01*
X148037210Y-89258604D01*
X148197375Y-89151585D01*
X148333585Y-89015375D01*
X148440604Y-88855210D01*
X148514320Y-88677243D01*
X148551900Y-88488315D01*
X148551900Y-88295685D01*
X148514320Y-88106757D01*
X148440604Y-87928790D01*
X148333585Y-87768625D01*
X148197375Y-87632415D01*
X148037210Y-87525396D01*
X147859243Y-87451680D01*
X147670315Y-87414100D01*
X147477685Y-87414100D01*
X147288757Y-87451680D01*
X147110790Y-87525396D01*
X146950625Y-87632415D01*
X146814415Y-87768625D01*
X146707396Y-87928790D01*
X146633680Y-88106757D01*
X146605867Y-88246581D01*
X144145000Y-90707450D01*
X144145000Y-89358038D01*
X146944436Y-86558603D01*
X146980778Y-86528778D01*
X147099806Y-86383741D01*
X147188252Y-86218269D01*
X147242717Y-86038723D01*
X147256500Y-85898785D01*
X147261108Y-85852001D01*
X147256500Y-85805216D01*
X147256500Y-84367926D01*
X147381962Y-84264962D01*
X147382341Y-84264500D01*
X148258887Y-84264500D01*
X148274038Y-84282962D01*
G36*
X142349000Y-96139000D02*
G01*
X142369000Y-96139000D01*
X142369000Y-96393000D01*
X142349000Y-96393000D01*
X142349000Y-97442250D01*
X142507750Y-97601000D01*
X142797000Y-97604072D01*
X142921482Y-97591812D01*
X143041180Y-97555502D01*
X143151494Y-97496537D01*
X143248185Y-97417185D01*
X143313658Y-97337406D01*
X143319038Y-97343962D01*
X143453613Y-97454405D01*
X143484601Y-97470968D01*
X143484601Y-97717847D01*
X142785566Y-98416883D01*
X142635335Y-98387000D01*
X142352665Y-98387000D01*
X142075426Y-98442147D01*
X141814273Y-98550320D01*
X141605000Y-98690151D01*
X141605000Y-97599935D01*
X141647000Y-97604072D01*
X141936250Y-97601000D01*
X142095000Y-97442250D01*
X142095000Y-96393000D01*
X142075000Y-96393000D01*
X142075000Y-96139000D01*
X142095000Y-96139000D01*
X142095000Y-96119000D01*
X142349000Y-96119000D01*
X142349000Y-96139000D01*
G37*
X142349000Y-96139000D02*
X142369000Y-96139000D01*
X142369000Y-96393000D01*
X142349000Y-96393000D01*
X142349000Y-97442250D01*
X142507750Y-97601000D01*
X142797000Y-97604072D01*
X142921482Y-97591812D01*
X143041180Y-97555502D01*
X143151494Y-97496537D01*
X143248185Y-97417185D01*
X143313658Y-97337406D01*
X143319038Y-97343962D01*
X143453613Y-97454405D01*
X143484601Y-97470968D01*
X143484601Y-97717847D01*
X142785566Y-98416883D01*
X142635335Y-98387000D01*
X142352665Y-98387000D01*
X142075426Y-98442147D01*
X141814273Y-98550320D01*
X141605000Y-98690151D01*
X141605000Y-97599935D01*
X141647000Y-97604072D01*
X141936250Y-97601000D01*
X142095000Y-97442250D01*
X142095000Y-96393000D01*
X142075000Y-96393000D01*
X142075000Y-96139000D01*
X142095000Y-96139000D01*
X142095000Y-96119000D01*
X142349000Y-96119000D01*
X142349000Y-96139000D01*
%TD*%
M02*
